<svg width="71" height="70" viewBox="0 0 71 70" fill="none" xmlns="http://www.w3.org/2000/svg">
<path d="M41.6973 63.613C42.1411 63.613 42.4264 63.613 42.7117 63.613C51.3344 63.613 59.9412 63.613 68.5639 63.613C69.8478 63.613 70.0063 63.7715 70.0063 65.0712C70.0063 66.2283 70.0063 67.3854 70.0063 68.5425C70.0063 69.8264 69.8795 69.969 68.6114 69.969C64.4427 69.969 60.2899 69.969 56.1212 69.969C45.4538 69.969 34.7706 70.0641 24.1032 69.9215C12.3897 69.7471 2.22947 60.7916 0.374963 49.2207C0.153056 47.7942 0.0262596 46.3359 0.0262596 44.8935C-0.00544146 35.3832 -0.00543759 25.8571 0.0104129 16.3467C0.0262634 11.7501 2.80011 8.19958 7.1273 7.21685C7.93567 7.02664 8.79159 6.97909 9.63167 6.97909C16.1145 6.96324 22.5974 6.96324 29.0803 6.96324C29.3973 6.96324 29.6984 6.96324 30.1422 6.96324C30.1422 6.32922 30.1264 5.7269 30.1422 5.14043C30.1739 3.71389 30.9348 2.95306 32.3455 2.90551C33.027 2.87381 33.7086 2.88966 34.406 2.90551C35.6265 2.93721 36.1337 3.33347 36.6093 4.45886C36.7044 4.68077 37.0214 4.88682 37.2908 4.96608C40.1281 5.74275 42.9812 6.50358 45.8184 7.2644C47.2449 7.64481 47.6729 8.21543 47.6888 9.67368C47.7046 12.4317 47.562 12.606 44.9308 13.3034C42.3947 13.985 39.8427 14.6666 37.3067 15.3482C36.8946 15.4591 36.6568 15.6176 36.5141 16.0773C36.2447 16.9332 35.579 17.3929 34.6596 17.4087C33.8671 17.4246 33.0746 17.4246 32.2821 17.4087C31.014 17.3929 30.2215 16.6321 30.1422 15.364C30.1105 14.73 30.1422 14.1118 30.1422 13.3827C29.8094 13.3668 29.5399 13.3351 29.2546 13.3351C22.6925 13.3351 16.1304 13.3351 9.56826 13.3351C7.33334 13.3351 6.35062 14.3337 6.35062 16.5687C6.35062 20.1509 6.35062 23.7331 6.35062 27.3153C6.35062 27.5848 6.35062 27.8384 6.35062 28.2822C11.6605 22.7821 17.9532 19.8656 25.498 20.0399C33.027 20.2143 39.2404 23.2893 44.1224 28.9955C52.1269 38.3473 52.333 53.96 41.6973 63.613ZM6.35062 36.5562C6.39817 36.572 6.46157 36.572 6.50912 36.5879C6.63593 36.3342 6.76274 36.0806 6.88954 35.8429C10.9631 27.8542 19.9821 23.3844 28.6206 25.0804C39.5416 27.2361 46.5317 37.0951 44.9783 48.127C43.4091 59.2224 32.2979 67.116 21.2976 64.9444C11.4386 62.9948 4.70217 54.8159 4.68632 44.7192C4.67046 35.304 4.68632 25.9046 4.68632 16.4894C4.68632 13.4937 6.47742 11.7184 9.45732 11.7184C16.0194 11.7184 22.5815 11.7184 29.1436 11.7184C29.4607 11.7184 29.7618 11.7184 30.0788 11.7184C30.0788 10.6564 30.0788 9.67368 30.0788 8.69095C29.8569 8.6751 29.6984 8.65925 29.5399 8.65925C22.7717 8.65925 15.9877 8.65925 9.21956 8.65925C8.69649 8.65925 8.15757 8.69095 7.65035 8.78605C4.06814 9.51517 1.65885 12.4792 1.643 16.1724C1.62715 25.7937 1.62717 35.4149 1.65887 45.0362C1.65887 46.2725 1.78566 47.5089 1.96001 48.7293C3.87793 61.5366 16.6535 70.4763 29.3339 67.9085C42.5215 65.2456 50.7955 52.6127 47.5937 39.5519C45.327 30.2635 39.2404 24.3037 29.9045 22.259C20.6319 20.2301 12.8335 23.2576 6.69932 30.5013C6.52497 30.7073 6.36647 31.0085 6.36647 31.2621C6.35062 33.0215 6.35062 34.7967 6.35062 36.5562ZM25.0225 26.396C14.7514 26.3484 6.41402 34.6382 6.35062 44.9094C6.28722 55.2122 14.5929 63.5813 24.8957 63.613C35.1669 63.6447 43.5042 55.3707 43.5676 45.0996C43.6469 34.8126 35.3412 26.4435 25.0225 26.396ZM68.3578 65.3248C68.1042 65.309 67.9299 65.2773 67.7397 65.2773C58.5147 65.2773 49.3055 65.2773 40.0805 65.2773C39.8427 65.2773 39.5891 65.2773 39.3989 65.3882C37.7029 66.3551 36.0069 67.3379 34.406 68.273C45.6282 68.273 56.9772 68.273 68.3578 68.273C68.3578 67.2903 68.3578 66.3551 68.3578 65.3248ZM36.6885 13.8107C36.9421 13.7473 37.1006 13.7314 37.2433 13.6839C39.7318 13.0181 42.2203 12.3841 44.7089 11.7025C46.2622 11.2746 46.0403 11.6233 46.0879 9.87974C46.1037 9.27742 45.9293 9.00796 45.3112 8.84945C42.6958 8.18373 40.0805 7.45461 37.4652 6.75718C37.2274 6.69378 36.9897 6.66208 36.6885 6.59868C36.6885 9.03966 36.6885 11.3697 36.6885 13.8107ZM35.0242 10.165C35.0242 9.08721 35.0242 8.00938 35.0242 6.93154C35.0242 4.53811 35.0242 4.56981 32.6149 4.56981C31.9809 4.56981 31.8065 4.77587 31.8065 5.39404C31.8382 8.07278 31.8224 10.7515 31.8224 13.4461C31.8224 15.9346 31.8224 15.9188 34.3109 15.8237C34.8657 15.8078 35.0401 15.6018 35.0401 15.0629C35.0084 13.4303 35.0242 11.7976 35.0242 10.165Z" fill="#007EB1"/>
<path d="M49.4957 6.1548C49.2738 5.9012 48.8934 5.66344 48.8458 5.36228C48.8141 5.09282 49.0836 4.60145 49.3213 4.50635C50.415 4.12594 51.5246 3.80893 52.6499 3.55532C52.8877 3.50777 53.4108 3.82478 53.4742 4.06254C53.5376 4.34785 53.3474 4.93431 53.1255 5.01357C52.0001 5.47323 50.8271 5.75854 49.4957 6.1548Z" fill="#007EB1"/>
<path d="M55.8519 4.36361C55.63 4.1417 55.2337 3.9198 55.1862 3.65034C55.1386 3.38088 55.3605 2.84196 55.5824 2.76271C56.7237 2.36645 57.8808 2.04944 59.0537 1.77998C59.2756 1.73242 59.7353 2.06529 59.7987 2.28719C59.8621 2.5725 59.7036 3.14312 59.4975 3.20652C58.3563 3.65034 57.1675 3.96735 55.8519 4.36361Z" fill="#007EB1"/>
<path d="M62.1443 2.57256C61.9224 2.3348 61.542 2.1129 61.4944 1.84344C61.4469 1.57398 61.6846 1.05091 61.9224 0.971659C63.0319 0.575396 64.1731 0.258386 65.3302 0.00477789C65.568 -0.0427737 66.0593 0.274237 66.1386 0.527845C66.2178 0.781453 66.0276 1.35207 65.8216 1.43132C64.6486 1.85929 63.4599 2.1763 62.1443 2.57256Z" fill="#007EB1"/>
<path d="M62.1444 17.7891C63.4599 18.1853 64.6487 18.5023 65.8058 18.9303C66.0119 19.0096 66.2179 19.596 66.1228 19.8338C66.0436 20.0874 65.5522 20.4044 65.3145 20.3568C64.1574 20.1032 63.0161 19.7862 61.9066 19.39C61.6688 19.3107 61.4469 18.7876 61.4786 18.5023C61.5262 18.2487 61.9224 18.0268 62.1444 17.7891Z" fill="#007EB1"/>
<path d="M52.8562 16.8854C51.5565 16.505 50.3835 16.2039 49.2423 15.7917C49.0204 15.7125 48.7667 15.126 48.8619 14.92C48.9887 14.6347 49.4642 14.2859 49.7178 14.3493C50.8432 14.5871 51.9686 14.9041 53.0464 15.3004C53.2842 15.3955 53.5219 15.9344 53.4902 16.2356C53.4902 16.4575 53.0781 16.6794 52.8562 16.8854Z" fill="#007EB1"/>
<path d="M59.1487 18.6765C57.8648 18.2803 56.6761 17.9633 55.519 17.5511C55.3129 17.4719 55.091 16.933 55.1703 16.7269C55.2654 16.4575 55.725 16.0929 55.9311 16.1404C57.1199 16.3941 58.3087 16.7428 59.4657 17.139C59.6718 17.2183 59.8462 17.7572 59.7986 18.0584C59.7669 18.2961 59.3706 18.4863 59.1487 18.6765Z" fill="#007EB1"/>
<path d="M54.4412 10.9892C53.9182 10.9892 53.3951 10.9892 52.872 10.9892C52.349 10.9734 52.0003 10.7198 51.9844 10.1967C51.9686 9.67362 52.3173 9.37246 52.8403 9.35661C53.8865 9.34076 54.9326 9.34076 55.9787 9.35661C56.4859 9.35661 56.8347 9.61022 56.8505 10.165C56.8664 10.7198 56.5176 10.9734 56.0104 10.9892C55.4874 11.0051 54.9643 10.9892 54.4412 10.9892Z" fill="#007EB1"/>
<path d="M61.0191 9.35665C61.5105 9.35665 62.0177 9.35665 62.5091 9.35665C63.0638 9.3725 63.4443 9.62611 63.4443 10.1967C63.4443 10.7198 63.0797 10.9893 62.5566 10.9893C61.5105 11.0051 60.4644 11.0051 59.4182 10.9893C58.911 10.9734 58.5623 10.7198 58.5782 10.165C58.594 9.62611 58.9427 9.3725 59.4499 9.35665C59.973 9.3408 60.4961 9.35665 61.0191 9.35665Z" fill="#007EB1"/>
<path d="M67.5809 10.9894C67.0578 10.9894 66.5348 10.9894 66.0117 10.9894C65.4886 10.9894 65.1241 10.7199 65.1241 10.1968C65.1082 9.67378 65.4569 9.37262 65.9641 9.35677C67.042 9.34092 68.1198 9.29337 69.1818 9.38847C69.4671 9.42017 69.8951 9.84814 69.9585 10.1493C70.0853 10.6724 69.6732 10.9577 69.1501 10.9735C68.627 11.0052 68.104 10.9894 67.5809 10.9894Z" fill="#007EB1"/>
<path d="M24.9273 29.4551C33.4708 29.4393 40.4925 36.4135 40.5242 44.9569C40.5559 53.532 33.5342 60.5697 24.959 60.5697C16.4156 60.5697 9.40967 53.5637 9.40967 45.0203C9.40967 36.4769 16.3839 29.471 24.9273 29.4551ZM24.9432 31.0877C17.2557 31.1036 11.0423 37.3645 11.074 45.052C11.1057 52.7237 17.3032 58.9054 24.959 58.9054C32.6465 58.9054 38.8916 52.6761 38.8758 45.0045C38.8758 37.3011 32.6148 31.0719 24.9432 31.0877Z" fill="#007EB1"/>
<path d="M24.9909 55.8461C18.9994 55.862 14.1333 50.9959 14.1333 45.0044C14.1333 39.0446 18.9677 34.1785 24.9117 34.1626C30.919 34.1468 35.801 38.9653 35.8168 44.9568C35.8327 50.9642 30.9824 55.8461 24.9909 55.8461ZM24.9909 35.7952C19.9504 35.7794 15.7659 39.9481 15.75 44.9885C15.7342 50.029 19.9029 54.2135 24.9433 54.2294C29.9838 54.2452 34.1684 50.0766 34.1842 45.0361C34.2001 39.9956 30.0314 35.8111 24.9909 35.7952Z" fill="#007EB1"/>
</svg>
