<svg width="63" height="70" viewBox="0 0 63 70" fill="none" xmlns="http://www.w3.org/2000/svg">
<path d="M12.9383 0.0137001C28.8794 0.0137001 44.8205 0.0137001 60.7616 0.0137001C62.2818 0.821712 62.6926 1.54755 62.5009 3.02662C62.3365 4.28657 62.1722 5.54653 62.0079 6.82017C60.8575 16.1739 59.7071 25.514 58.543 34.8678C57.42 43.8791 56.2833 52.8905 55.174 61.8882C54.5988 66.5582 50.8874 69.9683 46.2037 69.982C36.2337 70.0094 26.2636 70.0094 16.2936 69.9546C15.1432 69.9546 13.9106 69.7081 12.8561 69.2562C9.29537 67.7634 7.62458 64.9148 7.20003 61.1487C6.51527 55.0954 5.72095 49.0422 4.98141 42.989C4.1871 36.5796 3.37908 30.1703 2.58477 23.7473C1.74937 16.9682 0.913974 10.2029 0.0785721 3.42378C-0.16794 1.49277 0.105952 0.917572 1.76306 0C3.8995 0 6.04963 0 8.18607 0C8.63801 0.383463 8.89822 0.82171 8.6654 1.42429C8.43258 2.02688 7.91217 2.05427 7.36436 2.05427C5.78943 2.04057 4.22818 2.05427 2.65324 2.05427C2.29717 2.05427 1.98218 2.08166 2.03696 2.5473C2.14652 3.46487 2.26978 4.38244 2.37934 5.28632C21.6894 5.28632 40.9174 5.28632 60.1727 5.28632C60.2686 4.51939 60.3508 3.79355 60.4603 3.0814C60.611 2.08166 60.5836 2.05427 59.5564 2.05427C44.3822 2.05427 29.2218 2.05427 14.0476 2.05427C13.8011 2.05427 13.5409 2.06796 13.2944 2.04057C12.7055 1.9721 12.3494 1.61603 12.4316 1.04083C12.4589 0.68476 12.7602 0.356078 12.9383 0.0137001ZM9.06256 59.3135C9.41863 59.3135 9.69254 59.3135 9.95274 59.3135C20.4569 59.3135 30.9473 59.3135 41.4515 59.3135C41.6843 59.3135 41.9034 59.3135 42.1363 59.3135C42.7936 59.3409 43.136 59.6559 43.1497 60.2585C43.1771 60.8748 42.8073 61.2856 42.1773 61.3541C41.9582 61.3815 41.7254 61.3678 41.4926 61.3678C31.0843 61.3678 20.676 61.3678 10.2677 61.3678C9.98014 61.3678 9.67884 61.3678 9.35016 61.3678C9.36385 61.6417 9.36386 61.8334 9.39125 62.0388C9.92536 65.3804 12.8561 67.9277 16.2662 67.9414C26.2362 67.9688 36.22 67.9551 46.19 67.9414C49.4494 67.9414 52.2022 65.6954 52.9691 62.5319C53.0513 62.1758 53.0923 61.806 53.1745 61.3678C51.2846 61.3678 49.5179 61.3815 47.7376 61.3678C47.0117 61.3678 46.6419 60.9843 46.6419 60.3406C46.6556 59.6833 47.0117 59.3409 47.7376 59.3272C49.0797 59.3135 50.4218 59.3272 51.7639 59.3272C52.298 59.3272 52.8458 59.3272 53.421 59.3272C55.2425 44.6324 57.0639 30.006 58.8854 15.3796C40.397 15.3796 22.0181 15.3796 3.58452 15.3796C5.41966 30.006 7.22742 44.6187 9.06256 59.3135ZM3.338 13.2432C22.0044 13.2432 40.5613 13.2432 59.173 13.2432C59.4058 11.3122 59.6523 9.39485 59.8851 7.43645C40.7667 7.43645 21.7442 7.43645 2.62586 7.43645C2.85868 9.39485 3.09149 11.2985 3.338 13.2432Z" fill="#3D3D3D"/>
<path d="M39.5479 33.0736C39.6574 32.7312 39.7122 32.5121 39.7944 32.3066C39.9998 31.7588 40.3833 31.5123 40.9722 31.6356C41.5474 31.7588 41.9034 32.2382 41.7665 32.7997C41.5063 33.8816 41.2187 34.9635 40.8763 36.018C40.6846 36.6069 40.2053 36.8534 39.5753 36.7028C38.7125 36.511 37.8497 36.3056 36.9869 36.1002C36.0967 35.8948 35.7817 35.525 35.905 34.8402C36.0282 34.1692 36.5213 33.9227 37.3978 34.087C37.4799 34.1007 37.5621 34.1281 37.7538 34.1692C37.6306 33.9227 37.5621 33.7446 37.4662 33.594C36.1789 31.3617 34.9052 29.1431 33.6042 26.9108C32.4127 24.8702 30.0983 24.8702 28.9205 26.8971C28.3727 27.8146 27.8523 28.7459 27.3044 29.6772C26.8936 30.3893 26.428 30.5537 25.8528 30.2387C25.2639 29.9237 25.1269 29.3622 25.5104 28.6774C26.0993 27.6503 26.6745 26.6095 27.2908 25.6097C29.0985 22.6516 33.3988 22.6379 35.1928 25.6097C36.5487 27.8557 37.8223 30.1291 39.137 32.4025C39.2466 32.5805 39.3698 32.7723 39.5479 33.0736Z" fill="#3D3D3D"/>
<path d="M32.6179 48.015C32.8371 48.2752 32.974 48.4259 33.0973 48.5765C33.4533 49.0422 33.426 49.5078 33.0288 49.9323C32.6179 50.3706 32.0838 50.4117 31.6319 49.9871C30.8376 49.2339 30.0707 48.467 29.3174 47.6726C28.8929 47.2344 28.9066 46.714 29.3037 46.262C30.0022 45.4814 30.7006 44.7008 31.4402 43.9613C31.8784 43.5093 32.3988 43.5367 32.8371 43.9476C33.2616 44.3447 33.289 44.8652 32.9192 45.3582C32.7823 45.5362 32.6453 45.7005 32.4399 45.9471C32.7138 45.9607 32.8918 45.9881 33.0562 45.9881C35.357 45.9881 37.6577 46.0018 39.9585 45.9881C42.2593 45.9745 43.4234 43.9613 42.3004 41.9618C41.9717 41.3729 41.6019 40.784 41.287 40.1814C40.9857 39.6199 41.1089 39.1406 41.6156 38.8256C42.1223 38.5106 42.7112 38.6065 43.0262 39.1406C43.5056 39.9212 43.9849 40.6881 44.3684 41.5098C45.7516 44.4543 43.574 47.9602 40.3146 48.015C37.7947 48.0561 35.2885 48.015 32.6179 48.015Z" fill="#3D3D3D"/>
<path d="M23.4423 36.3329C22.2372 38.442 21.0594 40.3593 20.0186 42.3451C19.1831 43.9474 20.3883 45.8647 22.1824 45.9469C23.0863 45.988 24.0038 45.9469 24.9214 45.9606C25.7431 45.9743 26.1677 46.3441 26.154 47.0014C26.1403 47.6588 25.7157 48.0012 24.894 48.0012C24.0449 48.0012 23.2095 48.0149 22.3604 48.0012C18.7312 47.9601 16.5811 44.1939 18.3614 41.0167C19.3064 39.3322 20.2925 37.6614 21.2511 35.9906C21.3744 35.7714 21.4976 35.5523 21.6483 35.2647C21.3607 35.3058 21.1552 35.3469 20.9361 35.3743C20.3198 35.4428 19.8816 35.1552 19.7583 34.5937C19.6351 34.0048 19.9364 33.4844 20.5527 33.3611C21.5524 33.1557 22.5658 32.9502 23.5656 32.7859C24.401 32.649 24.7571 32.9092 24.9488 33.7172C25.1679 34.58 25.3596 35.4428 25.5651 36.3055C25.7568 37.1273 25.5377 37.5792 24.8666 37.7572C24.2093 37.9216 23.7984 37.6203 23.5793 36.8123C23.5656 36.7301 23.5382 36.6205 23.4423 36.3329Z" fill="#3D3D3D"/>
</svg>
