<svg width="18" height="18" viewBox="0 0 18 18" fill="none" xmlns="http://www.w3.org/2000/svg">
<path d="M17.0077 9.24409C17.0077 10.93 16.9953 12.1076 16.9581 12.7522C16.8837 14.2894 16.4251 15.4794 15.5821 16.3224C14.7392 17.1653 13.5491 17.624 12.012 17.6984C11.3674 17.7356 10.1897 17.7479 8.50383 17.7479C6.81794 17.7479 5.64031 17.7356 4.9957 17.6984C3.45856 17.624 2.26851 17.1653 1.42557 16.3224C0.582618 15.4794 0.123936 14.2894 0.0495579 12.7522C0.012369 12.1076 0 10.93 0 9.24409C0 7.55819 0.012369 6.38054 0.0495579 5.73594C0.123936 4.1988 0.582618 3.00875 1.42557 2.1658C2.26851 1.32285 3.45856 0.864189 4.9957 0.789811C5.64031 0.752622 6.81794 0.740234 8.50383 0.740234C10.1897 0.740234 11.3674 0.752622 12.012 0.789811C13.5491 0.864189 14.7392 1.32285 15.5821 2.1658C16.4251 3.00875 16.8837 4.1988 16.9581 5.73594C16.9829 6.38054 17.0077 7.55819 17.0077 9.24409ZM9.34677 2.26497C8.83852 2.26497 8.55342 2.26497 8.50383 2.26497C8.45425 2.26497 8.16914 2.26497 7.6609 2.26497C7.15265 2.26497 6.75596 2.26497 6.49564 2.26497C6.23532 2.26497 5.87585 2.27737 5.42958 2.30216C4.98331 2.32695 4.59901 2.35176 4.2891 2.41374C3.9792 2.47572 3.70646 2.5377 3.49572 2.62448C3.12384 2.77323 2.80156 2.98395 2.51644 3.26907C2.23133 3.55418 2.02057 3.8765 1.87181 4.24839C1.78504 4.45912 1.72308 4.73184 1.6611 5.04175C1.59912 5.35165 1.57433 5.73594 1.54954 6.1822C1.52474 6.62847 1.52474 6.98796 1.51235 7.24828C1.51235 7.50861 1.51235 7.90529 1.51235 8.41354C1.51235 8.92179 1.51235 9.20689 1.51235 9.25648C1.51235 9.30606 1.51235 9.59119 1.51235 10.0994C1.51235 10.6077 1.51235 11.0044 1.51235 11.2647C1.51235 11.525 1.52474 11.8845 1.54954 12.3308C1.56193 12.777 1.59912 13.1613 1.6611 13.4712C1.72308 13.7811 1.78504 14.0539 1.87181 14.2646C2.02057 14.6365 2.23133 14.9588 2.51644 15.2439C2.80156 15.529 3.12384 15.7397 3.49572 15.8885C3.70646 15.9753 3.9792 16.0373 4.2891 16.0992C4.59901 16.1488 4.98331 16.1984 5.42958 16.2108C5.87585 16.2232 6.23532 16.2356 6.49564 16.248C6.75596 16.248 7.15265 16.248 7.6609 16.248C8.16914 16.248 8.45425 16.248 8.50383 16.248C8.55342 16.248 8.83852 16.248 9.34677 16.248C9.85502 16.248 10.2517 16.248 10.512 16.248C10.7723 16.248 11.1319 16.2356 11.5781 16.2108C12.0244 16.186 12.4087 16.1612 12.7186 16.0992C13.0285 16.0496 13.3012 15.9753 13.5119 15.8885C13.8838 15.7397 14.2061 15.529 14.4913 15.2439C14.7764 14.9588 14.9871 14.6365 15.1359 14.2646C15.2226 14.0539 15.2846 13.7935 15.3466 13.4712C15.3962 13.1613 15.4458 12.777 15.4582 12.3308C15.4706 11.8845 15.483 11.525 15.4954 11.2647C15.4954 11.0044 15.4954 10.6077 15.4954 10.0994C15.4954 9.59119 15.4954 9.30606 15.4954 9.25648C15.4954 9.20689 15.4954 8.92179 15.4954 8.41354C15.4954 7.90529 15.4954 7.50861 15.4954 7.24828C15.4954 6.98796 15.483 6.62847 15.4582 6.1822C15.4458 5.73594 15.4086 5.35165 15.3466 5.04175C15.297 4.73184 15.2226 4.45912 15.1359 4.24839C14.9871 3.8765 14.7764 3.55418 14.4913 3.26907C14.2061 2.98395 13.8838 2.77323 13.5119 2.62448C13.3012 2.5377 13.0409 2.47572 12.7186 2.41374C12.3963 2.35176 12.0244 2.32695 11.5781 2.30216C11.1319 2.28976 10.7723 2.27737 10.512 2.26497C10.2517 2.26497 9.86742 2.26497 9.34677 2.26497ZM11.5905 6.15741C12.4335 7.00035 12.8674 8.02925 12.8674 9.24409C12.8674 10.4589 12.4459 11.4878 11.5905 12.3308C10.7476 13.1737 9.70627 13.6076 8.50383 13.6076C7.289 13.6076 6.26012 13.1861 5.41717 12.3308C4.57422 11.4878 4.14036 10.4589 4.14036 9.24409C4.14036 8.02925 4.56183 7.00035 5.41717 6.15741C6.27251 5.31446 7.289 4.88059 8.50383 4.88059C9.71867 4.88059 10.7476 5.31446 11.5905 6.15741ZM10.512 11.2523C11.0699 10.6944 11.3426 10.0374 11.3426 9.24409C11.3426 8.45073 11.0699 7.79373 10.512 7.2359C9.95419 6.67806 9.2848 6.40535 8.50383 6.40535C7.72287 6.40535 7.05347 6.67806 6.49564 7.2359C5.93781 7.79373 5.66507 8.46312 5.66507 9.24409C5.66507 10.0251 5.93781 10.6944 6.49564 11.2523C7.05347 11.8101 7.72287 12.0828 8.50383 12.0828C9.2848 12.0828 9.95419 11.7977 10.512 11.2523ZM13.7599 3.98806C13.9582 4.1864 14.0574 4.42193 14.0574 4.70704C14.0574 4.99216 13.9582 5.22769 13.7599 5.42603C13.5615 5.62437 13.326 5.72355 13.0409 5.72355C12.7558 5.72355 12.5203 5.62437 12.3219 5.42603C12.1236 5.22769 12.0244 4.99216 12.0244 4.70704C12.0244 4.42193 12.1236 4.1864 12.3219 3.98806C12.5203 3.78971 12.7558 3.69056 13.0409 3.69056C13.326 3.69056 13.5615 3.78971 13.7599 3.98806Z" fill="#007EB1"/>
</svg>
