<svg width="18" height="18" viewBox="0 0 18 18" fill="none" xmlns="http://www.w3.org/2000/svg">
<path d="M0.286544 6.1293H3.81211V17.4626H0.286544V6.1293ZM2.04308 0.5C3.17674 0.5 4.08616 1.40916 4.08616 2.54249C4.08616 3.66337 3.17674 4.58498 2.04308 4.58498C0.90942 4.58498 0 3.66337 0 2.54249C0 1.40916 0.90942 0.5 2.04308 0.5Z" fill="#007EB1"/>
<path d="M6.01831 6.13239H9.3944V7.67671H9.44423C9.91763 6.78 11.0638 5.84595 12.7829 5.84595C16.3459 5.84595 17.0062 8.18733 17.0062 11.2386V17.4533H13.4806V11.9485C13.4806 10.6284 13.4557 8.94704 11.6493 8.94704C9.81797 8.94704 9.53144 10.3793 9.53144 11.8613V17.4657H6.00586V6.13239H6.01831Z" fill="#007EB1"/>
</svg>
