<svg width="17" height="16" viewBox="0 0 17 16" fill="none" xmlns="http://www.w3.org/2000/svg">
<mask id="path-1-outside-1_24_387" maskUnits="userSpaceOnUse" x="0" y="-0.5" width="17" height="17" fill="black">
<rect fill="white" y="-0.5" width="17" height="17"/>
<path fill-rule="evenodd" clip-rule="evenodd" d="M9.62402 0.50274C12.4543 0.552052 14.9825 2.53071 15.7595 5.30452C15.9136 5.85928 15.9938 6.42637 16 7.00579C16 7.22154 15.889 7.35714 15.704 7.35714C15.5251 7.35714 15.408 7.2277 15.4018 7.01196C15.3402 4.47854 13.8603 2.37044 11.5171 1.47049C10.9004 1.23626 10.2591 1.11914 9.59936 1.09449C9.53769 1.09449 9.46987 1.09449 9.4082 1.08832C9.24788 1.06983 9.13689 0.940386 9.14305 0.786285C9.14922 0.638348 9.26021 0.515068 9.41437 0.50274C9.45981 0.49861 9.50802 0.500014 9.55529 0.50139C9.57858 0.502068 9.60164 0.50274 9.62402 0.50274ZM10.0473 15.4616L10.0472 15.4616L10.0472 15.4616L10.0472 15.4616L10.0472 15.4616C9.93266 15.4423 9.81903 15.4231 9.70767 15.3971C9.20339 15.2794 8.76132 15.032 8.31911 14.7846L8.3191 14.7846L8.21199 14.7247C5.16612 13.0103 2.90745 10.5569 1.35121 7.44311C1.17561 7.09781 1.06661 6.72828 1.02422 6.34663C1.02074 6.3292 1.01525 6.31377 1.01006 6.2992L1.01006 6.2992C1.00623 6.28845 1.00257 6.27817 1 6.26788V5.62574L1.01224 5.55938L1.01225 5.55937L1.01225 5.55937C1.03854 5.41661 1.06545 5.27054 1.09689 5.129C1.24827 4.52321 1.53288 3.99617 1.96281 3.54788C2.16869 3.32981 2.38668 3.11778 2.60467 2.90576L2.60467 2.90576L2.60468 2.90575C2.96195 2.55439 3.46455 2.55439 3.81576 2.9118C4.5848 3.6751 5.35384 4.44445 6.11682 5.21381C6.46803 5.57122 6.46803 6.06797 6.11682 6.42539C5.91901 6.63135 5.71583 6.83193 5.51264 7.0325L5.51262 7.03253C5.41102 7.13282 5.30943 7.23311 5.20851 7.33407C4.91179 7.63091 4.88757 7.87323 5.11162 8.21853C5.20043 8.3518 5.29463 8.48508 5.38883 8.61835C5.43592 8.68499 5.48302 8.75162 5.52944 8.81826C5.65055 8.99394 5.63844 9.16356 5.49311 9.26654C5.35384 9.36347 5.17823 9.32712 5.06318 9.16356C4.89363 8.93336 4.72407 8.6971 4.57269 8.45478C4.26386 7.98227 4.33047 7.40071 4.72407 6.99483C5.0329 6.67982 5.34778 6.36481 5.66266 6.05585C5.83827 5.88018 5.83827 5.76508 5.66266 5.58334C4.92996 4.83822 4.1912 4.0931 3.44638 3.35403C3.26472 3.17229 3.14967 3.17229 2.97406 3.35403C2.8989 3.43089 2.82144 3.50637 2.74396 3.58187L2.74395 3.58187C2.54053 3.78008 2.337 3.9784 2.17475 4.20214C1.49049 5.14111 1.37544 6.1649 1.8962 7.21291C2.82873 9.10904 4.07615 10.7689 5.65055 12.1804C6.75264 13.1678 7.96372 13.9917 9.30196 14.6278C10.3738 15.1427 11.6393 14.9367 12.5053 14.125C12.6732 13.966 12.8343 13.8037 12.9963 13.6405L12.9964 13.6404L12.9966 13.6403C13.0506 13.5859 13.1047 13.5313 13.1593 13.4768C13.2985 13.3314 13.2985 13.1981 13.1593 13.0588L10.8885 10.7871C10.7431 10.6417 10.6099 10.6477 10.4585 10.7992C10.2529 11.0009 10.0499 11.2053 9.84607 11.4106C9.7438 11.5136 9.6413 11.6168 9.53812 11.72C9.08397 12.1683 8.51476 12.2289 7.98794 11.8714C7.66095 11.6473 7.34607 11.411 7.03118 11.1748C6.86163 11.0476 6.8253 10.8719 6.9343 10.7326C7.0433 10.5872 7.21285 10.5811 7.38845 10.7083C7.69728 10.9385 8.0061 11.1687 8.32099 11.3868C8.59953 11.5807 8.87203 11.5564 9.11424 11.3141C9.27158 11.1597 9.4274 11.0023 9.58322 10.8449L9.58332 10.8448L9.58351 10.8447C9.73945 10.6871 9.89538 10.5296 10.0528 10.3751C10.4343 9.99955 10.9248 9.99955 11.3063 10.3751C11.8107 10.8757 12.3124 11.379 12.8151 11.8832L12.8164 11.8845C13.0676 12.1365 13.319 12.3886 13.571 12.6408C13.9525 13.0224 13.9525 13.5192 13.571 13.9008C13.5122 13.9597 13.4533 14.0193 13.3943 14.0792L13.3943 14.0792L13.3943 14.0792L13.3942 14.0792C13.2164 14.2594 13.0368 14.4413 12.8504 14.6096C12.2933 15.1124 11.6393 15.3971 10.8945 15.4759C10.8794 15.4789 10.8628 15.4835 10.8462 15.488L10.8461 15.488L10.8461 15.488L10.8461 15.488C10.8294 15.4925 10.8128 15.4971 10.7976 15.5001H10.2648C10.1922 15.4861 10.1196 15.4738 10.0473 15.4616ZM14.2347 6.38143C13.9278 4.06723 11.9175 2.27215 9.56894 2.21586C9.55474 2.21586 9.54055 2.21547 9.52646 2.21507C9.48459 2.2139 9.44359 2.21276 9.4061 2.22212C9.24327 2.24088 9.13681 2.37848 9.14307 2.53485C9.14933 2.68496 9.26832 2.8038 9.42489 2.8163C9.47499 2.82256 9.5251 2.82256 9.5752 2.82256C10.1827 2.84758 10.7714 2.97267 11.3162 3.26038C12.813 4.04846 13.6021 5.29939 13.6835 6.98813C13.6898 7.22581 13.7963 7.35715 13.9842 7.35715C14.1783 7.35715 14.2973 7.2133 14.2848 6.96937C14.2785 6.76922 14.2597 6.57533 14.2347 6.38143ZM12.5714 6.95015C12.5658 6.9744 12.5613 6.9992 12.5568 7.02407C12.5458 7.0852 12.5346 7.14676 12.5073 7.2018C12.4432 7.33085 12.3215 7.37601 12.1805 7.3502C12.0395 7.32439 11.9434 7.2147 11.937 7.05339C11.9242 6.6985 11.8665 6.35006 11.7127 6.02744C11.2705 5.11118 10.5464 4.62079 9.53393 4.54981C9.5083 4.54981 9.48267 4.54981 9.45704 4.54336C9.26479 4.53045 9.13663 4.40785 9.14304 4.23363C9.14304 4.05296 9.28402 3.91101 9.48267 3.93037L9.49064 3.93098C9.73803 3.95014 9.9915 3.96977 10.2324 4.03361C11.5717 4.38204 12.4945 5.54995 12.5714 6.95015ZM10.5499 7.35487C10.7497 7.3406 10.8639 7.1837 10.8568 6.95548C10.8282 6.24229 10.2715 5.67887 9.55783 5.64321C9.31517 5.63608 9.15816 5.75019 9.14388 5.95701C9.12961 6.15671 9.25808 6.29935 9.48646 6.32787C9.92896 6.38493 10.1145 6.57036 10.1788 7.01967C10.2073 7.24789 10.35 7.37626 10.5499 7.35487Z"/>
</mask>
<path fill-rule="evenodd" clip-rule="evenodd" d="M9.62402 0.50274C12.4543 0.552052 14.9825 2.53071 15.7595 5.30452C15.9136 5.85928 15.9938 6.42637 16 7.00579C16 7.22154 15.889 7.35714 15.704 7.35714C15.5251 7.35714 15.408 7.2277 15.4018 7.01196C15.3402 4.47854 13.8603 2.37044 11.5171 1.47049C10.9004 1.23626 10.2591 1.11914 9.59936 1.09449C9.53769 1.09449 9.46987 1.09449 9.4082 1.08832C9.24788 1.06983 9.13689 0.940386 9.14305 0.786285C9.14922 0.638348 9.26021 0.515068 9.41437 0.50274C9.45981 0.49861 9.50802 0.500014 9.55529 0.50139C9.57858 0.502068 9.60164 0.50274 9.62402 0.50274ZM10.0473 15.4616L10.0472 15.4616L10.0472 15.4616L10.0472 15.4616L10.0472 15.4616C9.93266 15.4423 9.81903 15.4231 9.70767 15.3971C9.20339 15.2794 8.76132 15.032 8.31911 14.7846L8.3191 14.7846L8.21199 14.7247C5.16612 13.0103 2.90745 10.5569 1.35121 7.44311C1.17561 7.09781 1.06661 6.72828 1.02422 6.34663C1.02074 6.3292 1.01525 6.31377 1.01006 6.2992L1.01006 6.2992C1.00623 6.28845 1.00257 6.27817 1 6.26788V5.62574L1.01224 5.55938L1.01225 5.55937L1.01225 5.55937C1.03854 5.41661 1.06545 5.27054 1.09689 5.129C1.24827 4.52321 1.53288 3.99617 1.96281 3.54788C2.16869 3.32981 2.38668 3.11778 2.60467 2.90576L2.60467 2.90576L2.60468 2.90575C2.96195 2.55439 3.46455 2.55439 3.81576 2.9118C4.5848 3.6751 5.35384 4.44445 6.11682 5.21381C6.46803 5.57122 6.46803 6.06797 6.11682 6.42539C5.91901 6.63135 5.71583 6.83193 5.51264 7.0325L5.51262 7.03253C5.41102 7.13282 5.30943 7.23311 5.20851 7.33407C4.91179 7.63091 4.88757 7.87323 5.11162 8.21853C5.20043 8.3518 5.29463 8.48508 5.38883 8.61835C5.43592 8.68499 5.48302 8.75162 5.52944 8.81826C5.65055 8.99394 5.63844 9.16356 5.49311 9.26654C5.35384 9.36347 5.17823 9.32712 5.06318 9.16356C4.89363 8.93336 4.72407 8.6971 4.57269 8.45478C4.26386 7.98227 4.33047 7.40071 4.72407 6.99483C5.0329 6.67982 5.34778 6.36481 5.66266 6.05585C5.83827 5.88018 5.83827 5.76508 5.66266 5.58334C4.92996 4.83822 4.1912 4.0931 3.44638 3.35403C3.26472 3.17229 3.14967 3.17229 2.97406 3.35403C2.8989 3.43089 2.82144 3.50637 2.74396 3.58187L2.74395 3.58187C2.54053 3.78008 2.337 3.9784 2.17475 4.20214C1.49049 5.14111 1.37544 6.1649 1.8962 7.21291C2.82873 9.10904 4.07615 10.7689 5.65055 12.1804C6.75264 13.1678 7.96372 13.9917 9.30196 14.6278C10.3738 15.1427 11.6393 14.9367 12.5053 14.125C12.6732 13.966 12.8343 13.8037 12.9963 13.6405L12.9964 13.6404L12.9966 13.6403C13.0506 13.5859 13.1047 13.5313 13.1593 13.4768C13.2985 13.3314 13.2985 13.1981 13.1593 13.0588L10.8885 10.7871C10.7431 10.6417 10.6099 10.6477 10.4585 10.7992C10.2529 11.0009 10.0499 11.2053 9.84607 11.4106C9.7438 11.5136 9.6413 11.6168 9.53812 11.72C9.08397 12.1683 8.51476 12.2289 7.98794 11.8714C7.66095 11.6473 7.34607 11.411 7.03118 11.1748C6.86163 11.0476 6.8253 10.8719 6.9343 10.7326C7.0433 10.5872 7.21285 10.5811 7.38845 10.7083C7.69728 10.9385 8.0061 11.1687 8.32099 11.3868C8.59953 11.5807 8.87203 11.5564 9.11424 11.3141C9.27158 11.1597 9.4274 11.0023 9.58322 10.8449L9.58332 10.8448L9.58351 10.8447C9.73945 10.6871 9.89538 10.5296 10.0528 10.3751C10.4343 9.99955 10.9248 9.99955 11.3063 10.3751C11.8107 10.8757 12.3124 11.379 12.8151 11.8832L12.8164 11.8845C13.0676 12.1365 13.319 12.3886 13.571 12.6408C13.9525 13.0224 13.9525 13.5192 13.571 13.9008C13.5122 13.9597 13.4533 14.0193 13.3943 14.0792L13.3943 14.0792L13.3943 14.0792L13.3942 14.0792C13.2164 14.2594 13.0368 14.4413 12.8504 14.6096C12.2933 15.1124 11.6393 15.3971 10.8945 15.4759C10.8794 15.4789 10.8628 15.4835 10.8462 15.488L10.8461 15.488L10.8461 15.488L10.8461 15.488C10.8294 15.4925 10.8128 15.4971 10.7976 15.5001H10.2648C10.1922 15.4861 10.1196 15.4738 10.0473 15.4616ZM14.2347 6.38143C13.9278 4.06723 11.9175 2.27215 9.56894 2.21586C9.55474 2.21586 9.54055 2.21547 9.52646 2.21507C9.48459 2.2139 9.44359 2.21276 9.4061 2.22212C9.24327 2.24088 9.13681 2.37848 9.14307 2.53485C9.14933 2.68496 9.26832 2.8038 9.42489 2.8163C9.47499 2.82256 9.5251 2.82256 9.5752 2.82256C10.1827 2.84758 10.7714 2.97267 11.3162 3.26038C12.813 4.04846 13.6021 5.29939 13.6835 6.98813C13.6898 7.22581 13.7963 7.35715 13.9842 7.35715C14.1783 7.35715 14.2973 7.2133 14.2848 6.96937C14.2785 6.76922 14.2597 6.57533 14.2347 6.38143ZM12.5714 6.95015C12.5658 6.9744 12.5613 6.9992 12.5568 7.02407C12.5458 7.0852 12.5346 7.14676 12.5073 7.2018C12.4432 7.33085 12.3215 7.37601 12.1805 7.3502C12.0395 7.32439 11.9434 7.2147 11.937 7.05339C11.9242 6.6985 11.8665 6.35006 11.7127 6.02744C11.2705 5.11118 10.5464 4.62079 9.53393 4.54981C9.5083 4.54981 9.48267 4.54981 9.45704 4.54336C9.26479 4.53045 9.13663 4.40785 9.14304 4.23363C9.14304 4.05296 9.28402 3.91101 9.48267 3.93037L9.49064 3.93098C9.73803 3.95014 9.9915 3.96977 10.2324 4.03361C11.5717 4.38204 12.4945 5.54995 12.5714 6.95015ZM10.5499 7.35487C10.7497 7.3406 10.8639 7.1837 10.8568 6.95548C10.8282 6.24229 10.2715 5.67887 9.55783 5.64321C9.31517 5.63608 9.15816 5.75019 9.14388 5.95701C9.12961 6.15671 9.25808 6.29935 9.48646 6.32787C9.92896 6.38493 10.1145 6.57036 10.1788 7.01967C10.2073 7.24789 10.35 7.37626 10.5499 7.35487Z" fill="#007EB1"/>
<path d="M15.7595 5.30452L15.9522 5.25097L15.9521 5.25058L15.7595 5.30452ZM9.62402 0.50274L9.62751 0.30274H9.62402V0.50274ZM16 7.00579H16.2L16.1999 7.00367L16 7.00579ZM15.4018 7.01196L15.2019 7.01682L15.2019 7.01767L15.4018 7.01196ZM11.5171 1.47049L11.5888 1.28379L11.5881 1.28353L11.5171 1.47049ZM9.59936 1.09449L9.60683 0.894487H9.59936V1.09449ZM9.4082 1.08832L9.38528 1.28703L9.38831 1.28733L9.4082 1.08832ZM9.14305 0.786285L8.94323 0.777957L8.94321 0.778288L9.14305 0.786285ZM9.41437 0.50274L9.43031 0.702115L9.43247 0.701919L9.41437 0.50274ZM9.55529 0.50139L9.54947 0.701305L9.55529 0.50139ZM10.0472 15.4616L10.008 15.6578L10.0143 15.6589L10.0472 15.4616ZM10.0473 15.4616L10.0806 15.2644L10.0802 15.2644L10.0473 15.4616ZM10.0472 15.4616L10.0864 15.2654L10.0804 15.2644L10.0472 15.4616ZM9.70767 15.3971L9.66221 15.5919L9.70767 15.3971ZM8.31911 14.7846L8.41677 14.61L8.40544 14.6037L8.39338 14.5989L8.31911 14.7846ZM8.3191 14.7846L8.22154 14.9592L8.23282 14.9655L8.24482 14.9703L8.3191 14.7846ZM8.21199 14.7247L8.11389 14.899L8.11443 14.8993L8.21199 14.7247ZM1.35121 7.44311L1.53012 7.3537L1.52948 7.35245L1.35121 7.44311ZM1.02422 6.34663L1.223 6.32456L1.22204 6.31593L1.22034 6.30743L1.02422 6.34663ZM1.01006 6.2992L0.819492 6.36024L0.821638 6.36627L1.01006 6.2992ZM1.01006 6.2992L1.20062 6.23816L1.19848 6.23213L1.01006 6.2992ZM1 6.26788H0.8V6.29249L0.805967 6.31637L1 6.26788ZM1 5.62574L0.803319 5.58946L0.8 5.60745V5.62574H1ZM1.01224 5.55938L0.816147 5.51993L0.815564 5.52309L1.01224 5.55938ZM1.01225 5.55937L0.817351 5.51408L0.816173 5.51993L1.01225 5.55937ZM1.01225 5.55937L1.20726 5.6047L1.20894 5.5956L1.01225 5.55937ZM1.09689 5.129L0.902786 5.08049L0.901645 5.08563L1.09689 5.129ZM1.96281 3.54788L2.10716 3.68632L2.10824 3.68518L1.96281 3.54788ZM2.60467 2.90576L2.46896 2.75875L2.46522 2.76239L2.60467 2.90576ZM2.60467 2.90576L2.74043 3.05284L2.74609 3.04718L2.60467 2.90576ZM2.60468 2.90575L2.46444 2.76315L2.46326 2.76433L2.60468 2.90575ZM3.81576 2.9118L3.6731 3.05199L3.67487 3.05375L3.81576 2.9118ZM6.11682 5.21381L6.25947 5.07363L6.25883 5.07298L6.11682 5.21381ZM6.11682 6.42539L5.97415 6.2852L5.97257 6.28685L6.11682 6.42539ZM5.51264 7.0325L5.37213 6.89017L5.37122 6.89108L5.51264 7.0325ZM5.51262 7.03253L5.65312 7.17487L5.65404 7.17395L5.51262 7.03253ZM5.20851 7.33407L5.06706 7.19268L5.20851 7.33407ZM5.11162 8.21853L4.94383 8.3274L4.94519 8.32943L5.11162 8.21853ZM5.38883 8.61835L5.55215 8.50292H5.55215L5.38883 8.61835ZM5.52944 8.81826L5.69411 8.70474L5.69355 8.70393L5.52944 8.81826ZM5.49311 9.26654L5.60736 9.43071L5.60875 9.42972L5.49311 9.26654ZM5.06318 9.16356L5.2268 9.04846L5.22421 9.04495L5.06318 9.16356ZM4.57269 8.45478L4.74234 8.34879L4.7401 8.34537L4.57269 8.45478ZM4.72407 6.99483L4.58126 6.85481L4.5805 6.8556L4.72407 6.99483ZM5.66266 6.05585L5.80274 6.19862L5.80411 6.19725L5.66266 6.05585ZM5.66266 5.58334L5.80649 5.44436L5.80527 5.44311L5.66266 5.58334ZM3.44638 3.35403L3.30493 3.49542L3.30551 3.496L3.44638 3.35403ZM2.97406 3.35403L3.11706 3.49386L3.11789 3.49301L2.97406 3.35403ZM2.74396 3.58187L2.60437 3.43861L2.60254 3.44045L2.74396 3.58187ZM2.74395 3.58187L2.88354 3.72513L2.88537 3.72329L2.74395 3.58187ZM2.17475 4.20214L2.33638 4.31993L2.33666 4.31955L2.17475 4.20214ZM1.8962 7.21291L2.07567 7.12465L2.07531 7.12392L1.8962 7.21291ZM5.65055 12.1804L5.51705 12.3293L5.51709 12.3293L5.65055 12.1804ZM9.30196 14.6278L9.38857 14.4475L9.38782 14.4472L9.30196 14.6278ZM12.5053 14.125L12.6421 14.2709L12.6427 14.2702L12.5053 14.125ZM12.9963 13.6405L12.8549 13.4991L12.8544 13.4996L12.9963 13.6405ZM12.9964 13.6404L13.1379 13.7819L13.1397 13.78L12.9964 13.6404ZM12.9966 13.6403L12.8546 13.4994L12.8533 13.5007L12.9966 13.6403ZM13.1593 13.4768L13.3007 13.6182L13.3037 13.6151L13.1593 13.4768ZM13.1593 13.0588L13.3007 12.9174V12.9174L13.1593 13.0588ZM10.8885 10.7871L10.747 10.9285V10.9285L10.8885 10.7871ZM10.4585 10.7992L10.5986 10.942L10.6 10.9406L10.4585 10.7992ZM9.84607 11.4106L9.70416 11.2696L9.84607 11.4106ZM9.53812 11.72L9.67862 11.8623L9.67957 11.8614L9.53812 11.72ZM7.98794 11.8714L7.87486 12.0364L7.87565 12.0369L7.98794 11.8714ZM7.03118 11.1748L7.15122 11.0148L7.15122 11.0148L7.03118 11.1748ZM6.9343 10.7326L7.09186 10.8558L7.09432 10.8525L6.9343 10.7326ZM7.38845 10.7083L7.50799 10.548L7.50579 10.5464L7.38845 10.7083ZM8.32099 11.3868L8.43523 11.2226L8.43486 11.2224L8.32099 11.3868ZM9.11424 11.3141L8.97417 11.1713L8.97279 11.1727L9.11424 11.3141ZM9.58322 10.8449L9.44179 10.7035L9.44108 10.7042L9.58322 10.8449ZM9.58351 10.8447L9.72494 10.9861L9.72565 10.9854L9.58351 10.8447ZM10.0528 10.3751L10.1929 10.5179L10.1931 10.5177L10.0528 10.3751ZM11.3063 10.3751L11.4472 10.2332L11.4466 10.2326L11.3063 10.3751ZM12.8151 11.8832L12.6734 12.0244L12.6735 12.0244L12.8151 11.8832ZM12.8164 11.8845L12.958 11.7433L12.958 11.7432L12.8164 11.8845ZM13.571 12.6408L13.7125 12.4994L13.7125 12.4994L13.571 12.6408ZM13.571 13.9008L13.4296 13.7594L13.571 13.9008ZM13.3943 14.0792L13.5357 14.2206L13.5366 14.2196L13.3943 14.0792ZM13.3942 14.0792L13.2528 13.9378L13.2519 13.9387L13.3942 14.0792ZM12.8504 14.6096L12.9844 14.7581L12.9845 14.7581L12.8504 14.6096ZM10.8945 15.4759L10.8735 15.277L10.8643 15.278L10.8553 15.2798L10.8945 15.4759ZM10.8462 15.488L10.8947 15.6821L10.8988 15.6809L10.8462 15.488ZM10.8461 15.488L10.7976 15.2939L10.7946 15.2947L10.8461 15.488ZM10.8461 15.488L10.7946 15.2948L10.7934 15.2951L10.8461 15.488ZM10.7976 15.5001V15.7001H10.8175L10.8369 15.6962L10.7976 15.5001ZM10.2648 15.5001L10.2268 15.6965L10.2456 15.7001H10.2648V15.5001ZM9.56894 2.21586L9.57373 2.01586H9.56894V2.21586ZM14.2347 6.38143L14.433 6.35581L14.4329 6.35514L14.2347 6.38143ZM9.52646 2.21507L9.52088 2.41499H9.52088L9.52646 2.21507ZM9.4061 2.22212L9.429 2.4208L9.44193 2.41931L9.45455 2.41616L9.4061 2.22212ZM9.14307 2.53485L8.94323 2.54285L8.94324 2.54318L9.14307 2.53485ZM9.42489 2.8163L9.44969 2.61765L9.44082 2.61694L9.42489 2.8163ZM9.5752 2.82256L9.58343 2.62256H9.5752V2.82256ZM11.3162 3.26038L11.2228 3.43724L11.2231 3.43735L11.3162 3.26038ZM13.6835 6.98813L13.8835 6.98286L13.8833 6.9785L13.6835 6.98813ZM14.2848 6.96937L14.0848 6.97563L14.085 6.97962L14.2848 6.96937ZM12.5568 7.02407L12.36 6.98845V6.98845L12.5568 7.02407ZM12.5714 6.95015L12.7663 6.99483L12.7726 6.96734L12.7711 6.93918L12.5714 6.95015ZM12.5073 7.2018L12.3282 7.11285L12.3282 7.11285L12.5073 7.2018ZM12.1805 7.3502L12.2165 7.15347H12.2165L12.1805 7.3502ZM11.937 7.05339L11.7371 7.06061L11.7371 7.06133L11.937 7.05339ZM11.7127 6.02744L11.8932 5.94137L11.8928 5.94051L11.7127 6.02744ZM9.53393 4.54981L9.54795 4.34981H9.53393V4.54981ZM9.45704 4.54336L9.50586 4.34941L9.4884 4.34501L9.47043 4.34381L9.45704 4.54336ZM9.14304 4.23363L9.34304 4.24099V4.23363H9.14304ZM9.48267 3.93037L9.46327 4.12946L9.46723 4.12977L9.48267 3.93037ZM9.49064 3.93098L9.50608 3.73158L9.49064 3.93098ZM10.2324 4.03361L10.1812 4.22694L10.1821 4.22716L10.2324 4.03361ZM10.8568 6.95548L11.0567 6.94923L11.0566 6.94748L10.8568 6.95548ZM10.5499 7.35487L10.5356 7.15525L10.5286 7.15601L10.5499 7.35487ZM9.55783 5.64321L9.56782 5.44342L9.56371 5.4433L9.55783 5.64321ZM9.14388 5.95701L9.34338 5.97127L9.34341 5.97078L9.14388 5.95701ZM9.48646 6.32787L9.51204 6.12951L9.51125 6.12942L9.48646 6.32787ZM10.1788 7.01967L10.3772 6.99484L10.3767 6.99136L10.1788 7.01967ZM15.9521 5.25058C15.1518 2.39374 12.5484 0.353659 9.62751 0.30277L9.62054 0.702709C12.3603 0.750444 14.8132 2.66767 15.5669 5.35847L15.9521 5.25058ZM16.1999 7.00367C16.1936 6.40698 16.111 5.82259 15.9522 5.25097L15.5668 5.35807C15.7162 5.89597 15.794 6.44577 15.8 7.00792L16.1999 7.00367ZM15.704 7.55714C15.8493 7.55714 15.982 7.5017 16.0748 7.39063C16.164 7.28393 16.2 7.14587 16.2 7.00579H15.8C15.8 7.08146 15.7804 7.11908 15.7679 7.13412C15.759 7.14479 15.7437 7.15714 15.704 7.15714V7.55714ZM15.2019 7.01767C15.2059 7.15909 15.2471 7.29467 15.3383 7.39787C15.4323 7.50428 15.5629 7.55714 15.704 7.55714V7.15714C15.6662 7.15714 15.6489 7.14528 15.638 7.13304C15.6244 7.11758 15.6039 7.08057 15.6017 7.00624L15.2019 7.01767ZM11.4454 1.6572C13.7121 2.5278 15.1422 4.56356 15.2019 7.01682L15.6018 7.00709C15.5381 4.39353 14.0084 2.21309 11.5888 1.28379L11.4454 1.6572ZM9.59189 1.29435C10.2327 1.31829 10.8522 1.43187 11.446 1.65746L11.5881 1.28353C10.9487 1.04065 10.2856 0.919993 9.60683 0.894626L9.59189 1.29435ZM9.38831 1.28733C9.46169 1.29467 9.53981 1.29449 9.59936 1.29449V0.894487C9.53558 0.894487 9.47804 0.894307 9.4281 0.889315L9.38831 1.28733ZM8.94321 0.778288C8.93273 1.04022 9.12426 1.2569 9.38529 1.28701L9.43112 0.88964C9.37149 0.882763 9.34104 0.840555 9.34289 0.794282L8.94321 0.778288ZM9.39843 0.303376C9.13928 0.3241 8.95342 0.533315 8.94323 0.777957L9.34288 0.794613C9.34501 0.743382 9.38115 0.706035 9.43031 0.702103L9.39843 0.303376ZM9.56111 0.301475C9.5163 0.30017 9.45578 0.298152 9.39627 0.30356L9.43247 0.701919C9.46384 0.699068 9.49975 0.699858 9.54947 0.701305L9.56111 0.301475ZM9.62402 0.30274C9.60506 0.30274 9.58496 0.302169 9.56111 0.301475L9.54947 0.701305C9.5722 0.701967 9.59822 0.70274 9.62402 0.70274V0.30274ZM10.0143 15.6589L10.0145 15.6589L10.0802 15.2644L10.0801 15.2643L10.0143 15.6589ZM10.008 15.6577L10.008 15.6577L10.0864 15.2655L10.0864 15.2655L10.008 15.6577ZM10.008 15.6577L10.008 15.6577L10.0864 15.2655L10.0864 15.2655L10.008 15.6577ZM10.0079 15.6577L10.008 15.6577L10.0864 15.2655L10.0864 15.2655L10.0079 15.6577ZM9.66221 15.5919C9.78065 15.6195 9.90047 15.6397 10.0139 15.6588L10.0804 15.2644C9.96485 15.2449 9.8574 15.2267 9.75314 15.2024L9.66221 15.5919ZM8.22144 14.9591C8.65972 15.2044 9.12594 15.4667 9.66221 15.5919L9.75314 15.2024C9.28084 15.0921 8.86293 14.8597 8.41677 14.61L8.22144 14.9591ZM8.24482 14.9703L8.24483 14.9703L8.39338 14.5989L8.39338 14.5989L8.24482 14.9703ZM8.11443 14.8993L8.22154 14.9592L8.41666 14.61L8.30955 14.5501L8.11443 14.8993ZM1.17231 7.53253C2.74539 10.68 5.03129 13.1639 8.11389 14.899L8.31009 14.5504C5.30095 12.8567 3.06951 10.4338 1.53011 7.3537L1.17231 7.53253ZM0.825444 6.36871C0.870443 6.77387 0.986251 7.16668 1.17294 7.53378L1.52948 7.35245C1.36496 7.02895 1.26278 6.68269 1.223 6.32456L0.825444 6.36871ZM0.821638 6.36627C0.824407 6.37405 0.825777 6.37797 0.826892 6.38153C0.827858 6.38462 0.828094 6.3858 0.828102 6.38584L1.22034 6.30743C1.21362 6.27379 1.20321 6.24544 1.19848 6.23213L0.821638 6.36627ZM0.819589 6.36021L0.81959 6.36021L1.20052 6.23819L1.20052 6.23819L0.819589 6.36021ZM0.805967 6.31637C0.811311 6.33776 0.818466 6.35736 0.821638 6.36627L1.19848 6.23213C1.19642 6.22634 1.19535 6.22332 1.1945 6.22073C1.19373 6.2184 1.19374 6.21823 1.19403 6.21939L0.805967 6.31637ZM0.8 5.62574V6.26788H1.2V5.62574H0.8ZM0.815564 5.52309L0.803319 5.58946L1.19668 5.66203L1.20893 5.59566L0.815564 5.52309ZM0.816173 5.51993L0.816173 5.51993L1.20832 5.59882L1.20832 5.59882L0.816173 5.51993ZM0.817438 5.51409L0.817438 5.5141L1.20705 5.60465L1.20705 5.60465L0.817438 5.51409ZM0.901645 5.08563C0.86928 5.23133 0.841731 5.38102 0.815554 5.52314L1.20894 5.5956C1.23535 5.4522 1.26161 5.30974 1.29213 5.17237L0.901645 5.08563ZM1.81846 3.40945C1.36345 3.88389 1.06234 4.4423 0.902853 5.08051L1.29092 5.17748C1.4342 4.60411 1.7023 4.10845 2.10715 3.68632L1.81846 3.40945ZM2.46522 2.76239C2.24777 2.97389 2.02668 3.18888 1.81738 3.41059L2.10824 3.68518C2.31069 3.47073 2.52558 3.26168 2.74411 3.04913L2.46522 2.76239ZM2.46901 2.7588L2.46901 2.7588L2.74032 3.05272L2.74033 3.05272L2.46901 2.7588ZM2.46326 2.76433L2.46325 2.76434L2.74609 3.04718L2.7461 3.04717L2.46326 2.76433ZM3.95842 2.77163C3.74836 2.55786 3.48492 2.44395 3.2132 2.44299C2.94174 2.44203 2.6773 2.55382 2.46445 2.76315L2.74492 3.04834C2.88934 2.90631 3.05483 2.84243 3.21179 2.84298C3.36849 2.84354 3.53196 2.90834 3.67311 3.05198L3.95842 2.77163ZM6.25883 5.07298C5.49547 4.30325 4.72607 3.53352 3.95665 2.76985L3.67487 3.05375C4.44354 3.81668 5.2122 4.58566 5.97481 5.35464L6.25883 5.07298ZM6.25947 6.56557C6.4684 6.35294 6.58023 6.09027 6.58023 5.8196C6.58023 5.54892 6.4684 5.28625 6.25947 5.07363L5.97416 5.35399C6.11645 5.49878 6.18023 5.66319 6.18023 5.8196C6.18023 5.976 6.11645 6.14041 5.97416 6.28521L6.25947 6.56557ZM5.65315 7.17484C5.85602 6.97457 6.06111 6.77213 6.26107 6.56392L5.97257 6.28685C5.77692 6.49057 5.57564 6.68928 5.37214 6.89017L5.65315 7.17484ZM5.65404 7.17395L5.65406 7.17392L5.37122 6.89108L5.37119 6.89111L5.65404 7.17395ZM5.34996 7.47546C5.45033 7.37505 5.55145 7.27523 5.65312 7.17486L5.37211 6.8902C5.2706 6.99041 5.16853 7.09117 5.06706 7.19268L5.34996 7.47546ZM5.2794 8.10966C5.17885 7.95471 5.15553 7.85489 5.16363 7.7795C5.17177 7.70379 5.21627 7.60921 5.34996 7.47546L5.06706 7.19268C4.90403 7.35577 4.78806 7.53077 4.76592 7.73675C4.74375 7.94305 4.82034 8.13704 4.94384 8.32739L5.2794 8.10966ZM5.55215 8.50292C5.45767 8.36924 5.36508 8.23822 5.27805 8.10762L4.94519 8.32943C5.03579 8.46538 5.13159 8.60092 5.2255 8.73379L5.55215 8.50292ZM5.69355 8.70393C5.64667 8.63665 5.59918 8.56946 5.55215 8.50292L5.2255 8.73379C5.27267 8.80052 5.31937 8.8666 5.36534 8.93258L5.69355 8.70393ZM5.60875 9.42972C5.725 9.34735 5.79944 9.22738 5.81058 9.08529C5.82124 8.94931 5.77221 8.81803 5.69411 8.70474L5.36478 8.93177C5.40779 8.99416 5.41325 9.03554 5.4118 9.05403C5.41083 9.06641 5.40656 9.08275 5.37748 9.10336L5.60875 9.42972ZM4.89959 9.27862C4.9806 9.39379 5.09276 9.47739 5.22421 9.50764C5.35742 9.53829 5.49357 9.50989 5.60736 9.4307L5.37887 9.10238C5.35338 9.12012 5.33209 9.12201 5.31391 9.11783C5.29398 9.11324 5.26081 9.09689 5.22676 9.04849L4.89959 9.27862ZM4.40307 8.56075C4.55869 8.80984 4.73199 9.05115 4.90214 9.28217L5.22421 9.04495C5.05526 8.81557 4.88946 8.58436 4.74231 8.34882L4.40307 8.56075ZM4.5805 6.8556C4.12439 7.32593 4.04329 8.01035 4.40527 8.5642L4.7401 8.34537C4.48444 7.95418 4.53656 7.47548 4.86765 7.13406L4.5805 6.8556ZM5.52259 5.9131C5.20679 6.22296 4.89099 6.53888 4.58126 6.85482L4.86689 7.13484C5.17481 6.82076 5.48878 6.50666 5.80273 6.19861L5.52259 5.9131ZM5.51884 5.72231C5.60004 5.80635 5.59437 5.83107 5.59437 5.82187C5.59437 5.81126 5.60145 5.83419 5.52121 5.91446L5.80411 6.19725C5.89948 6.10184 5.99437 5.97938 5.99437 5.82187C5.99437 5.66576 5.90089 5.54206 5.80649 5.44436L5.51884 5.72231ZM3.30551 3.496C4.04957 4.23431 4.78772 4.97882 5.52006 5.72357L5.80527 5.44311C5.07219 4.69761 4.33283 3.95188 3.58726 3.21206L3.30551 3.496ZM3.11789 3.49301C3.15544 3.45414 3.18146 3.43388 3.19839 3.42384C3.2134 3.41495 3.21501 3.41773 3.20795 3.41773C3.20114 3.41773 3.20359 3.4151 3.22012 3.42471C3.23836 3.43531 3.26575 3.45622 3.30493 3.49542L3.58783 3.21264C3.49112 3.11588 3.36671 3.01773 3.20795 3.01773C3.04774 3.01773 2.92462 3.11738 2.83024 3.21506L3.11789 3.49301ZM2.88353 3.72511C2.96072 3.64991 3.03992 3.57274 3.11706 3.49386L2.83107 3.2142C2.75788 3.28905 2.68216 3.36284 2.60438 3.43863L2.88353 3.72511ZM2.88537 3.72329L2.88538 3.72329L2.60254 3.44045L2.60253 3.44045L2.88537 3.72329ZM2.33666 4.31955C2.4871 4.1121 2.67777 3.92561 2.88353 3.72512L2.60438 3.43863C2.4033 3.63456 2.1869 3.84471 2.01284 4.08472L2.33666 4.31955ZM2.07531 7.12392C1.58951 6.14627 1.69364 5.20192 2.33638 4.31993L2.01311 4.08435C1.28733 5.0803 1.16136 6.18352 1.71709 7.30191L2.07531 7.12392ZM5.78406 12.0315C4.22911 10.6374 2.99714 8.99828 2.07567 7.12465L1.71673 7.30118C2.66032 9.21979 3.92318 10.9004 5.51705 12.3293L5.78406 12.0315ZM9.38782 14.4472C8.06809 13.8199 6.87286 13.007 5.78401 12.0314L5.51709 12.3293C6.63241 13.3286 7.85935 14.1635 9.2161 14.8084L9.38782 14.4472ZM12.3685 13.9791C11.5617 14.7354 10.3846 14.926 9.38857 14.4475L9.21535 14.8081C10.3629 15.3594 11.717 15.1381 12.6421 14.2709L12.3685 13.9791ZM12.8544 13.4996C12.6921 13.6632 12.5331 13.8233 12.3678 13.9797L12.6427 14.2702C12.8133 14.1088 12.9766 13.9443 13.1383 13.7814L12.8544 13.4996ZM12.855 13.499L12.8549 13.4991L13.1378 13.782L13.1379 13.7818L12.855 13.499ZM12.8533 13.5007L12.8532 13.5008L13.1397 13.78L13.1398 13.7799L12.8533 13.5007ZM13.0178 13.3354C12.963 13.3902 12.9086 13.445 12.8546 13.4994L13.1385 13.7812C13.1926 13.7267 13.2465 13.6724 13.3007 13.6182L13.0178 13.3354ZM13.0178 13.2002C13.0419 13.2242 13.0537 13.2419 13.0592 13.2528C13.0618 13.258 13.0629 13.2614 13.0633 13.2631C13.0637 13.2647 13.0637 13.2653 13.0637 13.2655C13.0637 13.2657 13.0637 13.2666 13.0632 13.2687C13.0626 13.2709 13.0614 13.2749 13.0584 13.2809C13.0522 13.2933 13.0396 13.3126 13.0148 13.3384L13.3037 13.6151C13.3919 13.523 13.4637 13.4063 13.4637 13.2655C13.4637 13.1236 13.3908 13.0076 13.3007 12.9174L13.0178 13.2002ZM10.747 10.9285L13.0178 13.2002L13.3007 12.9174L11.0299 10.6457L10.747 10.9285ZM10.6 10.9406C10.6286 10.912 10.6501 10.8966 10.6647 10.8887C10.6716 10.8849 10.6763 10.8832 10.6789 10.8824C10.6803 10.882 10.6811 10.8819 10.6816 10.8818C10.682 10.8817 10.6822 10.8817 10.6822 10.8817C10.6822 10.8817 10.6822 10.8817 10.6823 10.8817C10.6823 10.8817 10.6826 10.8818 10.6832 10.8819C10.6843 10.8822 10.6873 10.883 10.6924 10.8855C10.7031 10.8908 10.7214 10.9028 10.747 10.9285L11.0299 10.6457C10.9371 10.5528 10.817 10.4772 10.6693 10.4819C10.5255 10.4866 10.4087 10.5662 10.3171 10.6578L10.6 10.9406ZM9.98799 11.5515C10.192 11.346 10.394 11.1426 10.5986 10.942L10.3185 10.6564C10.1118 10.8592 9.90786 11.0645 9.70416 11.2696L9.98799 11.5515ZM9.67957 11.8614C9.78302 11.7579 9.88575 11.6544 9.98799 11.5515L9.70416 11.2696C9.60185 11.3727 9.49958 11.4757 9.39667 11.5786L9.67957 11.8614ZM7.87565 12.0369C8.17198 12.238 8.49204 12.3287 8.81019 12.2969C9.12789 12.2651 9.42463 12.113 9.67862 11.8623L9.39762 11.5777C9.19746 11.7752 8.98252 11.8776 8.77037 11.8988C8.55867 11.92 8.33071 11.8623 8.10022 11.7059L7.87565 12.0369ZM6.91115 11.3348C7.22548 11.5706 7.54376 11.8094 7.87486 12.0364L8.10102 11.7065C7.77814 11.4852 7.46665 11.2515 7.15122 11.0148L6.91115 11.3348ZM6.77677 10.6093C6.68814 10.7226 6.6528 10.8613 6.68278 11.0004C6.71188 11.1353 6.79756 11.2495 6.91115 11.3348L7.15122 11.0148C7.09526 10.9728 7.078 10.9356 7.07379 10.9161C7.07046 10.9006 7.07146 10.8818 7.09182 10.8558L6.77677 10.6093ZM7.50579 10.5464C7.39412 10.4655 7.26382 10.4118 7.1267 10.4184C6.98276 10.4254 6.86041 10.4977 6.77427 10.6126L7.09432 10.8525C7.11718 10.822 7.13411 10.8186 7.1461 10.818C7.1649 10.8171 7.20718 10.824 7.27112 10.8703L7.50579 10.5464ZM8.43486 11.2224C8.12332 11.0066 7.81728 10.7785 7.50798 10.548L7.26893 10.8687C7.57727 11.0985 7.88889 11.3308 8.20711 11.5512L8.43486 11.2224ZM8.97279 11.1727C8.87584 11.2697 8.78854 11.308 8.71313 11.3148C8.63784 11.3217 8.5461 11.2998 8.43523 11.2226L8.20674 11.551C8.37442 11.6677 8.55821 11.7306 8.74935 11.7132C8.94038 11.6958 9.11043 11.6008 9.25569 11.4555L8.97279 11.1727ZM9.44108 10.7042C9.28509 10.8618 9.13029 11.0182 8.97417 11.1714L9.25432 11.4569C9.41286 11.3013 9.5697 11.1429 9.72535 10.9857L9.44108 10.7042ZM9.44189 10.7034L9.44179 10.7035L9.72464 10.9864L9.72474 10.9863L9.44189 10.7034ZM9.44209 10.7032L9.44189 10.7034L9.72474 10.9863L9.72493 10.9861L9.44209 10.7032ZM9.91276 10.2324C9.7541 10.3881 9.59714 10.5466 9.44138 10.7039L9.72565 10.9854C9.88175 10.8277 10.0367 10.6712 10.1929 10.5179L9.91276 10.2324ZM11.4466 10.2326C11.2247 10.0142 10.9583 9.89345 10.6796 9.89345C10.4009 9.89345 10.1344 10.0142 9.91252 10.2326L10.1931 10.5177C10.3528 10.3605 10.5223 10.2934 10.6796 10.2934C10.8368 10.2934 11.0064 10.3605 11.166 10.5177L11.4466 10.2326ZM12.9567 11.742C12.4541 11.2379 11.952 10.7342 11.4472 10.2332L11.1654 10.5171C11.6694 11.0172 12.1707 11.5201 12.6734 12.0244L12.9567 11.742ZM12.958 11.7432L12.9566 11.7419L12.6735 12.0244L12.6748 12.0258L12.958 11.7432ZM13.7125 12.4994C13.4605 12.2473 13.2092 11.9953 12.958 11.7433L12.6748 12.0257C12.9259 12.2777 13.1774 12.5299 13.4296 12.7822L13.7125 12.4994ZM13.7125 14.0422C13.9345 13.8201 14.0571 13.5516 14.0571 13.2708C14.0571 12.99 13.9345 12.7215 13.7125 12.4994L13.4296 12.7822C13.589 12.9417 13.6571 13.1124 13.6571 13.2708C13.6571 13.4292 13.589 13.5999 13.4296 13.7594L13.7125 14.0422ZM13.5366 14.2196C13.5957 14.1598 13.6541 14.1006 13.7125 14.0422L13.4296 13.7594C13.3702 13.8188 13.3109 13.8789 13.2519 13.9387L13.5366 14.2196ZM13.5357 14.2206L13.5357 14.2206L13.2529 13.9377L13.2529 13.9377L13.5357 14.2206ZM13.5357 14.2206L13.5357 14.2206L13.2529 13.9377L13.2528 13.9378L13.5357 14.2206ZM13.5357 14.2206L13.5357 14.2206L13.2528 13.9378L13.2528 13.9378L13.5357 14.2206ZM12.9845 14.7581C13.1758 14.5853 13.3595 14.3992 13.5366 14.2197L13.2519 13.9387C13.0733 14.1196 12.8978 14.2974 12.7164 14.4612L12.9845 14.7581ZM10.9156 15.6748C11.7012 15.5917 12.395 15.29 12.9844 14.7581L12.7164 14.4611C12.1916 14.9348 11.5775 15.2026 10.8735 15.277L10.9156 15.6748ZM10.8988 15.6809C10.9171 15.6759 10.9267 15.6734 10.9338 15.672L10.8553 15.2798C10.8321 15.2844 10.8085 15.291 10.7935 15.295L10.8988 15.6809ZM10.8947 15.682L10.8947 15.682L10.7976 15.294L10.7976 15.294L10.8947 15.682ZM10.8946 15.682L10.8947 15.682L10.7976 15.294L10.7976 15.294L10.8946 15.682ZM10.8976 15.6813L10.8977 15.6812L10.7946 15.2947L10.7946 15.2948L10.8976 15.6813ZM10.8369 15.6962C10.8601 15.6916 10.8837 15.685 10.8987 15.681L10.7934 15.2951C10.7751 15.3001 10.7655 15.3026 10.7584 15.304L10.8369 15.6962ZM10.2648 15.7001H10.7976V15.3001H10.2648V15.7001ZM10.0141 15.6589C10.0867 15.6711 10.1569 15.683 10.2268 15.6965L10.3028 15.3038C10.2274 15.2892 10.1525 15.2765 10.0806 15.2644L10.0141 15.6589ZM9.56414 2.4158C11.8151 2.46976 13.7426 4.19205 14.0364 6.40773L14.4329 6.35514C14.113 3.94241 12.0198 2.07455 9.57373 2.01592L9.56414 2.4158ZM9.52088 2.41499C9.53451 2.41537 9.55149 2.41586 9.56894 2.41586V2.01586C9.558 2.01586 9.5466 2.01556 9.53205 2.01515L9.52088 2.41499ZM9.45455 2.41616C9.46055 2.41466 9.47283 2.41365 9.52088 2.41499L9.53205 2.01515C9.49634 2.01415 9.42664 2.01085 9.35766 2.02807L9.45455 2.41616ZM9.34291 2.52684C9.34053 2.46738 9.37761 2.42672 9.429 2.4208L9.38321 2.02343C9.10893 2.05504 8.93309 2.28958 8.94323 2.54285L9.34291 2.52684ZM9.44082 2.61694C9.37796 2.61192 9.34466 2.5687 9.3429 2.52651L8.94324 2.54318C8.95401 2.80121 9.15869 2.99567 9.40896 3.01567L9.44082 2.61694ZM9.5752 2.62256C9.52307 2.62256 9.4854 2.62231 9.44967 2.61785L9.40012 3.01476C9.46459 3.02281 9.52712 3.02256 9.5752 3.02256V2.62256ZM11.4096 3.08353C10.8324 2.77874 10.213 2.64866 9.58343 2.62273L9.56697 3.02239C10.1523 3.0465 10.7103 3.1666 11.2228 3.43724L11.4096 3.08353ZM13.8833 6.9785C13.7985 5.2197 12.9694 3.90478 11.4094 3.08341L11.2231 3.43735C12.6566 4.19215 13.4057 5.37908 13.4838 6.99776L13.8833 6.9785ZM13.9842 7.15716C13.9412 7.15716 13.9283 7.14473 13.9209 7.13555C13.9078 7.11952 13.8859 7.07647 13.8835 6.98286L13.4836 6.9934C13.4874 7.13747 13.5219 7.27893 13.6106 7.38799C13.7049 7.50391 13.8392 7.55715 13.9842 7.55715V7.15716ZM14.085 6.97962C14.0896 7.06963 14.0685 7.11364 14.055 7.13083C14.0452 7.14318 14.0281 7.15716 13.9842 7.15716V7.55715C14.1343 7.55715 14.2738 7.4992 14.369 7.37864C14.4603 7.26292 14.4924 7.11304 14.4845 6.95911L14.085 6.97962ZM14.0363 6.40706C14.0608 6.59682 14.0789 6.78391 14.0849 6.97562L14.4847 6.96311C14.4781 6.75453 14.4586 6.55384 14.433 6.35581L14.0363 6.40706ZM12.7536 7.05968C12.7583 7.03401 12.762 7.01381 12.7663 6.99483L12.3764 6.90547C12.3697 6.935 12.3644 6.96439 12.36 6.98845L12.7536 7.05968ZM12.6864 7.29075C12.7285 7.20594 12.7435 7.11557 12.7536 7.05968L12.36 6.98845C12.348 7.05482 12.3407 7.08757 12.3282 7.11285L12.6864 7.29075ZM12.1445 7.54693C12.2446 7.56526 12.3519 7.56091 12.452 7.5177C12.5546 7.47341 12.6349 7.39451 12.6864 7.29075L12.3282 7.11285C12.3156 7.13814 12.303 7.14634 12.2935 7.15044C12.2815 7.15563 12.2574 7.16096 12.2165 7.15347L12.1445 7.54693ZM11.7371 7.06133C11.747 7.30969 11.9052 7.50314 12.1445 7.54693L12.2165 7.15347C12.1738 7.14565 12.1398 7.11971 12.1368 7.04545L11.7371 7.06133ZM11.5322 6.1135C11.6701 6.40293 11.7249 6.72172 11.7371 7.06061L12.1368 7.04617C12.1235 6.67528 12.0628 6.29719 11.8932 5.94138L11.5322 6.1135ZM9.51995 4.74932C9.99671 4.78274 10.3957 4.91394 10.725 5.13718C11.0542 5.36043 11.3243 5.6828 11.5326 6.11436L11.8928 5.94051C11.6589 5.45582 11.3458 5.07486 10.9494 4.8061C10.553 4.53734 10.0836 4.38785 9.54792 4.3503L9.51995 4.74932ZM9.40821 4.73731C9.46171 4.75077 9.51204 4.74981 9.53393 4.74981V4.34981C9.52007 4.34981 9.51354 4.34974 9.50804 4.3494C9.50342 4.34911 9.50341 4.34879 9.50586 4.34941L9.40821 4.73731ZM8.94317 4.22628C8.93798 4.36737 8.98848 4.49691 9.08572 4.59199C9.18093 4.68508 9.30888 4.73386 9.44364 4.74291L9.47043 4.34381C9.41294 4.33995 9.3807 4.32098 9.36536 4.30598C9.35207 4.29298 9.34168 4.27412 9.3429 4.24099L8.94317 4.22628ZM9.50206 3.73131C9.18177 3.7001 8.94304 3.93898 8.94304 4.23363H9.34304C9.34304 4.19604 9.35717 4.16955 9.37428 4.15371C9.39031 4.13886 9.41786 4.125 9.46327 4.12942L9.50206 3.73131ZM9.50608 3.73158L9.49811 3.73096L9.46723 4.12977L9.4752 4.13039L9.50608 3.73158ZM10.2836 3.84028C10.0221 3.77098 9.75022 3.75048 9.50608 3.73158L9.4752 4.13039C9.72585 4.1498 9.96088 4.16856 10.1812 4.22693L10.2836 3.84028ZM12.7711 6.93918C12.6896 5.456 11.71 4.21136 10.2828 3.84005L10.1821 4.22716C11.4335 4.55273 12.2993 5.6439 12.3717 6.96112L12.7711 6.93918ZM10.6569 6.96173C10.6594 7.04275 10.6398 7.09054 10.6215 7.1147C10.6061 7.13499 10.5823 7.15205 10.5356 7.15538L10.5641 7.55436C10.7173 7.54343 10.8505 7.4749 10.9404 7.35612C11.0274 7.2412 11.0613 7.09643 11.0567 6.94923L10.6569 6.96173ZM9.54785 5.84296C10.158 5.87345 10.6325 6.35355 10.6569 6.96348L11.0566 6.94748C11.0239 6.13103 10.385 5.48429 9.56781 5.44346L9.54785 5.84296ZM9.34341 5.97078C9.34698 5.91911 9.36512 5.89494 9.38516 5.87992C9.40996 5.86133 9.46098 5.84045 9.55196 5.84312L9.56371 5.4433C9.41203 5.43884 9.26321 5.47144 9.14527 5.55984C9.02257 5.65179 8.95507 5.78809 8.94436 5.94324L9.34341 5.97078ZM9.51125 6.12942C9.43232 6.11956 9.39115 6.09279 9.37156 6.07143C9.35398 6.05227 9.3397 6.02264 9.34338 5.97127L8.94439 5.94275C8.93379 6.09108 8.97661 6.23262 9.07679 6.34183C9.17496 6.44884 9.31222 6.50766 9.46167 6.52633L9.51125 6.12942ZM10.3767 6.99136C10.3418 6.74717 10.2695 6.53873 10.1158 6.3852C9.96167 6.23116 9.75413 6.16073 9.51204 6.12952L9.46089 6.52623C9.66129 6.55207 9.76778 6.60289 9.83309 6.66815C9.89892 6.73393 9.95145 6.84285 9.98077 7.04797L10.3767 6.99136ZM10.5286 7.15601C10.4787 7.16135 10.4514 7.14804 10.4341 7.13237C10.4139 7.11421 10.3871 7.074 10.3772 6.99484L9.9803 7.04449C9.99895 7.19356 10.0578 7.33165 10.1661 7.42938C10.2772 7.52961 10.4212 7.56979 10.5712 7.55373L10.5286 7.15601Z" fill="#007EB1" mask="url(#path-1-outside-1_24_387)"/>
</svg>
