<svg width="71" height="70" viewBox="0 0 71 70" fill="none" xmlns="http://www.w3.org/2000/svg">
<path d="M45.0371 0.0137108C45.6127 0.315237 45.7498 0.808639 45.7498 1.4391C45.7361 5.56453 45.7498 9.68997 45.7361 13.8154C45.7361 14.2951 45.8183 14.5692 46.298 14.8159C47.3396 15.3641 47.8879 16.2824 47.9427 17.4748C47.9564 17.886 47.9427 18.2835 47.9427 18.7906C48.5595 18.7906 49.094 18.7906 49.6285 18.7906C57.7286 18.8591 64.5952 24.0673 66.6647 31.8385C67.0759 33.4009 67.2541 35.073 67.2815 36.6903C67.3637 41.268 67.3226 45.8594 67.2952 50.4371C67.2952 50.9168 67.3912 51.2595 67.816 51.5199C68.1724 51.7529 68.4739 52.0818 68.844 52.3148C69.7897 52.9453 70.146 53.8225 70.0775 54.9463C70.009 56.2758 69.3237 57.0296 67.9942 57.0296C65.1708 57.0433 62.3337 57.0296 59.5104 57.0296C57.3448 57.0296 55.1793 57.0296 53.0138 57.0296C52.2052 57.0296 51.7392 56.6596 51.7255 56.0291C51.7118 55.3575 52.1778 54.9875 53.0275 54.9875C57.7423 54.9875 62.4708 54.9875 67.1856 54.9875C67.4323 54.9875 67.679 54.9875 68.1724 54.9875C67.9257 54.5626 67.816 54.2199 67.5967 53.9869C66.5962 52.9042 65.3901 52.5753 63.8962 52.6027C58.6332 52.6986 53.3702 52.6438 48.0935 52.6301C47.5178 52.6301 47.0381 52.7397 46.6132 53.1509C46.2843 53.4661 45.8731 53.6991 45.5579 54.0143C45.3386 54.2336 45.229 54.5626 44.996 54.9875C46.065 54.9875 46.9148 54.9738 47.7508 54.9875C48.4909 55.0012 48.9569 55.3849 48.9706 55.988C48.9843 56.591 48.5183 57.0159 47.7782 57.0296C46.86 57.0433 45.9554 57.0433 45.0371 57.0296C43.9132 57.0022 43.2005 56.2621 43.1046 55.1382C42.9949 53.9184 43.3239 52.9042 44.4203 52.2737C45.6264 51.5884 45.9691 50.629 45.9143 49.2448C45.7909 46.2706 45.8731 43.269 45.8731 40.2401C34.1273 40.2401 22.4363 40.2401 10.6357 40.2401C10.6357 41.4462 10.6357 42.6386 10.6357 43.8447C10.6357 44.1462 10.6494 44.434 10.6083 44.7356C10.526 45.3386 10.1834 45.695 9.56661 45.695C6.74323 45.695 3.90614 45.7224 1.08276 45.6676C0.712702 45.6539 0.356349 45.229 0 44.996C0 37.4304 0 29.8511 0 22.2855C0.342644 21.8333 0.726405 21.4358 1.37057 21.6825C2.00104 21.9155 2.08327 22.45 2.05586 23.0257C2.04216 23.1901 2.05586 23.3409 2.05586 23.5054C2.05586 29.9334 2.05586 36.3613 2.05586 42.7893C2.05586 43.0498 2.05586 43.3239 2.05586 43.598C4.26249 43.598 6.38688 43.598 8.52498 43.598C8.52498 34.1547 8.52498 24.7526 8.52498 15.3641C6.34576 15.3641 4.20766 15.3641 2.05586 15.3641C2.05586 16.1043 2.04216 16.7895 2.05586 17.4611C2.06957 18.0505 1.98734 18.5713 1.35687 18.8043C0.726408 19.0373 0.328938 18.6535 0 18.1875C0 16.7758 0 15.3641 0 13.9525C0.370055 13.7195 0.726405 13.3083 1.09646 13.2946C3.89243 13.2398 6.70211 13.2535 9.49808 13.2672C10.1834 13.2672 10.5534 13.6235 10.622 14.2951C10.6494 14.5829 10.6357 14.8844 10.6357 15.186C10.6357 16.3647 10.6357 17.5434 10.6357 18.7221C12.7189 18.7221 14.7063 18.7221 16.7347 18.7221C16.7347 18.2972 16.721 17.9408 16.7347 17.5845C16.8033 16.351 17.3241 15.3778 18.4205 14.8022C18.8728 14.5692 18.955 14.2951 18.955 13.8428C18.9413 9.74479 18.955 5.64677 18.9413 1.54876C18.9413 0.918292 19.051 0.383761 19.5718 0C19.8459 0 20.12 0 20.3941 0C20.915 0.397467 21.0109 0.931994 21.0109 1.56246C20.9972 5.66048 20.9972 9.7722 20.9972 13.8702C20.9972 14.1992 20.9287 14.5007 21.3673 14.72C22.6419 15.3367 23.2175 16.4195 23.2175 17.8175C23.2175 18.1327 23.2175 18.4342 23.2175 18.7906C23.6424 18.7906 23.9577 18.7906 24.2729 18.7906C25.1226 18.7906 25.9587 18.7632 26.8084 18.8043C27.4526 18.8317 27.8364 19.2703 27.809 19.8733C27.7816 20.4353 27.4252 20.7916 26.781 20.8327C26.5069 20.8464 26.2328 20.8464 25.9587 20.8464C25.0815 20.8464 24.1906 20.8464 23.2861 20.8464C23.2861 26.6577 23.2861 32.373 23.2861 38.1157C26.8633 38.1157 30.3856 38.1157 33.9765 38.1157C33.9903 37.8416 34.004 37.5949 34.004 37.3482C34.004 36.1146 34.004 34.8811 34.004 33.6613C34.004 29.6318 33.9903 25.5886 34.0177 21.5591C34.0177 20.9835 33.8532 20.7916 33.2913 20.8327C32.7019 20.8739 32.0989 20.8602 31.5095 20.819C30.9202 20.7779 30.5912 20.3942 30.5912 19.8322C30.5775 19.2977 30.8928 18.9276 31.441 18.8317C31.6603 18.7906 31.8933 18.8043 32.1263 18.7906C34.9771 18.7906 37.8279 18.7906 40.6787 18.7906C40.9254 18.7906 41.1721 18.7906 41.4873 18.7906C41.4873 18.3657 41.4736 18.0094 41.4873 17.6393C41.5147 16.3784 42.0766 15.3916 43.1868 14.7885C43.598 14.5692 43.7076 14.3362 43.7076 13.8976C43.6939 9.74479 43.7076 5.60566 43.6939 1.45281C43.6939 0.836056 43.8447 0.342644 44.3655 0C44.5848 0.0137057 44.8041 0.0137108 45.0371 0.0137108ZM10.7042 20.8876C10.7042 26.6577 10.7042 32.373 10.7042 38.102C14.2129 38.102 17.6804 38.102 21.1617 38.102C21.1617 32.3456 21.1617 26.644 21.1617 20.8876C17.6667 20.8876 14.2129 20.8876 10.7042 20.8876ZM65.2256 40.2538C59.4692 40.2538 53.7402 40.2538 47.9975 40.2538C47.9975 43.7076 47.9975 47.1067 47.9975 50.5468C53.7676 50.5468 59.4829 50.5468 65.2256 50.5468C65.2256 47.093 65.2256 43.6802 65.2256 40.2538ZM45.8457 38.1157C45.8457 32.3456 45.8457 26.6303 45.8457 20.8464C45.5716 20.8464 45.3386 20.8464 45.1193 20.8464C42.3645 20.8464 39.6096 20.8739 36.8548 20.8327C36.2106 20.819 36.0598 21.0246 36.0598 21.6414C36.0872 26.877 36.0735 32.1126 36.0735 37.3482C36.0735 37.5949 36.0735 37.8279 36.0735 38.1157C39.3629 38.1157 42.5701 38.1157 45.8457 38.1157ZM56.1936 22.3267C56.0565 22.2444 55.988 22.1896 55.9057 22.1485C53.5072 21.052 50.9717 20.7779 48.3676 20.8327C47.8331 20.8464 47.9564 21.2028 47.9564 21.5043C47.9564 25.945 47.9564 30.3856 47.9564 34.8263C47.9564 34.9771 47.9838 35.1415 48.0249 35.4568C50.7935 31.0161 53.4661 26.6988 56.1936 22.3267ZM50.7661 38.006C50.7798 38.0472 50.7935 38.0883 50.8209 38.1157C55.6179 38.1157 60.4012 38.1157 65.2394 38.1157C65.3901 35.2649 65.0749 32.5374 63.8003 29.9059C59.4007 32.6334 55.0834 35.3197 50.7661 38.006ZM58.0164 23.2724C55.4123 27.4663 52.8494 31.5917 50.2864 35.7309C50.3138 35.7583 50.3549 35.7994 50.3823 35.8268C54.5215 33.2501 58.6606 30.6872 62.8271 28.0831C61.5662 26.1095 60.0038 24.5607 58.0164 23.2724ZM21.1206 18.7632C21.2987 17.4885 21.1617 16.8307 20.5723 16.6251C20.2023 16.5017 19.6266 16.5017 19.3114 16.7073C18.5576 17.2007 18.8454 18.0231 18.818 18.7632C19.6403 18.7632 20.3667 18.7632 21.1206 18.7632ZM43.5432 18.7495C44.3655 18.7495 45.0919 18.7495 45.8731 18.7495C45.8457 17.9682 46.161 17.1322 45.3386 16.6662C45.0234 16.488 44.4614 16.4606 44.1462 16.6251C43.2828 17.0637 43.5706 17.9408 43.5432 18.7495Z" fill="#3D3D3D"/>
<path d="M57.4544 62.2789C58.6194 63.4302 58.6057 64.2525 57.3721 65.582C57.6051 65.8835 57.893 66.1576 58.0711 66.4865C58.3864 67.0348 58.3864 67.6378 58.0437 68.1723C57.6874 68.7343 57.2899 69.2962 56.8102 69.7622C56.6046 69.9678 56.0975 70.0637 55.8371 69.9541C55.5493 69.8307 55.2478 69.4333 55.1792 69.118C55.0285 68.3779 55.4945 67.8297 55.933 67.4734C55.6589 66.8155 55.2066 66.2261 55.1929 65.6231C55.1792 65.0474 55.6178 64.4581 55.8508 63.8687C55.9605 63.8413 56.0701 63.8139 56.166 63.7865C56.0016 63.6906 55.796 63.6083 55.6589 63.4713C55.1381 62.9367 54.9188 62.2378 55.2478 61.5936C55.6041 60.8946 56.1249 60.2367 56.6869 59.6748C56.8787 59.4829 57.5092 59.4555 57.7285 59.62C58.0163 59.8392 58.2904 60.3601 58.2219 60.689C58.126 61.2098 57.7559 61.7032 57.4544 62.2789Z" fill="#3D3D3D"/>
<path d="M48.9707 62.2652C50.1768 63.4987 49.9712 64.5129 48.9021 65.5409C49.1763 65.9658 49.5052 66.3632 49.6697 66.8155C49.889 67.3911 49.7382 67.9805 49.3407 68.4876C49.0392 68.8714 48.7925 69.3236 48.4224 69.6252C48.1483 69.8582 47.6961 70.0089 47.3534 69.9678C46.86 69.913 46.531 69.447 46.6544 68.9673C46.8052 68.378 47.1204 67.8434 47.3397 67.3363C47.1204 66.7881 46.6818 66.185 46.6818 65.582C46.6818 65.0063 47.1204 64.417 47.4082 63.7454C47.3671 63.7043 47.1752 63.5398 47.0245 63.3342C46.5722 62.7449 46.4488 62.0596 46.8052 61.4154C47.1478 60.7987 47.6001 60.2093 48.1072 59.7159C48.3265 59.5103 48.8884 59.4418 49.1489 59.5789C49.4367 59.7433 49.7656 60.2505 49.7108 60.5383C49.6011 61.1139 49.2448 61.6484 48.9707 62.2652Z" fill="#3D3D3D"/>
<path d="M64.4858 67.1857C63.3482 65.9659 63.3482 65.1847 64.7051 63.7593C64.5406 63.6633 64.335 63.5811 64.198 63.444C63.4578 62.6628 63.499 61.5938 64.2391 60.8125C64.4858 60.5521 64.6914 60.2643 64.897 59.9765C65.1848 59.5516 65.5548 59.346 66.0619 59.4831C66.5416 59.6064 66.8843 59.9628 66.7746 60.4151C66.6376 61.0455 66.3086 61.6349 66.0345 62.3202C67.1721 63.4852 67.1721 64.2116 65.8701 65.6096C66.4183 66.0756 66.8843 66.6101 66.802 67.405C66.7746 67.6928 66.7061 68.0081 66.5554 68.2411C66.2127 68.7619 65.8564 69.3101 65.3904 69.7076C65.1437 69.9269 64.6365 69.9954 64.2939 69.9132C63.8005 69.8035 63.5538 69.2964 63.7045 68.8304C63.8553 68.2959 64.1843 67.8025 64.4858 67.1857Z" fill="#3D3D3D"/>
</svg>
