<svg width="17" height="15" viewBox="0 0 17 15" fill="none" xmlns="http://www.w3.org/2000/svg">
<path d="M16.8362 2.44726C16.3009 2.69455 15.707 2.84611 15.1248 2.94582C15.3983 2.89796 15.8047 2.39142 15.9649 2.18402C16.211 1.86893 16.4181 1.51395 16.5315 1.12707C16.5471 1.09516 16.5588 1.05926 16.5275 1.03533C16.4885 1.01938 16.465 1.02735 16.4377 1.04331C15.789 1.39828 15.1209 1.65355 14.4097 1.83702C14.3511 1.85298 14.3081 1.83702 14.2691 1.80112C14.2104 1.73332 14.1557 1.6695 14.0932 1.61765C13.7923 1.3584 13.4719 1.15499 13.1124 1.00342C12.6357 0.803997 12.116 0.720241 11.6042 0.756137C11.104 0.788045 10.6156 0.931631 10.174 1.16695C9.73248 1.40227 9.33391 1.73332 9.02131 2.12818C8.69699 2.539 8.45475 3.0216 8.33362 3.53612C8.2164 4.0307 8.2242 4.52128 8.29844 5.02384C8.31017 5.10759 8.30235 5.11956 8.22811 5.10759C5.44209 4.68481 3.13278 3.66774 1.26111 1.48603C1.17905 1.39031 1.13607 1.39031 1.06964 1.49401C0.249078 2.75039 0.64763 4.76458 1.67138 5.75373C1.80815 5.88535 1.94883 6.01697 2.10122 6.13663C2.04651 6.14859 1.36271 6.07281 0.757052 5.75373C0.674995 5.70188 0.635914 5.7298 0.628099 5.82552C0.620284 5.96113 0.632006 6.08478 0.651543 6.23235C0.807841 7.50468 1.6714 8.6813 2.85536 9.13997C2.99602 9.1998 3.15233 9.25165 3.30081 9.27957C3.0312 9.33939 2.75377 9.38327 1.984 9.31946C1.88631 9.29951 1.85115 9.35136 1.88631 9.4431C2.46852 11.0584 3.7189 11.5371 4.65669 11.8123C4.78173 11.8362 4.90678 11.8362 5.03572 11.8641C5.02791 11.8761 5.0201 11.8761 5.01228 11.8881C4.69968 12.3707 3.62121 12.7336 3.12106 12.9131C2.20671 13.2402 1.21423 13.3837 0.249087 13.288C0.0927889 13.2641 0.0615187 13.2681 0.0185367 13.288C-0.0244454 13.3159 0.0146235 13.3518 0.061513 13.3917C0.256886 13.5233 0.456178 13.639 0.659366 13.7547C1.27284 14.0857 1.91365 14.349 2.58183 14.5404C6.03602 15.5136 9.92394 14.7997 12.5146 12.1712C14.5504 10.1052 15.2654 7.2574 15.2654 4.40961C15.2654 4.29793 15.3944 4.2381 15.4725 4.17827C16.0039 3.77144 16.4299 3.28485 16.8245 2.74241C16.9144 2.61877 16.9144 2.51108 16.9144 2.4672C16.9144 2.45923 16.9144 2.45125 16.9144 2.45125C16.9066 2.40339 16.9066 2.41535 16.8362 2.44726Z" fill="#007EB1"/>
</svg>
