<svg width="78" height="70" viewBox="0 0 78 70" fill="none" xmlns="http://www.w3.org/2000/svg">
<path d="M0.0623053 0.669782C0.373832 0.155764 0.809969 0 1.41745 0C26.2149 0.0155763 50.9969 0.0155761 75.7944 0.0155761C75.9034 0.0155761 75.9969 0.0155761 76.1059 0.0155761C76.6978 -2.37908e-07 77.0872 0.280374 77.0872 0.872274C77.0872 1.46417 76.7134 1.76012 76.1215 1.76012C74.9377 1.7757 73.7383 1.76012 72.5389 1.76012C72.2586 1.76012 71.9782 1.76012 71.6511 1.76012C71.6511 4.23676 71.6511 6.66667 71.6511 9.19003C72.9906 9.19003 74.2991 9.19003 75.6075 9.19003C76.6511 9.19003 77.0716 9.42367 77.0872 10.0312C77.1028 10.6698 76.6667 10.9346 75.5919 10.9346C74.2991 10.9346 73.0062 10.9346 71.6667 10.9346C71.6667 13.4268 71.6667 15.8411 71.6667 18.3801C72.9906 18.3801 74.2991 18.3801 75.6075 18.3801C76.6822 18.3801 77.1339 18.6604 77.1028 19.2835C77.0716 19.8754 76.6667 20.1246 75.623 20.1246C74.3302 20.1246 73.0374 20.1246 71.6822 20.1246C71.6822 22.6012 71.6822 25.0156 71.6822 27.5545C72.2274 27.5545 72.7882 27.5545 73.3333 27.5545C74.1433 27.5545 74.9377 27.5545 75.7477 27.5545C76.6667 27.5545 77.1184 27.8505 77.1028 28.4424C77.0872 29.0343 76.6667 29.2991 75.7165 29.2991C74.6262 29.2991 73.5358 29.3458 72.461 29.2835C71.7445 29.2368 71.6044 29.5016 71.6044 30.1713C71.6511 32.3209 71.6199 34.4704 71.6199 36.729C72.5234 36.729 73.3645 36.729 74.2056 36.729C74.8287 36.729 75.4517 36.729 76.0748 36.729C76.6822 36.729 77.1028 37.0093 77.1028 37.6324C77.1028 38.2243 76.6822 38.4735 76.1059 38.4891C74.9377 38.4891 73.7695 38.4891 72.6012 38.4891C72.3209 38.4891 72.0405 38.4891 71.6822 38.4891C71.6822 40.9657 71.6822 43.3801 71.6822 45.9034C72.6791 45.9034 73.6916 45.9034 74.6885 45.9034C75.1558 45.9034 75.623 45.9034 76.0903 45.9034C76.6511 45.919 77.0716 46.1838 77.0872 46.7601C77.1028 47.3988 76.6667 47.6635 76.0592 47.6791C75.8723 47.6791 75.7009 47.6791 75.514 47.6791C67.2741 47.6791 59.0343 47.6791 50.7944 47.6791C50.5607 47.6791 50.3271 47.6791 50.0935 47.6635C49.5483 47.6168 49.2056 47.3209 49.2056 46.7757C49.2212 46.2305 49.595 45.9501 50.1246 45.919C50.3582 45.9034 50.5919 45.919 50.8255 45.919C56.8068 45.919 62.7882 45.919 68.785 45.919C69.0966 45.919 69.4081 45.919 69.7663 45.919C69.7663 31.2149 69.7663 16.5421 69.7663 1.82243C49.0031 1.82243 28.2243 1.82243 7.38318 1.82243C7.38318 16.4797 7.38318 31.1526 7.38318 45.9346C7.6947 45.9346 7.99065 45.9346 8.2866 45.9346C14.1121 45.9346 19.9377 45.9346 25.7788 45.9346C25.9657 45.9346 26.1371 45.9346 26.324 45.9346C27.1028 45.9502 27.5701 46.2773 27.5234 46.838C27.4611 47.5857 26.9315 47.7259 26.3084 47.7259C17.9907 47.7259 9.6729 47.7259 1.35514 47.7414C0.747663 47.7414 0.311526 47.5234 0.0311526 47.0093C0.0311526 46.9003 0.0311526 46.8068 0.0311526 46.6978C0.327103 46.1215 0.778816 45.919 1.41745 45.9346C2.77259 45.9657 4.1433 45.9502 5.52959 45.9502C5.52959 43.4424 5.52959 41.028 5.52959 38.5358C4.12773 38.5358 2.78816 38.5047 1.4486 38.5514C0.825545 38.567 0.342679 38.4112 0.0311526 37.8505C0.0311526 37.7414 0.0311526 37.648 0.0311526 37.5389C0.29595 36.947 0.747663 36.7445 1.38629 36.7601C2.77259 36.7913 4.1433 36.7757 5.52959 36.7757C5.52959 34.2523 5.52959 31.838 5.52959 29.3458C4.12773 29.3458 2.80374 29.3146 1.46417 29.3614C0.841121 29.3769 0.358255 29.2368 0.0311526 28.6916C0.0311526 28.5826 0.0311526 28.4891 0.0311526 28.3801C0.264797 27.757 0.732087 27.5701 1.37072 27.5857C2.75701 27.6168 4.1433 27.6012 5.52959 27.6012C5.52959 25.0779 5.52959 22.648 5.52959 20.1558C4.11215 20.1558 2.75701 20.1246 1.38629 20.1713C0.778816 20.1869 0.342679 20.0156 0.0155763 19.5171C0.0155763 19.3614 0.0155763 19.2056 0.0155763 19.0498C0.342679 18.567 0.778816 18.3801 1.38629 18.3956C2.74143 18.4424 4.11215 18.4112 5.51402 18.4112C5.51402 15.8878 5.51402 13.4579 5.51402 10.9657C4.081 10.9657 2.72586 10.9346 1.35514 10.9813C0.700935 10.9969 0.249221 10.81 0.0155763 10.1869C0.0155763 10.0779 0.0155763 9.98442 0.0155763 9.87539C0.327103 9.37695 0.778816 9.17445 1.37072 9.22118C1.93146 9.26791 2.50779 9.23676 3.06854 9.23676C3.8785 9.23676 4.70405 9.23676 5.51402 9.23676C5.51402 6.68224 5.51402 4.26791 5.51402 1.80685C4.09657 1.80685 2.72586 1.7757 1.35514 1.82243C0.700935 1.83801 0.249221 1.65109 0 1.02804C0.0623053 0.88785 0.0623053 0.778817 0.0623053 0.669782Z" fill="#3D3D3D"/>
<path d="M33.1309 24.735C34.0032 24.735 34.7664 24.735 35.6231 24.735C35.6231 24.0497 35.6231 23.4111 35.6231 22.7724C35.6075 22.165 35.7477 21.6665 36.4798 21.6354C37.0717 21.6042 37.3677 22.0092 37.3677 22.8192C37.3677 23.4422 37.3677 24.0497 37.3677 24.7818C37.8194 24.7818 38.2244 24.7818 38.6293 24.7818C39.0187 24.7818 39.3926 24.7818 39.8599 24.7818C39.8599 24.0497 39.8599 23.3799 39.8599 22.7101C39.8599 22.1182 40.0624 21.6665 40.7166 21.6354C41.4331 21.6198 41.62 22.1027 41.62 22.7257C41.62 23.3643 41.62 24.0185 41.62 24.7195C42.4611 24.7195 43.2555 24.7195 44.1278 24.7195C44.1278 24.0808 44.1278 23.4734 44.1278 22.8503C44.1278 22.2428 44.2212 21.6821 45.0001 21.6354C45.6075 21.6042 45.9035 22.0248 45.9035 22.897C45.9035 23.4422 45.9035 23.9874 45.9191 24.5326C45.9191 24.5793 45.9502 24.626 45.9814 24.735C46.7446 24.735 47.539 24.735 48.4113 24.735C48.4113 24.1276 48.4268 23.5357 48.4113 22.9438C48.3957 22.3051 48.4424 21.6977 49.268 21.6509C49.8599 21.6042 50.1558 22.0403 50.1558 22.9126C50.1558 23.5045 50.1558 24.0964 50.1558 24.7974C50.592 24.7974 50.9658 24.7818 51.3552 24.7974C52.7103 24.8752 53.6605 25.841 53.7072 27.1961C53.7228 27.9749 53.7072 28.7382 53.7072 29.5014C55.5141 30.0154 56.0125 30.6696 56.0125 32.5076C56.0125 33.8005 55.9969 35.0933 56.0125 36.3861C56.0437 37.788 55.4518 38.8005 54.2212 39.5014C51.4019 41.1369 48.6138 42.8192 45.7944 44.4547C45.3116 44.7351 45.0935 45.0154 45.1091 45.5918C45.1558 46.8534 45.1247 48.1307 45.1247 49.3924C45.1247 50.4983 44.7041 51.3238 43.6449 51.8067C43.4424 51.9002 43.2711 52.3207 43.2711 52.5855C43.2399 56.4173 43.2555 60.2491 43.2555 64.0808C43.2555 65.4516 43.2555 66.8067 43.2555 68.2553C44.0032 68.2553 44.673 68.2553 45.3272 68.2553C45.9191 68.2553 46.3708 68.4734 46.3863 69.112C46.4019 69.7662 45.9658 69.9999 45.3583 69.9999C40.8567 69.9999 36.3396 69.9999 31.8381 69.9999C31.2617 69.9999 30.8568 69.7662 30.8412 69.1587C30.8256 68.5201 31.2617 68.2553 31.8536 68.2553C32.5234 68.2553 33.1932 68.2553 33.9253 68.2553C33.9409 67.9594 33.972 67.7101 33.972 67.4609C33.972 62.5388 33.972 57.6167 33.9876 52.6946C33.9876 52.1805 33.9097 51.869 33.349 51.6509C32.4455 51.2771 32.1184 50.4516 32.1029 49.5014C32.1029 48.1618 32.0717 46.8067 32.1184 45.4671C32.134 44.9843 31.9471 44.7351 31.5421 44.4858C28.7072 42.8347 25.8879 41.1369 23.0374 39.5014C21.7913 38.7849 21.1839 37.7724 21.215 36.3238C21.2462 34.9999 21.215 33.6759 21.215 32.3674C21.215 30.6696 21.7913 29.9375 23.5203 29.4858C23.5203 28.816 23.5203 28.1151 23.5203 27.4298C23.5359 25.7319 24.4705 24.7818 26.1527 24.7506C26.4331 24.7506 26.7134 24.7506 27.0717 24.7506C27.0717 24.0653 27.0873 23.4422 27.0717 22.8347C27.0561 22.2117 27.1652 21.6665 27.9284 21.6198C28.5047 21.5886 28.8007 21.9936 28.8163 22.8036C28.8163 23.4266 28.8163 24.0341 28.8163 24.7039C29.6574 24.7039 30.4518 24.7039 31.324 24.7039C31.324 24.0497 31.324 23.4111 31.324 22.7569C31.324 22.165 31.4798 21.6509 32.1963 21.6042C32.7882 21.5731 33.0997 21.978 33.1153 22.7724C33.1309 23.4266 33.1309 24.0497 33.1309 24.735ZM38.6293 31.3238C33.7851 31.3238 28.9409 31.3238 24.0966 31.3238C23.1309 31.3238 23.0374 31.4329 23.0219 32.3986C23.0219 33.7382 23.0374 35.0933 23.0063 36.4329C22.9907 37.1338 23.2555 37.6011 23.863 37.9438C26.8381 39.6727 29.7976 41.4329 32.7726 43.1618C33.0686 43.3332 33.4424 43.4422 33.7851 43.4422C36.9938 43.4578 40.2025 43.4578 43.4268 43.4422C43.7695 43.4422 44.1589 43.3488 44.4549 43.1774C47.4455 41.4329 50.4362 39.6572 53.4268 37.9126C53.972 37.5855 54.2368 37.165 54.2212 36.5263C54.2057 35.1556 54.2212 33.7849 54.2212 32.4142C54.2212 31.4173 54.1278 31.3238 53.0997 31.3238C48.2555 31.3238 43.4424 31.3238 38.6293 31.3238ZM35.8256 51.9936C35.8256 57.4453 35.8256 62.8347 35.8256 68.2397C37.7103 68.2397 39.5483 68.2397 41.4175 68.2397C41.4175 62.8036 41.4175 57.4142 41.4175 51.9936C39.5328 51.9936 37.7103 51.9936 35.8256 51.9936ZM25.3116 29.5326C34.2368 29.5326 43.053 29.5326 51.9315 29.5326C51.9315 28.9407 51.9315 28.3955 51.9315 27.8503C51.9315 26.6354 51.8692 26.5731 50.6698 26.5731C42.648 26.5731 34.6106 26.5731 26.5888 26.5731C26.4019 26.5731 26.2306 26.5731 26.0437 26.5731C25.5608 26.5731 25.3272 26.8379 25.3272 27.3051C25.296 28.0372 25.3116 28.7537 25.3116 29.5326ZM33.9097 45.2958C33.9097 46.7755 33.8786 48.2086 33.9409 49.6104C33.9564 49.8129 34.3458 50.1712 34.5639 50.1868C37.2586 50.2335 39.9533 50.2179 42.648 50.1868C42.8661 50.1868 43.2711 49.8752 43.2711 49.7039C43.3178 48.2397 43.3022 46.7755 43.3022 45.2958C40.1402 45.2958 37.0873 45.2958 33.9097 45.2958Z" fill="#3D3D3D"/>
<path d="M14.2834 34.2056C16.9158 34.7975 18.5201 36.4018 19.1276 39.0654C19.626 39.0654 20.1089 39.0654 20.5918 39.0654C21.1681 39.0654 21.5731 39.3458 21.5731 39.9377C21.5887 40.5296 21.1993 40.81 20.6229 40.8255C19.9687 40.8255 19.3301 40.8411 18.6759 40.8255C17.6479 40.81 17.4921 40.6698 17.3675 39.6261C17.1338 37.7726 16.0279 36.4642 14.2989 36.0436C14.2211 36.028 14.1432 35.9969 14.0653 35.9813C12.4609 35.7009 12.4609 35.7009 12.4609 34.0966C12.4609 27.1339 12.4609 20.1713 12.4609 13.1931C12.4609 12.0093 12.5855 11.8847 13.7693 11.7445C15.6852 11.5109 17.0871 10.1402 17.3363 8.2087C17.4921 6.9626 17.5855 6.86914 18.8472 6.86914C32.0248 6.86914 45.2179 6.86914 58.3955 6.86914C59.5793 6.86914 59.7039 6.97817 59.8441 8.17755C60.0933 10.1402 61.4796 11.5109 63.4578 11.7445C64.5793 11.8691 64.7195 12.0249 64.7195 13.162C64.7195 20.2804 64.7195 27.3987 64.7195 34.5327C64.7195 35.6542 64.5482 35.8567 63.4578 35.9501C61.6198 36.1059 60.1089 37.5389 59.8597 39.3614C59.6572 40.81 59.6416 40.8255 58.1619 40.8255C57.6167 40.8255 57.0715 40.8255 56.5264 40.8099C55.9812 40.7944 55.6385 40.4984 55.6541 39.9377C55.6541 39.3769 56.0123 39.0966 56.5419 39.081C57.0248 39.0654 57.5232 39.081 58.0684 39.081C58.6603 36.4486 60.2647 34.8131 62.9749 34.2056C62.9749 33.9564 62.9749 33.7071 62.9749 33.4424C62.9749 27.0716 62.975 20.7009 62.9905 14.3302C62.9905 13.7695 62.8971 13.4891 62.274 13.3177C60.1556 12.7258 58.8161 11.2928 58.2397 9.19001C58.1151 8.7383 57.9438 8.62926 57.5077 8.62926C44.8908 8.64484 32.274 8.62927 19.6728 8.66042C19.4547 8.66042 19.0809 8.87849 19.0186 9.08098C18.3176 11.5109 16.7444 12.9595 14.2522 13.5202C14.2834 20.3894 14.2834 27.2585 14.2834 34.2056Z" fill="#3D3D3D"/>
<path d="M60.405 16.869C60.0779 17.1182 59.7664 17.5076 59.4082 17.5699C56.8069 18.0216 55.9502 18.8472 55.4985 21.4951C55.405 22.0247 55.1558 22.3986 54.6107 22.383C54.0343 22.3674 53.7695 21.978 53.7072 21.4173C53.458 19.0964 52.243 17.8814 49.8754 17.6011C49.3147 17.5388 48.9253 17.2895 48.9253 16.6976C48.9253 16.1525 49.2991 15.9032 49.8287 15.8098C52.4611 15.3736 53.3334 14.4858 53.7228 11.8846C53.8007 11.355 54.0811 11.0123 54.6418 11.0279C55.2493 11.0434 55.4829 11.464 55.5141 12.0092C55.6543 13.8627 56.62 15.0777 58.3801 15.654C58.7228 15.7631 59.1278 15.7008 59.4393 15.8254C59.7976 15.9811 60.0935 16.2615 60.405 16.4951C60.405 16.6198 60.405 16.7444 60.405 16.869ZM55.9658 16.7755C55.5141 16.2615 55.0156 15.6696 54.6418 15.2335C54.1278 15.7319 53.5826 16.2615 53.1309 16.6976C53.6138 17.1493 54.1745 17.6945 54.6262 18.1307C55.0468 17.6945 55.592 17.1493 55.9658 16.7755Z" fill="#3D3D3D"/>
<path d="M51.0435 56.2772C51.3861 56.0436 51.6977 55.6542 52.0715 55.5919C54.2366 55.1869 55.0466 54.4237 55.3737 52.243C55.4516 51.729 55.7164 51.4019 56.2148 51.3863C56.7444 51.3707 57.0559 51.6978 57.1338 52.243C57.4453 54.4237 58.2553 55.218 60.4516 55.5763C60.9656 55.6542 61.3238 55.9034 61.3394 56.4797C61.3394 57.0561 60.9656 57.2897 60.4516 57.3676C58.2397 57.7414 57.4609 58.5047 57.1494 60.7009C57.0715 61.2149 56.8067 61.542 56.3083 61.5576C55.7787 61.5732 55.4827 61.2617 55.3893 60.7009C55.0622 58.5047 54.2833 57.757 52.0871 57.352C51.7132 57.2897 51.4017 56.9003 51.0746 56.6666C51.0435 56.5265 51.0435 56.4018 51.0435 56.2772ZM56.2927 55.2804C55.8721 55.7009 55.4827 56.0903 55.14 56.433C55.4983 56.8068 55.8877 57.2274 56.2304 57.5701C56.6198 57.2274 57.0559 56.8224 57.4297 56.4797C57.0248 56.0592 56.6354 55.6542 56.2927 55.2804Z" fill="#3D3D3D"/>
<path d="M29.9064 15.109C29.5948 15.3426 29.3145 15.7009 28.9562 15.7788C26.573 16.2928 26.0123 16.8224 25.5606 19.2211C25.4671 19.7352 25.1711 20.0155 24.6571 19.9844C24.0964 19.9532 23.8472 19.6105 23.816 19.0654C23.707 17.5856 22.9905 16.5264 21.573 16.0124C21.2459 15.8878 20.8721 15.8411 20.5138 15.8099C19.9842 15.7476 19.626 15.4984 19.626 14.9377C19.626 14.3769 19.9842 14.1277 20.5138 14.0498C22.6322 13.7694 23.5045 12.8816 23.816 10.7165C23.8939 10.1713 24.2054 9.78189 24.7194 9.89092C25.0465 9.9688 25.4827 10.3894 25.5294 10.7165C25.9344 12.9283 26.6353 13.6292 28.9406 14.081C29.2833 14.1433 29.5792 14.5171 29.8908 14.7507C29.9064 14.8753 29.9064 14.9844 29.9064 15.109ZM23.5668 14.9532C23.925 15.2959 24.3612 15.7009 24.6416 15.9657C25.0621 15.6386 25.5138 15.2648 25.8254 15.0311C25.4359 14.595 25.0465 14.1588 24.7039 13.8006C24.33 14.1744 23.925 14.5794 23.5668 14.9532Z" fill="#3D3D3D"/>
</svg>
