<svg width="20" height="15" viewBox="0 0 20 15" fill="none" xmlns="http://www.w3.org/2000/svg">
<path d="M9.44114 0.465332C9.81451 0.465332 10.1855 0.465332 10.5589 0.465332C10.5969 0.470088 10.6373 0.479601 10.6754 0.479601C12.4447 0.501004 14.214 0.522407 15.981 0.662716C16.5351 0.705522 17.0939 0.750707 17.6385 0.862478C18.635 1.067 19.2842 1.68055 19.5672 2.66272C19.7218 3.19542 19.7883 3.74476 19.8312 4.29649C19.8835 4.99803 19.9263 5.70195 19.9691 6.4035C19.9857 6.66034 19.9905 6.91717 20 7.17163C20 7.36902 20 7.56878 20 7.76616C19.9929 7.8161 19.9834 7.86604 19.981 7.91836C19.9453 8.65796 19.9334 9.39756 19.8716 10.1348C19.8216 10.7602 19.7455 11.3857 19.6314 12.0016C19.415 13.1811 18.6445 13.9303 17.4625 14.1086C16.7872 14.2109 16.1046 14.2703 15.4245 14.3179C14.6754 14.3702 13.9215 14.394 13.17 14.4154C12.4495 14.4368 11.7289 14.4392 11.0083 14.4511C10.8585 14.4534 10.7087 14.4653 10.5589 14.4725C10.1855 14.4725 9.81451 14.4725 9.44114 14.4725C9.40309 14.4677 9.36266 14.4582 9.32461 14.4582C7.56005 14.4344 5.7931 14.4154 4.03092 14.2751C3.47681 14.2323 2.91795 14.1847 2.37336 14.0777C1.37218 13.8779 0.718193 13.262 0.432818 12.2775C0.27824 11.7448 0.211653 11.1954 0.168847 10.6437C0.116528 9.94215 0.0737218 9.23822 0.0309156 8.53668C0.0142687 8.27984 0.00951249 8.023 0 7.76616C0 7.56878 0 7.36902 0 7.17163C0.00713436 7.12169 0.0166468 7.07175 0.019025 7.01943C0.0546968 6.27984 0.0665874 5.54024 0.128419 4.80302C0.178359 4.17758 0.254459 3.55213 0.368609 2.9362C0.585018 1.75665 1.35553 1.00754 2.53746 0.829185C3.21284 0.726925 3.89536 0.667472 4.57551 0.61991C5.32937 0.567591 6.08561 0.54381 6.84186 0.522407C7.56956 0.501004 8.29964 0.498626 9.02735 0.486735C9.16528 0.484357 9.30321 0.472466 9.44114 0.465332ZM7.99762 4.47009C7.99762 6.48198 7.99762 8.46295 7.99762 10.4677C9.73365 9.46414 11.453 8.47247 13.1891 7.4689C11.4507 6.46295 9.73365 5.47128 7.99762 4.47009Z" fill="#007EB1"/>
<path d="M7.99756 4.46973C9.73121 5.47092 11.4506 6.46497 13.189 7.46854C11.453 8.4721 9.73359 9.46616 7.99756 10.4673C7.99756 8.46259 7.99756 6.47924 7.99756 4.46973Z" fill="#DFF1FF"/>
</svg>
