<svg width="71" height="70" viewBox="0 0 71 70" fill="none" xmlns="http://www.w3.org/2000/svg">
<mask id="path-1-inside-1_231_17" fill="white">
<path d="M70.0392 63.9986C69.7377 64.8481 69.5596 65.7661 69.1212 66.5333C67.7373 68.9585 65.5726 70.2053 62.7775 69.9724C59.7084 69.712 57.4751 67.7802 56.7215 64.9577C56.5982 64.5056 56.4475 64.3411 55.9543 64.3411C52.94 64.3685 49.9394 64.3685 46.9251 64.3411C46.4182 64.3411 46.2675 64.4919 46.2264 64.9988C46.062 67.0951 44.5 69.0133 42.4722 69.6709C40.28 70.3834 37.9097 69.7531 36.4848 68.1227C35.512 67.0129 35.0324 65.7113 35.0187 64.2452C35.0187 55.9012 34.9091 47.5571 35.0598 39.2267C35.142 34.171 37.7316 30.499 42.2667 28.2657C42.7874 28.0054 42.9518 27.7451 42.9244 27.197C42.8833 26.1557 42.9107 25.1007 42.9107 24.0594C42.9244 22.977 43.308 22.5934 44.4041 22.5934C46.1305 22.5934 47.8705 22.5797 49.5969 22.6071C50.1175 22.6208 50.4875 22.4838 50.8574 22.1001C52.3371 20.5793 53.858 19.0996 55.3377 17.5924C55.7624 17.154 56.2283 16.9485 56.8448 16.9622C59.0096 16.9896 61.1744 16.9896 63.3392 16.9485C63.6407 16.9485 64.0106 16.7978 64.2161 16.5785C65.2848 15.5646 66.3398 14.5096 67.3537 13.4409C67.5455 13.2354 67.6826 12.8929 67.6963 12.6189C67.7374 11.372 67.7374 10.1115 67.6963 8.86472C67.6826 8.59069 67.5455 8.24816 67.3537 8.04264C66.3261 6.97394 65.2848 5.91895 64.2161 4.90505C64.0106 4.71324 63.6818 4.57622 63.3941 4.56252C62.2431 4.52142 61.0785 4.54882 59.8728 4.54882C59.8591 4.82285 59.8454 5.04207 59.8317 5.27499C59.8043 6.4533 59.4481 6.80953 58.2561 6.82323C57.8861 6.82323 57.5299 6.82323 57.16 6.82323C54.2827 6.82323 51.4191 6.83693 48.5419 6.80953C48.0349 6.80953 47.7061 6.97394 47.3499 7.31648C37.3479 17.3321 27.346 27.334 17.3441 37.3496C17.0701 37.6374 16.8372 38.0484 16.7686 38.432C16.4261 40.1995 16.1932 41.9807 15.837 43.7481C15.7411 44.2551 15.4807 44.7894 15.1382 45.1594C14.2339 46.1596 13.2611 47.0775 12.302 48.0229C11.5485 48.7628 11.0141 48.7628 10.2605 48.0092C7.01334 44.7757 3.77985 41.5422 0.546353 38.295C-0.179814 37.5689 -0.179819 37.0208 0.532646 36.2946C1.51914 35.2808 2.50563 34.2669 3.54692 33.3078C3.86205 33.02 4.3142 32.8145 4.73894 32.7323C6.5475 32.3898 8.36977 32.1295 10.192 31.7869C10.562 31.7184 10.9593 31.5129 11.2196 31.2389C21.2627 21.1959 31.292 11.1665 41.3076 1.15091C41.705 0.753569 42.1297 0.383635 42.5407 0C48.0623 0 53.5702 0 59.0919 0C60.0098 0.479544 59.8317 1.39753 59.9002 2.26071C61.2567 2.26071 62.5446 2.27441 63.8325 2.24701C64.5176 2.23331 65.0382 2.43883 65.5314 2.93207C66.7372 4.19259 67.9977 5.412 69.2308 6.65881C69.5322 6.96024 69.7651 7.31648 70.0255 7.65901C70.0255 9.7142 70.0255 11.7557 70.0255 13.8109C69.8337 14.0575 69.6692 14.3452 69.45 14.5644C68.1073 15.9209 66.7372 17.2636 65.3944 18.6337C64.9971 19.0448 64.545 19.1955 63.9832 19.1818C61.8184 19.1681 59.6536 19.1681 57.4888 19.1818C57.2559 19.1818 56.9408 19.1955 56.79 19.3325C55.7213 20.3464 54.6938 21.3877 53.5017 22.566C53.9402 22.566 54.1594 22.566 54.3786 22.566C56.0913 22.566 57.8039 22.566 59.5029 22.566C60.5442 22.566 60.9552 22.977 60.9689 24.0183C60.9826 25.087 60.9963 26.1557 60.9552 27.2381C60.9415 27.7588 61.0785 28.0328 61.5855 28.252C63.9421 29.2933 65.7507 30.9786 67.0934 33.1845C68.3676 35.2808 68.8746 37.5415 68.8746 39.9666C68.8746 46.2281 68.8746 52.5032 68.8746 58.7647C68.8746 59.0387 68.8472 59.3265 68.9431 59.5731C69.2719 60.5048 69.6555 61.4228 70.0118 62.3545C70.0392 62.9025 70.0392 63.4506 70.0392 63.9986ZM66.5316 38.3635C66.5042 38.1032 66.4905 37.884 66.4631 37.6648C65.737 33.2119 61.6129 29.5262 57.1052 29.4166C53.7758 29.3344 50.4601 29.3481 47.1307 29.4029C44.0068 29.4577 41.472 30.8004 39.5127 33.2119C38.2933 34.7053 37.5946 36.418 37.3754 38.3772C47.1032 38.3635 56.7763 38.3635 66.5316 38.3635ZM36.7862 14.7974C35.7449 13.7561 34.7858 12.797 33.7582 11.7694C33.6349 11.9338 33.4979 12.153 33.3335 12.3174C26.3869 19.264 19.4404 26.2105 12.5076 33.1571C12.0691 33.5955 11.6033 33.8558 10.973 33.938C9.65769 34.1161 8.34237 34.3765 7.15036 34.582C9.43847 36.8701 11.7266 39.1582 14.001 41.4326C14.1654 40.4461 14.3983 39.3774 14.5079 38.295C14.6175 37.2263 15.0423 36.4043 15.8233 35.637C22.6602 28.8549 29.4697 22.0179 36.2929 15.2084C36.4437 15.044 36.6355 14.9207 36.7862 14.7974ZM37.3205 59.7101C37.9371 59.4361 38.4989 59.1484 39.1017 58.9428C39.4579 58.8195 39.5538 58.6688 39.5401 58.3126C39.5127 57.5179 39.5265 56.7232 39.5265 55.9149C39.5265 54.4625 39.8416 54.1611 41.2939 54.1611C48.4049 54.1611 55.5158 54.1611 62.6268 54.1611C62.8323 54.1611 63.0378 54.1474 63.2433 54.1748C63.8873 54.257 64.2846 54.6132 64.3531 55.2709C64.3805 55.5586 64.3531 55.8601 64.3942 56.1615C64.4216 56.3122 64.5039 56.5314 64.6272 56.5862C65.2711 56.8328 65.9288 57.0247 66.5864 57.2439C66.5864 55.4627 66.5864 53.7227 66.5864 51.9415C66.2987 51.9415 66.0384 51.9415 65.7918 51.9415C63.5311 51.9415 61.2841 51.9552 59.0233 51.9415C58.0506 51.9415 57.6258 51.5168 57.5984 50.5851C57.5847 50.2973 57.5984 50.0096 57.5984 49.6945C50.8026 49.6945 44.089 49.6945 37.3342 49.6945C37.3205 53.0513 37.3205 56.3807 37.3205 59.7101ZM41.8009 56.4903C41.8009 57.1343 41.8283 57.7097 41.7872 58.2715C41.7598 58.6962 41.9242 58.8469 42.3352 58.9702C43.7601 59.4087 44.8699 60.2993 45.5824 61.6283C45.7879 62.0256 46.0345 62.0941 46.4456 62.0941C49.5147 62.0804 52.5975 62.0804 55.6665 62.0804C55.9543 62.0804 56.2557 62.0804 56.5571 62.0804C57.2422 59.121 59.037 57.2987 61.9006 56.4766C55.2281 56.4903 48.5556 56.4903 41.8009 56.4903ZM37.3205 42.8576C47.1169 42.8576 56.8448 42.8576 66.5727 42.8576C66.5727 42.0903 66.5727 41.3778 66.5727 40.6654C56.8037 40.6654 47.0758 40.6654 37.3205 40.6654C37.3205 41.3915 37.3205 42.0903 37.3205 42.8576ZM67.7374 63.3135C67.7922 60.8336 65.8603 58.8058 63.3256 58.7099C60.9141 58.614 58.8178 60.6555 58.7356 63.1628C58.6534 65.5742 60.6675 67.6568 63.1337 67.7116C65.6411 67.7664 67.6825 65.8209 67.7374 63.3135ZM37.3205 47.379C44.089 47.379 50.8163 47.379 57.5299 47.379C57.5299 46.6117 57.5299 45.8992 57.5299 45.1868C50.7615 45.1868 44.0616 45.1868 37.3205 45.1868C37.3205 45.9266 37.3205 46.6391 37.3205 47.379ZM43.0066 2.84986C40.5266 5.32979 38.0741 7.78232 35.6901 10.18C36.5807 11.0706 37.5261 12.016 38.4166 12.8792C40.8144 10.4678 43.2669 8.02894 45.7605 5.53531C44.9522 4.74064 44.1027 3.89116 43.2395 3.04168C43.1436 2.94577 43.034 2.86356 43.0066 2.84986ZM40.65 67.7116C42.527 67.7253 44.0479 66.2045 44.0479 64.3411C44.0479 62.5052 42.5544 60.998 40.7185 60.9706C38.8277 60.9569 37.3205 62.423 37.2931 64.3137C37.2657 66.1771 38.7729 67.6979 40.65 67.7116ZM4.61563 35.6644C4.01277 36.1987 3.40991 36.7331 2.88927 37.1989C5.73913 40.0488 8.56159 42.8713 11.2744 45.5841C11.8088 45.0635 12.3979 44.5017 12.9323 43.9811C10.1646 41.1997 7.35588 38.3909 4.61563 35.6644ZM59.9002 49.6123C62.1746 49.6123 64.3668 49.6123 66.5727 49.6123C66.5727 48.1051 66.5727 46.6528 66.5727 45.1868C64.3257 45.1868 62.1335 45.1868 59.9002 45.1868C59.9002 46.6802 59.9002 48.1188 59.9002 49.6123ZM45.2262 24.8815C45.2262 25.6762 45.2262 26.4571 45.2262 27.1696C49.7339 27.1696 54.2005 27.1696 58.6808 27.1696C58.6808 26.4297 58.6808 25.6762 58.6808 24.8815C54.2005 24.8815 49.7613 24.8815 45.2262 24.8815ZM57.5984 2.30181C53.625 2.30181 49.7613 2.30181 45.8838 2.30181C45.8564 2.34292 45.8153 2.39772 45.7879 2.43882C46.3634 3.00058 46.9251 3.58973 47.5417 4.11038C47.7883 4.3159 48.1582 4.48031 48.4871 4.49402C50.8985 4.52142 53.3099 4.50772 55.7213 4.50772C56.3242 4.50772 56.9408 4.50772 57.6121 4.50772C57.6121 4.26109 57.6121 4.08298 57.6121 3.90486C57.5984 3.39791 57.5984 2.87727 57.5984 2.30181Z"/>
</mask>
<path d="M70.0392 63.9986C69.7377 64.8481 69.5596 65.7661 69.1212 66.5333C67.7373 68.9585 65.5726 70.2053 62.7775 69.9724C59.7084 69.712 57.4751 67.7802 56.7215 64.9577C56.5982 64.5056 56.4475 64.3411 55.9543 64.3411C52.94 64.3685 49.9394 64.3685 46.9251 64.3411C46.4182 64.3411 46.2675 64.4919 46.2264 64.9988C46.062 67.0951 44.5 69.0133 42.4722 69.6709C40.28 70.3834 37.9097 69.7531 36.4848 68.1227C35.512 67.0129 35.0324 65.7113 35.0187 64.2452C35.0187 55.9012 34.9091 47.5571 35.0598 39.2267C35.142 34.171 37.7316 30.499 42.2667 28.2657C42.7874 28.0054 42.9518 27.7451 42.9244 27.197C42.8833 26.1557 42.9107 25.1007 42.9107 24.0594C42.9244 22.977 43.308 22.5934 44.4041 22.5934C46.1305 22.5934 47.8705 22.5797 49.5969 22.6071C50.1175 22.6208 50.4875 22.4838 50.8574 22.1001C52.3371 20.5793 53.858 19.0996 55.3377 17.5924C55.7624 17.154 56.2283 16.9485 56.8448 16.9622C59.0096 16.9896 61.1744 16.9896 63.3392 16.9485C63.6407 16.9485 64.0106 16.7978 64.2161 16.5785C65.2848 15.5646 66.3398 14.5096 67.3537 13.4409C67.5455 13.2354 67.6826 12.8929 67.6963 12.6189C67.7374 11.372 67.7374 10.1115 67.6963 8.86472C67.6826 8.59069 67.5455 8.24816 67.3537 8.04264C66.3261 6.97394 65.2848 5.91895 64.2161 4.90505C64.0106 4.71324 63.6818 4.57622 63.3941 4.56252C62.2431 4.52142 61.0785 4.54882 59.8728 4.54882C59.8591 4.82285 59.8454 5.04207 59.8317 5.27499C59.8043 6.4533 59.4481 6.80953 58.2561 6.82323C57.8861 6.82323 57.5299 6.82323 57.16 6.82323C54.2827 6.82323 51.4191 6.83693 48.5419 6.80953C48.0349 6.80953 47.7061 6.97394 47.3499 7.31648C37.3479 17.3321 27.346 27.334 17.3441 37.3496C17.0701 37.6374 16.8372 38.0484 16.7686 38.432C16.4261 40.1995 16.1932 41.9807 15.837 43.7481C15.7411 44.2551 15.4807 44.7894 15.1382 45.1594C14.2339 46.1596 13.2611 47.0775 12.302 48.0229C11.5485 48.7628 11.0141 48.7628 10.2605 48.0092C7.01334 44.7757 3.77985 41.5422 0.546353 38.295C-0.179814 37.5689 -0.179819 37.0208 0.532646 36.2946C1.51914 35.2808 2.50563 34.2669 3.54692 33.3078C3.86205 33.02 4.3142 32.8145 4.73894 32.7323C6.5475 32.3898 8.36977 32.1295 10.192 31.7869C10.562 31.7184 10.9593 31.5129 11.2196 31.2389C21.2627 21.1959 31.292 11.1665 41.3076 1.15091C41.705 0.753569 42.1297 0.383635 42.5407 0C48.0623 0 53.5702 0 59.0919 0C60.0098 0.479544 59.8317 1.39753 59.9002 2.26071C61.2567 2.26071 62.5446 2.27441 63.8325 2.24701C64.5176 2.23331 65.0382 2.43883 65.5314 2.93207C66.7372 4.19259 67.9977 5.412 69.2308 6.65881C69.5322 6.96024 69.7651 7.31648 70.0255 7.65901C70.0255 9.7142 70.0255 11.7557 70.0255 13.8109C69.8337 14.0575 69.6692 14.3452 69.45 14.5644C68.1073 15.9209 66.7372 17.2636 65.3944 18.6337C64.9971 19.0448 64.545 19.1955 63.9832 19.1818C61.8184 19.1681 59.6536 19.1681 57.4888 19.1818C57.2559 19.1818 56.9408 19.1955 56.79 19.3325C55.7213 20.3464 54.6938 21.3877 53.5017 22.566C53.9402 22.566 54.1594 22.566 54.3786 22.566C56.0913 22.566 57.8039 22.566 59.5029 22.566C60.5442 22.566 60.9552 22.977 60.9689 24.0183C60.9826 25.087 60.9963 26.1557 60.9552 27.2381C60.9415 27.7588 61.0785 28.0328 61.5855 28.252C63.9421 29.2933 65.7507 30.9786 67.0934 33.1845C68.3676 35.2808 68.8746 37.5415 68.8746 39.9666C68.8746 46.2281 68.8746 52.5032 68.8746 58.7647C68.8746 59.0387 68.8472 59.3265 68.9431 59.5731C69.2719 60.5048 69.6555 61.4228 70.0118 62.3545C70.0392 62.9025 70.0392 63.4506 70.0392 63.9986ZM66.5316 38.3635C66.5042 38.1032 66.4905 37.884 66.4631 37.6648C65.737 33.2119 61.6129 29.5262 57.1052 29.4166C53.7758 29.3344 50.4601 29.3481 47.1307 29.4029C44.0068 29.4577 41.472 30.8004 39.5127 33.2119C38.2933 34.7053 37.5946 36.418 37.3754 38.3772C47.1032 38.3635 56.7763 38.3635 66.5316 38.3635ZM36.7862 14.7974C35.7449 13.7561 34.7858 12.797 33.7582 11.7694C33.6349 11.9338 33.4979 12.153 33.3335 12.3174C26.3869 19.264 19.4404 26.2105 12.5076 33.1571C12.0691 33.5955 11.6033 33.8558 10.973 33.938C9.65769 34.1161 8.34237 34.3765 7.15036 34.582C9.43847 36.8701 11.7266 39.1582 14.001 41.4326C14.1654 40.4461 14.3983 39.3774 14.5079 38.295C14.6175 37.2263 15.0423 36.4043 15.8233 35.637C22.6602 28.8549 29.4697 22.0179 36.2929 15.2084C36.4437 15.044 36.6355 14.9207 36.7862 14.7974ZM37.3205 59.7101C37.9371 59.4361 38.4989 59.1484 39.1017 58.9428C39.4579 58.8195 39.5538 58.6688 39.5401 58.3126C39.5127 57.5179 39.5265 56.7232 39.5265 55.9149C39.5265 54.4625 39.8416 54.1611 41.2939 54.1611C48.4049 54.1611 55.5158 54.1611 62.6268 54.1611C62.8323 54.1611 63.0378 54.1474 63.2433 54.1748C63.8873 54.257 64.2846 54.6132 64.3531 55.2709C64.3805 55.5586 64.3531 55.8601 64.3942 56.1615C64.4216 56.3122 64.5039 56.5314 64.6272 56.5862C65.2711 56.8328 65.9288 57.0247 66.5864 57.2439C66.5864 55.4627 66.5864 53.7227 66.5864 51.9415C66.2987 51.9415 66.0384 51.9415 65.7918 51.9415C63.5311 51.9415 61.2841 51.9552 59.0233 51.9415C58.0506 51.9415 57.6258 51.5168 57.5984 50.5851C57.5847 50.2973 57.5984 50.0096 57.5984 49.6945C50.8026 49.6945 44.089 49.6945 37.3342 49.6945C37.3205 53.0513 37.3205 56.3807 37.3205 59.7101ZM41.8009 56.4903C41.8009 57.1343 41.8283 57.7097 41.7872 58.2715C41.7598 58.6962 41.9242 58.8469 42.3352 58.9702C43.7601 59.4087 44.8699 60.2993 45.5824 61.6283C45.7879 62.0256 46.0345 62.0941 46.4456 62.0941C49.5147 62.0804 52.5975 62.0804 55.6665 62.0804C55.9543 62.0804 56.2557 62.0804 56.5571 62.0804C57.2422 59.121 59.037 57.2987 61.9006 56.4766C55.2281 56.4903 48.5556 56.4903 41.8009 56.4903ZM37.3205 42.8576C47.1169 42.8576 56.8448 42.8576 66.5727 42.8576C66.5727 42.0903 66.5727 41.3778 66.5727 40.6654C56.8037 40.6654 47.0758 40.6654 37.3205 40.6654C37.3205 41.3915 37.3205 42.0903 37.3205 42.8576ZM67.7374 63.3135C67.7922 60.8336 65.8603 58.8058 63.3256 58.7099C60.9141 58.614 58.8178 60.6555 58.7356 63.1628C58.6534 65.5742 60.6675 67.6568 63.1337 67.7116C65.6411 67.7664 67.6825 65.8209 67.7374 63.3135ZM37.3205 47.379C44.089 47.379 50.8163 47.379 57.5299 47.379C57.5299 46.6117 57.5299 45.8992 57.5299 45.1868C50.7615 45.1868 44.0616 45.1868 37.3205 45.1868C37.3205 45.9266 37.3205 46.6391 37.3205 47.379ZM43.0066 2.84986C40.5266 5.32979 38.0741 7.78232 35.6901 10.18C36.5807 11.0706 37.5261 12.016 38.4166 12.8792C40.8144 10.4678 43.2669 8.02894 45.7605 5.53531C44.9522 4.74064 44.1027 3.89116 43.2395 3.04168C43.1436 2.94577 43.034 2.86356 43.0066 2.84986ZM40.65 67.7116C42.527 67.7253 44.0479 66.2045 44.0479 64.3411C44.0479 62.5052 42.5544 60.998 40.7185 60.9706C38.8277 60.9569 37.3205 62.423 37.2931 64.3137C37.2657 66.1771 38.7729 67.6979 40.65 67.7116ZM4.61563 35.6644C4.01277 36.1987 3.40991 36.7331 2.88927 37.1989C5.73913 40.0488 8.56159 42.8713 11.2744 45.5841C11.8088 45.0635 12.3979 44.5017 12.9323 43.9811C10.1646 41.1997 7.35588 38.3909 4.61563 35.6644ZM59.9002 49.6123C62.1746 49.6123 64.3668 49.6123 66.5727 49.6123C66.5727 48.1051 66.5727 46.6528 66.5727 45.1868C64.3257 45.1868 62.1335 45.1868 59.9002 45.1868C59.9002 46.6802 59.9002 48.1188 59.9002 49.6123ZM45.2262 24.8815C45.2262 25.6762 45.2262 26.4571 45.2262 27.1696C49.7339 27.1696 54.2005 27.1696 58.6808 27.1696C58.6808 26.4297 58.6808 25.6762 58.6808 24.8815C54.2005 24.8815 49.7613 24.8815 45.2262 24.8815ZM57.5984 2.30181C53.625 2.30181 49.7613 2.30181 45.8838 2.30181C45.8564 2.34292 45.8153 2.39772 45.7879 2.43882C46.3634 3.00058 46.9251 3.58973 47.5417 4.11038C47.7883 4.3159 48.1582 4.48031 48.4871 4.49402C50.8985 4.52142 53.3099 4.50772 55.7213 4.50772C56.3242 4.50772 56.9408 4.50772 57.6121 4.50772C57.6121 4.26109 57.6121 4.08298 57.6121 3.90486C57.5984 3.39791 57.5984 2.87727 57.5984 2.30181Z" fill="#007EB1" stroke="#DFF1FF" stroke-width="0.6" mask="url(#path-1-inside-1_231_17)"/>
<path d="M21.4947 43.0624C23.8789 43.0757 25.8131 45.0099 25.8396 47.3807L25.8396 47.3807C25.866 49.7355 23.865 51.7646 21.481 51.7779C19.1127 51.7911 17.1241 49.8043 17.1241 47.4064C17.1241 44.9961 19.0841 43.0492 21.4947 43.0624ZM21.4947 43.0624L21.4955 42.9124M21.4947 43.0624L21.4955 42.9124M21.4955 42.9124C23.9618 42.9261 25.9622 44.9265 25.9896 47.379L21.4955 42.9124ZM21.4528 45.0094L21.4527 45.0094C20.1649 45.0241 19.0995 46.0907 19.0848 47.3911L19.0848 47.3911C19.0702 48.7218 20.1382 49.8034 21.4818 49.8034C22.8121 49.8034 23.8651 48.7492 23.8651 47.4064C23.8651 46.0622 22.7692 44.9948 21.4528 45.0094Z" fill="#007EB1" stroke="#DFF1FF" stroke-width="0.3"/>
<path d="M4.55936 69.8361L4.55934 69.8361C2.20487 69.8626 0.175922 67.862 0.162209 65.4784C0.175909 63.0949 2.15039 61.1207 4.54733 61.1207C6.95768 61.1207 8.90459 63.0807 8.89135 65.4913C8.8781 67.8618 6.94391 69.8097 4.55936 69.8361ZM6.94434 65.4647L6.94432 65.463C6.92972 64.1485 5.82189 63.0531 4.51824 63.0677C3.2167 63.0823 2.16445 64.1492 2.16402 65.4502C2.14986 66.7923 3.18844 67.8617 4.53362 67.8617C5.87639 67.8617 6.94433 66.795 6.94434 65.4647Z" fill="#007EB1" stroke="#DFF1FF" stroke-width="0.3"/>
<path d="M21.6317 58.7132L21.6317 58.7132C21.6161 59.3983 21.0273 59.9713 20.3276 59.9558C20.3275 59.9558 20.3275 59.9558 20.3275 59.9558L21.6317 58.7132ZM21.6317 58.7132V58.7097M21.6317 58.7132V58.7097M21.6317 58.7097C21.6317 58.3689 21.474 58.0478 21.2397 57.8154M21.6317 58.7097L21.2397 57.8154M21.2397 57.8154C21.0058 57.5834 20.6844 57.4289 20.3428 57.4362M21.2397 57.8154L20.3428 57.4362M20.3428 57.4362C20.3434 57.4362 20.3439 57.4362 20.3445 57.4362V57.5862L20.341 57.4363L20.3428 57.4362ZM17.124 58.7497L17.124 58.7487C17.0978 56.9552 18.5241 55.5023 20.3182 55.4892L20.3193 55.4892C22.112 55.4631 23.5519 56.8885 23.565 58.6834C23.5781 60.477 22.1249 61.9303 20.3445 61.9303C18.59 61.9303 17.1371 60.5024 17.124 58.7497Z" fill="#007EB1" stroke="#DFF1FF" stroke-width="0.3"/>
<path d="M10.2092 56.5854L10.2091 56.5854C9.86686 56.5933 9.54476 56.4387 9.31043 56.2062C9.07613 55.9738 8.91839 55.6527 8.91839 55.3119C8.91839 54.9711 9.07613 54.65 9.31043 54.4176C9.54476 54.1852 9.86686 54.0305 10.2091 54.0385M10.2092 56.5854L10.2091 54.0385M10.2092 56.5854C10.8634 56.5698 11.4361 56.0133 11.4517 55.3428L11.4517 55.3427M10.2092 56.5854L11.4517 55.3427M10.2091 54.0385C10.8954 54.0541 11.4672 54.6577 11.4517 55.3427M10.2091 54.0385L11.4517 55.3427M10.1787 52.0914C11.9735 52.0917 13.4124 53.5187 13.4124 55.3119C13.4124 57.0911 11.9602 58.5321 10.165 58.5324C8.3972 58.519 6.98448 57.119 6.97138 55.3382L10.1787 52.0914ZM10.1787 52.0914C8.371 52.1048 6.95829 53.5442 6.97138 55.3382L10.1787 52.0914Z" fill="#007EB1" stroke="#DFF1FF" stroke-width="0.3"/>
<path d="M6.64418 48.5309V48.5309C6.63107 46.7485 5.13554 45.27 3.38592 45.3092L3.38477 45.3092C1.60398 45.3354 0.149586 46.8432 0.175738 48.596L6.64418 48.5309ZM6.64418 48.5309C6.65726 50.2974 5.17623 51.7914 3.40996 51.7914M6.64418 48.5309L3.40996 51.7914M3.40996 51.7914C1.68351 51.7914 0.20192 50.3365 0.175739 48.596L3.40996 51.7914ZM3.3793 47.2837L3.37916 47.2837L2.32757 48.5435H2.17757C2.17757 48.544 2.17757 48.5446 2.17757 48.5451C2.17842 49.2282 2.70854 49.774 3.39285 49.7895L3.39293 49.7895C4.09198 49.8051 4.68347 49.2458 4.68347 48.5298C4.68347 47.825 4.08953 47.2682 3.3793 47.2837Z" fill="#007EB1" stroke="#DFF1FF" stroke-width="0.3"/>
<path d="M13.3854 63.0265H13.3844H13.3801H13.3758H13.3715H13.3672H13.3629H13.3586H13.3544H13.3501H13.3458H13.3415H13.3372H13.3329H13.3287H13.3244H13.3201H13.3158H13.3115H13.3073H13.303H13.2987H13.2944H13.2902H13.2859H13.2816H13.2774H13.2731H13.2688H13.2646H13.2603H13.256H13.2518H13.2475H13.2433H13.239H13.2347H13.2305H13.2262H13.222H13.2177H13.2135H13.2092H13.205H13.2007H13.1965H13.1922H13.188H13.1837H13.1795H13.1752H13.171H13.1667H13.1625H13.1583H13.154H13.1498H13.1455H13.1413H13.1371H13.1328H13.1286H13.1243H13.1201H13.1159H13.1116H13.1074H13.1032H13.099H13.0947H13.0905H13.0863H13.082H13.0778H13.0736H13.0694H13.0651H13.0609H13.0567H13.0525H13.0483H13.044H13.0398H13.0356H13.0314H13.0272H13.023H13.0187H13.0145H13.0103H13.0061H13.0019H12.9977H12.9935H12.9893H12.985H12.9808H12.9766H12.9724H12.9682H12.964H12.9598H12.9556H12.9514H12.9472H12.943H12.9388H12.9346H12.9304H12.9262H12.922H12.9178H12.9136H12.9094H12.9052H12.901H12.8968H12.8926H12.8884H12.8842H12.88H12.8758H12.8716H12.8675H12.8633H12.8591H12.8549H12.8507H12.8465H12.8423H12.8381H12.8339H12.8298H12.8256H12.8214H12.8172H12.813H12.8088H12.8046H12.8005H12.7963H12.7921H12.7879H12.7837H12.7796H12.7754H12.7712H12.767H12.7628H12.7587H12.7545H12.7503H12.7461H12.742H12.7378H12.7336H12.7294H12.7253H12.7211H12.7169H12.7127H12.7086H12.7044H12.7002H12.6961H12.6919H12.6877H12.6835H12.6794H12.6752H12.671H12.6669H12.6627H12.6585H12.6544H12.6502H12.646H12.6419H12.6377H12.6335H12.6294H12.6252H12.621H12.6169H12.6127H12.6086H12.6044H12.6002H12.5961H12.5919H12.5877H12.5836H12.5794H12.5753H12.5711H12.5669H12.5628H12.5586H12.5545H12.5503H12.5461H12.542H12.5378H12.5337H12.5295H12.5253H12.5212H12.517H12.5129H12.5087H12.5046H12.5004H12.4962H12.4921H12.4879H12.4838H12.4796H12.4755H12.4713H12.4672H12.463H12.4588H12.4547H12.4505H12.4464H12.4422H12.4381H12.4339H12.4298H12.4256H12.4215H12.4173H12.4132H12.409H12.4048H12.4007H12.3965H12.3924H12.3882H12.3841H12.3799H12.3758H12.3716H12.3675H12.3633H12.3592H12.355H12.3509H12.3467H12.3426H12.3384H12.3343H12.3301H12.326H12.3218H12.3176H12.3135H12.3093H12.3052H12.301H12.2969H12.2927H12.2886H12.2844H12.2803H12.2761H12.272H12.2678H12.2637H12.2595H12.2554H12.2512H12.2471H12.2429H12.2388H12.2346H12.2305H12.2263H12.2222H12.218H12.2139H12.2097H12.2055H12.2014H12.1972H12.1931H12.1889H12.1848H12.1806H12.1765H12.1723H12.1682H12.164H12.1599H12.1557H12.1515H12.1474H12.1432H12.1391H12.1349H12.1308H12.1266H12.1225H12.1183H12.1142H12.11H12.1058H12.1017H12.0975H12.0934H12.0892H12.0851H12.0809H12.0767H12.0726H12.0684H12.0643H12.0601H12.0559H12.0518H12.0476H12.0435H12.0393H12.0351H12.031H12.0268H12.0227H12.0185H12.0143H12.0102H12.006H12.0019H11.9977H11.9935H11.9894H11.9852H11.981H11.9769H11.9727H11.9685H11.9644H11.9602H11.956H11.9519H11.9477H11.9435H11.9394H11.9352H11.931H11.9269H11.9227H11.9185H11.9144H11.9102H11.906H11.9018H11.8977H11.8935H11.8893H11.8852H11.881H11.8768H11.8726H11.8685H11.8643H11.8601H11.8559H11.8518H11.8476H11.8434H11.8392H11.835H11.8309H11.8267H11.8225H11.8183H11.8141H11.81H11.8058H11.8016H11.7974H11.7932H11.789H11.7849H11.7807H11.7765H11.7723H11.7681H11.7639H11.7597H11.7556H11.7514H11.7472H11.743H11.7388H11.7346H11.7304H11.7262H11.722H11.7178H11.7136H11.7094H11.7052H11.701H11.6969H11.6927H11.6885H11.6843H11.6801H11.6759H11.6717H11.6675H11.6633H11.6591H11.6549H11.6506H11.6464H11.6422H11.638H11.6338H11.6296H11.6254H11.6212H11.617H11.6128H11.6086H11.6044H11.6001H11.5959H11.5917H11.5875H11.5833H11.5791H11.5749H11.5706H11.5664H11.5622H11.558H11.5538H11.5495H11.5453H11.5411H11.5369H11.5343V63.0264V63.0222V63.0181V63.0139V63.0097V63.0056V63.0014V62.9972V62.9931V62.9889V62.9848V62.9806V62.9764V62.9723V62.9681V62.9639V62.9598V62.9556V62.9515V62.9473V62.9431V62.939V62.9348V62.9307V62.9265V62.9223V62.9182V62.914V62.9099V62.9057V62.9015V62.8974V62.8932V62.8891V62.8849V62.8807V62.8766V62.8724V62.8683V62.8641V62.8599V62.8558V62.8516V62.8475V62.8433V62.8392V62.835V62.8308V62.8267V62.8225V62.8184V62.8142V62.8101V62.8059V62.8017V62.7976V62.7934V62.7893V62.7851V62.781V62.7768V62.7727V62.7685V62.7643V62.7602V62.756V62.7519V62.7477V62.7436V62.7394V62.7353V62.7311V62.7269V62.7228V62.7186V62.7145V62.7103V62.7062V62.702V62.6979V62.6937V62.6896V62.6854V62.6812V62.6771V62.6729V62.6688V62.6646V62.6605V62.6563V62.6522V62.648V62.6439V62.6397V62.6355V62.6314V62.6272V62.6231V62.6189V62.6148V62.6106V62.6065V62.6023V62.5982V62.594V62.5898V62.5857V62.5815V62.5774V62.5732V62.5691V62.5649V62.5608V62.5566V62.5524V62.5483V62.5441V62.54V62.5358V62.5317V62.5275V62.5234V62.5192V62.5151V62.5109V62.5067V62.5026V62.4984V62.4943V62.4901V62.486V62.4818V62.4776V62.4735V62.4693V62.4652V62.461V62.4569V62.4527V62.4485V62.4444V62.4402V62.4361V62.4319V62.4278V62.4236V62.4194V62.4153V62.4111V62.407V62.4028V62.3987V62.3945V62.3903V62.3862V62.382V62.3779V62.3737V62.3695V62.3654V62.3612V62.3571V62.3529V62.3487V62.3446V62.3404V62.3363V62.3321V62.3279V62.3238V62.3196V62.3154V62.3113V62.3071V62.303V62.2988V62.2946V62.2905V62.2863V62.2821V62.278V62.2738V62.2696V62.2655V62.2613V62.2572V62.253V62.2488V62.2447V62.2405V62.2363V62.2322V62.228V62.2238V62.2197V62.2155V62.2113V62.2072V62.203V62.1988V62.1946V62.1905V62.1863V62.1821V62.178V62.1738V62.1696V62.1655V62.1613V62.1571V62.1529V62.1488V62.1446V62.1404V62.1363V62.1321V62.1279V62.1237V62.1196V62.1154V62.1112V62.107V62.1029V62.0987V62.0945V62.0903V62.0862V62.082V62.0778V62.0736V62.0695V62.0653V62.0611V62.0569V62.0527V62.0486V62.0444V62.0402V62.036V62.0318V62.0277V62.0235V62.0193V62.0151V62.0109V62.0067V62.0026V61.9984V61.9942V61.99V61.9858V61.9816V61.9775V61.9733V61.9691V61.9649V61.9607V61.9565V61.9523V61.9481V61.944V61.9398V61.9356V61.9314V61.9272V61.923V61.9188V61.9146V61.9104V61.9062V61.902V61.8978V61.8937V61.8895V61.8853V61.8811V61.8769V61.8727V61.8685V61.8643V61.8601V61.8559V61.8517V61.8475V61.8433V61.8391V61.8349V61.8307V61.8265V61.8223V61.8181V61.8139V61.8097V61.8055V61.8013V61.7971V61.7929V61.7887V61.7844V61.7802V61.776V61.7718V61.7676V61.7634V61.7592V61.755V61.7508V61.7466V61.7424V61.7381V61.7339V61.7297V61.7255V61.7213V61.7171V61.7129V61.7086V61.7044V61.7002V61.696V61.6918V61.6876V61.6833V61.6791V61.6749V61.6707V61.6665V61.6622V61.658V61.6538V61.6496V61.6453V61.6411V61.6369V61.6327V61.6284V61.6242V61.62V61.6158V61.6115V61.6073V61.6031V61.5988V61.5946V61.5904V61.5861V61.5819V61.5777V61.5734V61.5692V61.565V61.5607V61.5565V61.5523V61.548V61.5438V61.5395V61.5353V61.5311V61.5268V61.5226V61.5183V61.5141V61.5098V61.5056V61.5014V61.4971V61.4929V61.4886V61.4844V61.4801V61.4759V61.4716V61.4674V61.4631V61.4589V61.4546V61.4504V61.4461V61.4418V61.4376V61.4333V61.4291V61.4248V61.4206V61.4163V61.412V61.4078V61.4035V61.3993V61.395V61.3907V61.3865V61.3822V61.3779V61.3737V61.3694V61.3651V61.3609V61.3566V61.3523V61.3481V61.3438V61.3395V61.3352V61.331V61.3267V61.3224V61.3181V61.3139V61.3096V61.3053V61.301V61.2967V61.2925V61.2882V61.2839V61.2796V61.2753V61.271V61.2668V61.2625V61.2582V61.2539V61.2496V61.2453V61.241V61.2367V61.2324V61.2281V61.2239V61.2196V61.2153V61.211V61.2067V61.2024V61.1981V61.1938V61.1895V61.1852V61.1809V61.1766V61.1754H11.5358H11.5399H11.544H11.5481H11.5522H11.5563H11.5604H11.5645H11.5686H11.5727H11.5768H11.5809H11.5849H11.589H11.5931H11.5972H11.6013H11.6054H11.6095H11.6136H11.6177H11.6218H11.6259H11.63H11.6341H11.6382H11.6423H11.6464H11.6505H11.6546H11.6587H11.6628H11.6669H11.671H11.6751H11.6792H11.6833H11.6874H11.6915H11.6956H11.6997H11.7038H11.7079H11.712H11.7161H11.7202H11.7243H11.7284H11.7325H11.7366H11.7408H11.7449H11.749H11.7531H11.7572H11.7613H11.7654H11.7695H11.7736H11.7777H11.7818H11.7859H11.79H11.7941H11.7982H11.8023H11.8064H11.8105H11.8147H11.8188H11.8229H11.827H11.8311H11.8352H11.8393H11.8434H11.8475H11.8516H11.8557H11.8599H11.864H11.8681H11.8722H11.8763H11.8804H11.8845H11.8886H11.8928H11.8969H11.901H11.9051H11.9092H11.9133H11.9174H11.9216H11.9257H11.9298H11.9339H11.938H11.9421H11.9462H11.9504H11.9545H11.9586H11.9627H11.9668H11.971H11.9751H11.9792H11.9833H11.9874H11.9916H11.9957H11.9998H12.0039H12.008H12.0122H12.0163H12.0204H12.0245H12.0287H12.0328H12.0369H12.041H12.0452H12.0493H12.0534H12.0575H12.0617H12.0658H12.0699H12.0741H12.0782H12.0823H12.0864H12.0906H12.0947H12.0988H12.103H12.1071H12.1112H12.1154H12.1195H12.1236H12.1278H12.1319H12.136H12.1402H12.1443H12.1484H12.1526H12.1567H12.1609H12.165H12.1691H12.1733H12.1774H12.1816H12.1857H12.1898H12.194H12.1981H12.2023H12.2064H12.2106H12.2147H12.2188H12.223H12.2271H12.2313H12.2354H12.2396H12.2437H12.2479H12.252H12.2562H12.2603H12.2645H12.2686H12.2728H12.2769H12.2811H12.2852H12.2894H12.2935H12.2977H12.3018H12.306H12.3102H12.3143H12.3185H12.3226H12.3268H12.3309H12.3351H12.3393H12.3434H12.3476H12.3517H12.3559H12.3601H12.3642H12.3684H12.3726H12.3767H12.3809H12.3851H12.3892H12.3934H12.3976H12.4017H12.4059H12.4101H12.4142H12.4184H12.4226H12.4268H12.4309H12.4351H12.4393H12.4435H12.4476H12.4518H12.456H12.4602H12.4643H12.4685H12.4727H12.4769H12.4811H12.4852H12.4894H12.4936H12.4978H12.502H12.5062H12.5103H12.5145H12.5187H12.5229H12.5271H12.5313H12.5355H12.5397H12.5438H12.548H12.5522H12.5564H12.5606H12.5648H12.569H12.5732H12.5774H12.5816H12.5858H12.59H12.5942H12.5984H12.6026H12.6068H12.611H12.6152H12.6194H12.6236H12.6278H12.632H12.6362H12.6404H12.6446H12.6488H12.6531H12.6573H12.6615H12.6657H12.6699H12.6741H12.6783H12.6825H12.6868H12.691H12.6952H12.6994H12.7036H12.7078H12.7121H12.7163H12.7205H12.7247H12.729H12.7332H12.7374H12.7416H12.7459H12.7501H12.7543H12.7585H12.7628H12.767H12.7712H12.7755H12.7797H12.7839H12.7882H12.7924H12.7966H12.8009H12.8051H12.8093H12.8136H12.8178H12.8221H12.8263H12.8306H12.8348H12.839H12.8433H12.8475H12.8518H12.856H12.8603H12.8645H12.8688H12.873H12.8773H12.8815H12.8858H12.89H12.8943H12.8986H12.9028H12.9071H12.9113H12.9156H12.9199H12.9241H12.9284H12.9327H12.9369H12.9412H12.9454H12.9497H12.954H12.9583H12.9625H12.9668H12.9711H12.9753H12.9796H12.9839H12.9882H12.9924H12.9967H13.001H13.0053H13.0096H13.0138H13.0181H13.0224H13.0267H13.031H13.0353H13.0396H13.0439H13.0481H13.0524H13.0567H13.061H13.0653H13.0696H13.0739H13.0782H13.0825H13.0868H13.0911H13.0954H13.0997H13.104H13.1083H13.1126H13.1169H13.1212H13.1255H13.1298H13.1341H13.1385H13.1428H13.1471H13.1514H13.1557H13.16H13.1643H13.1687H13.173H13.1773H13.1816H13.1859H13.1903H13.1946H13.1989H13.2032H13.2076H13.2119H13.2162H13.2206H13.2249H13.2292H13.2336H13.2379H13.2422H13.2466H13.2509H13.2553H13.2596H13.2639H13.2683H13.2726H13.277H13.2813H13.2857H13.29H13.2944H13.2987H13.3031H13.3074H13.3118H13.3161H13.3205H13.3248H13.3292H13.3336H13.3379H13.3423H13.3466H13.351H13.3554H13.3597H13.3641H13.3685H13.3728H13.3772H13.3816H13.3854V61.1769V61.181V61.1851V61.1892V61.1933V61.1974V61.2015V61.2056V61.2097V61.2138V61.2179V61.222V61.2261V61.2302V61.2343V61.2384V61.2425V61.2465V61.2506V61.2547V61.2588V61.2629V61.267V61.2711V61.2752V61.2793V61.2834V61.2875V61.2916V61.2957V61.2998V61.3039V61.308V61.3121V61.3162V61.3203V61.3244V61.3285V61.3326V61.3367V61.3408V61.3449V61.349V61.3531V61.3572V61.3614V61.3655V61.3696V61.3737V61.3778V61.3819V61.386V61.3901V61.3942V61.3983V61.4024V61.4065V61.4106V61.4147V61.4188V61.4229V61.427V61.4311V61.4352V61.4393V61.4434V61.4476V61.4517V61.4558V61.4599V61.464V61.4681V61.4722V61.4763V61.4804V61.4845V61.4886V61.4927V61.4969V61.501V61.5051V61.5092V61.5133V61.5174V61.5215V61.5256V61.5298V61.5339V61.538V61.5421V61.5462V61.5503V61.5544V61.5586V61.5627V61.5668V61.5709V61.575V61.5791V61.5832V61.5874V61.5915V61.5956V61.5997V61.6038V61.608V61.6121V61.6162V61.6203V61.6244V61.6286V61.6327V61.6368V61.6409V61.645V61.6492V61.6533V61.6574V61.6615V61.6657V61.6698V61.6739V61.678V61.6822V61.6863V61.6904V61.6945V61.6987V61.7028V61.7069V61.711V61.7152V61.7193V61.7234V61.7276V61.7317V61.7358V61.74V61.7441V61.7482V61.7524V61.7565V61.7606V61.7648V61.7689V61.773V61.7772V61.7813V61.7854V61.7896V61.7937V61.7978V61.802V61.8061V61.8103V61.8144V61.8185V61.8227V61.8268V61.831V61.8351V61.8392V61.8434V61.8475V61.8517V61.8558V61.86V61.8641V61.8682V61.8724V61.8765V61.8807V61.8848V61.889V61.8931V61.8973V61.9014V61.9056V61.9097V61.9139V61.918V61.9222V61.9263V61.9305V61.9346V61.9388V61.943V61.9471V61.9513V61.9554V61.9596V61.9637V61.9679V61.9721V61.9762V61.9804V61.9845V61.9887V61.9929V61.997V62.0012V62.0053V62.0095V62.0137V62.0178V62.022V62.0262V62.0303V62.0345V62.0387V62.0428V62.047V62.0512V62.0554V62.0595V62.0637V62.0679V62.072V62.0762V62.0804V62.0846V62.0887V62.0929V62.0971V62.1013V62.1054V62.1096V62.1138V62.118V62.1222V62.1263V62.1305V62.1347V62.1389V62.1431V62.1473V62.1514V62.1556V62.1598V62.164V62.1682V62.1724V62.1766V62.1808V62.185V62.1891V62.1933V62.1975V62.2017V62.2059V62.2101V62.2143V62.2185V62.2227V62.2269V62.2311V62.2353V62.2395V62.2437V62.2479V62.2521V62.2563V62.2605V62.2647V62.2689V62.2731V62.2773V62.2815V62.2857V62.29V62.2942V62.2984V62.3026V62.3068V62.311V62.3152V62.3194V62.3237V62.3279V62.3321V62.3363V62.3405V62.3447V62.349V62.3532V62.3574V62.3616V62.3658V62.3701V62.3743V62.3785V62.3827V62.387V62.3912V62.3954V62.3996V62.4039V62.4081V62.4123V62.4166V62.4208V62.425V62.4293V62.4335V62.4377V62.442V62.4462V62.4505V62.4547V62.4589V62.4632V62.4674V62.4717V62.4759V62.4802V62.4844V62.4886V62.4929V62.4971V62.5014V62.5056V62.5099V62.5141V62.5184V62.5227V62.5269V62.5312V62.5354V62.5397V62.5439V62.5482V62.5525V62.5567V62.561V62.5652V62.5695V62.5738V62.578V62.5823V62.5866V62.5908V62.5951V62.5994V62.6036V62.6079V62.6122V62.6165V62.6207V62.625V62.6293V62.6336V62.6378V62.6421V62.6464V62.6507V62.655V62.6592V62.6635V62.6678V62.6721V62.6764V62.6807V62.685V62.6893V62.6935V62.6978V62.7021V62.7064V62.7107V62.715V62.7193V62.7236V62.7279V62.7322V62.7365V62.7408V62.7451V62.7494V62.7537V62.758V62.7623V62.7666V62.771V62.7753V62.7796V62.7839V62.7882V62.7925V62.7968V62.8011V62.8055V62.8098V62.8141V62.8184V62.8227V62.8271V62.8314V62.8357V62.84V62.8444V62.8487V62.853V62.8573V62.8617V62.866V62.8703V62.8747V62.879V62.8833V62.8877V62.892V62.8964V62.9007V62.905V62.9094V62.9137V62.9181V62.9224V62.9268V62.9311V62.9355V62.9398V62.9442V62.9485V62.9529V62.9572V62.9616V62.9659V62.9703V62.9747V62.979V62.9834V62.9878V62.9921V62.9965V63.0009V63.0052V63.0096V63.014V63.0183V63.0227V63.0265Z" fill="#007EB1" stroke="#DFF1FF" stroke-width="0.3"/>
<path d="M17.8927 66.4245H17.8917H17.8874H17.8832H17.8789H17.8746H17.8703H17.866H17.8617H17.8574H17.8531H17.8488H17.8446H17.8403H17.836H17.8317H17.8274H17.8232H17.8189H17.8146H17.8103H17.8061H17.8018H17.7975H17.7932H17.789H17.7847H17.7804H17.7762H17.7719H17.7676H17.7634H17.7591H17.7548H17.7506H17.7463H17.7421H17.7378H17.7336H17.7293H17.725H17.7208H17.7165H17.7123H17.708H17.7038H17.6995H17.6953H17.691H17.6868H17.6825H17.6783H17.674H17.6698H17.6655H17.6613H17.6571H17.6528H17.6486H17.6443H17.6401H17.6359H17.6316H17.6274H17.6231H17.6189H17.6147H17.6104H17.6062H17.602H17.5977H17.5935H17.5893H17.5851H17.5808H17.5766H17.5724H17.5681H17.5639H17.5597H17.5555H17.5512H17.547H17.5428H17.5386H17.5344H17.5301H17.5259H17.5217H17.5175H17.5133H17.509H17.5048H17.5006H17.4964H17.4922H17.488H17.4838H17.4795H17.4753H17.4711H17.4669H17.4627H17.4585H17.4543H17.4501H17.4459H17.4417H17.4374H17.4332H17.429H17.4248H17.4206H17.4164H17.4122H17.408H17.4038H17.3996H17.3954H17.3912H17.387H17.3828H17.3786H17.3744H17.3702H17.366H17.3618H17.3576H17.3534H17.3492H17.345H17.3408H17.3366H17.3325H17.3283H17.3241H17.3199H17.3157H17.3115H17.3073H17.3031H17.2989H17.2947H17.2905H17.2863H17.2822H17.278H17.2738H17.2696H17.2654H17.2612H17.257H17.2528H17.2487H17.2445H17.2403H17.2361H17.2319H17.2277H17.2235H17.2194H17.2152H17.211H17.2068H17.2026H17.1984H17.1943H17.1901H17.1859H17.1817H17.1775H17.1733H17.1692H17.165H17.1608H17.1566H17.1524H17.1483H17.1441H17.1399H17.1357H17.1315H17.1274H17.1232H17.119H17.1148H17.1107H17.1065H17.1023H17.0981H17.0939H17.0898H17.0856H17.0814H17.0772H17.0731H17.0689H17.0647H17.0605H17.0564H17.0522H17.048H17.0438H17.0397H17.0355H17.0313H17.0271H17.023H17.0188H17.0146H17.0104H17.0063H17.0021H16.9979H16.9937H16.9896H16.9854H16.9812H16.977H16.9729H16.9687H16.9645H16.9603H16.9562H16.952H16.9478H16.9436H16.9395H16.9353H16.9311H16.9269H16.9228H16.9186H16.9144H16.9102H16.9061H16.9019H16.8977H16.8935H16.8894H16.8852H16.881H16.8768H16.8727H16.8685H16.8643H16.8601H16.856H16.8518H16.8476H16.8434H16.8392H16.8351H16.8309H16.8267H16.8225H16.8184H16.8142H16.81H16.8058H16.8017H16.7975H16.7933H16.7891H16.7849H16.7808H16.7766H16.7724H16.7682H16.764H16.7599H16.7557H16.7515H16.7473H16.7431H16.739H16.7348H16.7306H16.7264H16.7222H16.718H16.7139H16.7097H16.7055H16.7013H16.6971H16.6929H16.6888H16.6846H16.6804H16.6762H16.672H16.6678H16.6636H16.6595H16.6553H16.6511H16.6469H16.6427H16.6385H16.6343H16.6301H16.6259H16.6218H16.6176H16.6134H16.6092H16.605H16.6008H16.5966H16.5924H16.5882H16.584H16.5798H16.5756H16.5714H16.5672H16.563H16.5588H16.5546H16.5505H16.5463H16.5421H16.5379H16.5337H16.5295H16.5253H16.5211H16.5169H16.5126H16.5084H16.5042H16.5H16.4958H16.4916H16.4874H16.4832H16.479H16.4748H16.4706H16.4664H16.4622H16.458H16.4538H16.4495H16.4453H16.4411H16.4369H16.4327H16.4285H16.4243H16.4201H16.4158H16.4116H16.4074H16.4032H16.399H16.3947H16.3905H16.3863H16.3821H16.3779H16.3736H16.3694H16.3652H16.361H16.3567H16.3525H16.3483H16.3441H16.3398H16.3356H16.3314H16.3272H16.3229H16.3187H16.3145H16.3102H16.306H16.3018H16.2975H16.2933H16.289H16.2848H16.2806H16.2763H16.2721H16.2679H16.2636H16.2594H16.2551H16.2509H16.2466H16.2424H16.2381H16.2339H16.2296H16.2254H16.2211H16.2169H16.2126H16.2084H16.2041H16.1999H16.1956H16.1914H16.1871H16.1829H16.1786H16.1743H16.1701H16.1658H16.1616H16.1573H16.153H16.1488H16.1445H16.1402H16.136H16.1317H16.1274H16.1231H16.1189H16.1146H16.1103H16.1061H16.1018H16.0975H16.0932H16.0889H16.0847H16.0804H16.0761H16.0718H16.0675H16.0632H16.059H16.0547H16.0504H16.0461H16.0418H16.0375H16.0332H16.0289H16.0279V66.4219V66.4176V66.4134V66.4092V66.405V66.4008V66.3965V66.3923V66.3881V66.3839V66.3797V66.3754V66.3712V66.367V66.3628V66.3586V66.3544V66.3502V66.3459V66.3417V66.3375V66.3333V66.3291V66.3249V66.3207V66.3165V66.3123V66.3081V66.3039V66.2997V66.2955V66.2913V66.2871V66.2829V66.2786V66.2744V66.2702V66.266V66.2618V66.2577V66.2535V66.2493V66.2451V66.2409V66.2367V66.2325V66.2283V66.2241V66.2199V66.2157V66.2115V66.2073V66.2031V66.1989V66.1947V66.1906V66.1864V66.1822V66.178V66.1738V66.1696V66.1654V66.1612V66.1571V66.1529V66.1487V66.1445V66.1403V66.1361V66.1319V66.1278V66.1236V66.1194V66.1152V66.111V66.1069V66.1027V66.0985V66.0943V66.0901V66.086V66.0818V66.0776V66.0734V66.0692V66.0651V66.0609V66.0567V66.0525V66.0484V66.0442V66.04V66.0358V66.0317V66.0275V66.0233V66.0191V66.015V66.0108V66.0066V66.0024V65.9983V65.9941V65.9899V65.9858V65.9816V65.9774V65.9732V65.9691V65.9649V65.9607V65.9566V65.9524V65.9482V65.9441V65.9399V65.9357V65.9316V65.9274V65.9232V65.9191V65.9149V65.9107V65.9065V65.9024V65.8982V65.894V65.8899V65.8857V65.8815V65.8774V65.8732V65.869V65.8649V65.8607V65.8566V65.8524V65.8482V65.8441V65.8399V65.8357V65.8316V65.8274V65.8232V65.8191V65.8149V65.8107V65.8066V65.8024V65.7982V65.7941V65.7899V65.7857V65.7816V65.7774V65.7733V65.7691V65.7649V65.7608V65.7566V65.7524V65.7483V65.7441V65.7399V65.7358V65.7316V65.7274V65.7233V65.7191V65.7149V65.7108V65.7066V65.7025V65.6983V65.6941V65.69V65.6858V65.6816V65.6775V65.6733V65.6691V65.665V65.6608V65.6566V65.6525V65.6483V65.6441V65.64V65.6358V65.6316V65.6275V65.6233V65.6191V65.615V65.6108V65.6066V65.6025V65.5983V65.5941V65.5899V65.5858V65.5816V65.5774V65.5733V65.5691V65.5649V65.5608V65.5566V65.5524V65.5482V65.5441V65.5399V65.5357V65.5316V65.5274V65.5232V65.519V65.5149V65.5107V65.5065V65.5023V65.4982V65.494V65.4898V65.4856V65.4815V65.4773V65.4731V65.4689V65.4648V65.4606V65.4564V65.4522V65.448V65.4439V65.4397V65.4355V65.4313V65.4271V65.423V65.4188V65.4146V65.4104V65.4062V65.4021V65.3979V65.3937V65.3895V65.3853V65.3811V65.3769V65.3728V65.3686V65.3644V65.3602V65.356V65.3518V65.3476V65.3434V65.3392V65.3351V65.3309V65.3267V65.3225V65.3183V65.3141V65.3099V65.3057V65.3015V65.2973V65.2931V65.2889V65.2847V65.2805V65.2763V65.2721V65.2679V65.2637V65.2595V65.2553V65.2511V65.2469V65.2427V65.2385V65.2343V65.2301V65.2259V65.2217V65.2175V65.2133V65.2091V65.2049V65.2007V65.1964V65.1922V65.188V65.1838V65.1796V65.1754V65.1712V65.167V65.1627V65.1585V65.1543V65.1501V65.1459V65.1416V65.1374V65.1332V65.129V65.1248V65.1205V65.1163V65.1121V65.1079V65.1036V65.0994V65.0952V65.091V65.0867V65.0825V65.0783V65.074V65.0698V65.0656V65.0613V65.0571V65.0529V65.0486V65.0444V65.0402V65.0359V65.0317V65.0274V65.0232V65.0189V65.0147V65.0105V65.0062V65.002V64.9977V64.9935V64.9892V64.985V64.9807V64.9765V64.9722V64.968V64.9637V64.9595V64.9552V64.9509V64.9467V64.9424V64.9382V64.9339V64.9296V64.9254V64.9211V64.9169V64.9126V64.9083V64.904V64.8998V64.8955V64.8912V64.887V64.8827V64.8784V64.8741V64.8699V64.8656V64.8613V64.857V64.8528V64.8485V64.8442V64.8399V64.8356V64.8313V64.827V64.8228V64.8185V64.8142V64.8099V64.8056V64.8013V64.797V64.7927V64.7884V64.7841V64.7798V64.7755V64.7712V64.7669V64.7626V64.7583V64.754V64.7497V64.7454V64.7411V64.7368V64.7324V64.7281V64.7238V64.7195V64.7152V64.7109V64.7065V64.7022V64.6979V64.6936V64.6893V64.6849V64.6806V64.6763V64.6719V64.6676V64.6633V64.659V64.6546V64.6503V64.6459V64.6416V64.6373V64.6329V64.6286V64.6242V64.6199V64.6155V64.6112V64.6068V64.6025V64.5981V64.5938V64.5894V64.5851V64.5807V64.5764V64.572V64.5676V64.5633V64.5597H16.028H16.0322H16.0364H16.0405H16.0447H16.0489H16.053H16.0572H16.0614H16.0655H16.0697H16.0738H16.078H16.0822H16.0863H16.0905H16.0947H16.0988H16.103H16.1071H16.1113H16.1155H16.1196H16.1238H16.128H16.1321H16.1363H16.1404H16.1446H16.1488H16.1529H16.1571H16.1612H16.1654H16.1696H16.1737H16.1779H16.182H16.1862H16.1904H16.1945H16.1987H16.2028H16.207H16.2112H16.2153H16.2195H16.2236H16.2278H16.232H16.2361H16.2403H16.2444H16.2486H16.2527H16.2569H16.2611H16.2652H16.2694H16.2735H16.2777H16.2819H16.286H16.2902H16.2943H16.2985H16.3027H16.3068H16.311H16.3151H16.3193H16.3234H16.3276H16.3318H16.3359H16.3401H16.3442H16.3484H16.3526H16.3567H16.3609H16.365H16.3692H16.3733H16.3775H16.3817H16.3858H16.39H16.3941H16.3983H16.4025H16.4066H16.4108H16.4149H16.4191H16.4233H16.4274H16.4316H16.4357H16.4399H16.4441H16.4482H16.4524H16.4565H16.4607H16.4649H16.469H16.4732H16.4773H16.4815H16.4857H16.4898H16.494H16.4982H16.5023H16.5065H16.5106H16.5148H16.519H16.5231H16.5273H16.5315H16.5356H16.5398H16.5439H16.5481H16.5523H16.5564H16.5606H16.5648H16.5689H16.5731H16.5773H16.5814H16.5856H16.5898H16.5939H16.5981H16.6023H16.6064H16.6106H16.6148H16.6189H16.6231H16.6273H16.6314H16.6356H16.6398H16.6439H16.6481H16.6523H16.6564H16.6606H16.6648H16.6689H16.6731H16.6773H16.6815H16.6856H16.6898H16.694H16.6981H16.7023H16.7065H16.7107H16.7148H16.719H16.7232H16.7274H16.7315H16.7357H16.7399H16.7441H16.7482H16.7524H16.7566H16.7608H16.7649H16.7691H16.7733H16.7775H16.7817H16.7858H16.79H16.7942H16.7984H16.8026H16.8067H16.8109H16.8151H16.8193H16.8235H16.8276H16.8318H16.836H16.8402H16.8444H16.8486H16.8527H16.8569H16.8611H16.8653H16.8695H16.8737H16.8779H16.882H16.8862H16.8904H16.8946H16.8988H16.903H16.9072H16.9114H16.9156H16.9198H16.924H16.9281H16.9323H16.9365H16.9407H16.9449H16.9491H16.9533H16.9575H16.9617H16.9659H16.9701H16.9743H16.9785H16.9827H16.9869H16.9911H16.9953H16.9995H17.0037H17.0079H17.0121H17.0163H17.0205H17.0247H17.0289H17.0331H17.0373H17.0415H17.0457H17.0499H17.0541H17.0584H17.0626H17.0668H17.071H17.0752H17.0794H17.0836H17.0878H17.092H17.0963H17.1005H17.1047H17.1089H17.1131H17.1173H17.1215H17.1258H17.13H17.1342H17.1384H17.1426H17.1469H17.1511H17.1553H17.1595H17.1638H17.168H17.1722H17.1764H17.1806H17.1849H17.1891H17.1933H17.1976H17.2018H17.206H17.2102H17.2145H17.2187H17.2229H17.2272H17.2314H17.2356H17.2399H17.2441H17.2483H17.2526H17.2568H17.2611H17.2653H17.2695H17.2738H17.278H17.2823H17.2865H17.2907H17.295H17.2992H17.3035H17.3077H17.312H17.3162H17.3205H17.3247H17.329H17.3332H17.3375H17.3417H17.346H17.3502H17.3545H17.3587H17.363H17.3673H17.3715H17.3758H17.38H17.3843H17.3885H17.3928H17.3971H17.4013H17.4056H17.4099H17.4141H17.4184H17.4227H17.4269H17.4312H17.4355H17.4397H17.444H17.4483H17.4526H17.4568H17.4611H17.4654H17.4697H17.4739H17.4782H17.4825H17.4868H17.491H17.4953H17.4996H17.5039H17.5082H17.5125H17.5167H17.521H17.5253H17.5296H17.5339H17.5382H17.5425H17.5468H17.5511H17.5554H17.5597H17.5639H17.5682H17.5725H17.5768H17.5811H17.5854H17.5897H17.594H17.5983H17.6026H17.607H17.6113H17.6156H17.6199H17.6242H17.6285H17.6328H17.6371H17.6414H17.6457H17.6501H17.6544H17.6587H17.663H17.6673H17.6716H17.676H17.6803H17.6846H17.6889H17.6933H17.6976H17.7019H17.7062H17.7106H17.7149H17.7192H17.7236H17.7279H17.7322H17.7366H17.7409H17.7452H17.7496H17.7539H17.7582H17.7626H17.7669H17.7713H17.7756H17.78H17.7843H17.7887H17.793H17.7973H17.8017H17.8061H17.8104H17.8148H17.8191H17.8235H17.8278H17.8322H17.8365H17.8409H17.8453H17.8496H17.854H17.8584H17.8627H17.8671H17.8715H17.8758H17.8802H17.8846H17.8889H17.8927V64.5612V64.5653V64.5694V64.5735V64.5776V64.5817V64.5858V64.5899V64.594V64.5981V64.6022V64.6063V64.6103V64.6144V64.6185V64.6226V64.6267V64.6308V64.6349V64.639V64.6431V64.6472V64.6513V64.6554V64.6595V64.6636V64.6677V64.6718V64.6759V64.68V64.6841V64.6882V64.6923V64.6964V64.7005V64.7046V64.7088V64.7129V64.717V64.7211V64.7252V64.7293V64.7334V64.7375V64.7416V64.7457V64.7498V64.7539V64.758V64.7621V64.7662V64.7703V64.7744V64.7785V64.7826V64.7867V64.7909V64.795V64.7991V64.8032V64.8073V64.8114V64.8155V64.8196V64.8237V64.8278V64.8319V64.8361V64.8402V64.8443V64.8484V64.8525V64.8566V64.8607V64.8648V64.8689V64.8731V64.8772V64.8813V64.8854V64.8895V64.8936V64.8978V64.9019V64.906V64.9101V64.9142V64.9183V64.9225V64.9266V64.9307V64.9348V64.9389V64.9431V64.9472V64.9513V64.9554V64.9595V64.9637V64.9678V64.9719V64.976V64.9801V64.9843V64.9884V64.9925V64.9966V65.0008V65.0049V65.009V65.0132V65.0173V65.0214V65.0255V65.0297V65.0338V65.0379V65.0421V65.0462V65.0503V65.0545V65.0586V65.0627V65.0668V65.071V65.0751V65.0793V65.0834V65.0875V65.0917V65.0958V65.0999V65.1041V65.1082V65.1123V65.1165V65.1206V65.1248V65.1289V65.1331V65.1372V65.1413V65.1455V65.1496V65.1538V65.1579V65.1621V65.1662V65.1703V65.1745V65.1786V65.1828V65.1869V65.1911V65.1952V65.1994V65.2035V65.2077V65.2118V65.216V65.2202V65.2243V65.2285V65.2326V65.2368V65.2409V65.2451V65.2492V65.2534V65.2576V65.2617V65.2659V65.27V65.2742V65.2784V65.2825V65.2867V65.2909V65.295V65.2992V65.3034V65.3075V65.3117V65.3159V65.32V65.3242V65.3284V65.3325V65.3367V65.3409V65.345V65.3492V65.3534V65.3576V65.3617V65.3659V65.3701V65.3743V65.3785V65.3826V65.3868V65.391V65.3952V65.3994V65.4035V65.4077V65.4119V65.4161V65.4203V65.4245V65.4287V65.4328V65.437V65.4412V65.4454V65.4496V65.4538V65.458V65.4622V65.4664V65.4706V65.4748V65.479V65.4832V65.4874V65.4916V65.4958V65.5V65.5042V65.5084V65.5126V65.5168V65.521V65.5252V65.5294V65.5336V65.5378V65.542V65.5462V65.5504V65.5546V65.5589V65.5631V65.5673V65.5715V65.5757V65.5799V65.5841V65.5884V65.5926V65.5968V65.601V65.6052V65.6095V65.6137V65.6179V65.6221V65.6264V65.6306V65.6348V65.6391V65.6433V65.6475V65.6517V65.656V65.6602V65.6644V65.6687V65.6729V65.6772V65.6814V65.6856V65.6899V65.6941V65.6984V65.7026V65.7068V65.7111V65.7153V65.7196V65.7238V65.7281V65.7323V65.7366V65.7408V65.7451V65.7493V65.7536V65.7578V65.7621V65.7664V65.7706V65.7749V65.7791V65.7834V65.7877V65.7919V65.7962V65.8005V65.8047V65.809V65.8133V65.8175V65.8218V65.8261V65.8303V65.8346V65.8389V65.8432V65.8474V65.8517V65.856V65.8603V65.8646V65.8688V65.8731V65.8774V65.8817V65.886V65.8903V65.8946V65.8989V65.9031V65.9074V65.9117V65.916V65.9203V65.9246V65.9289V65.9332V65.9375V65.9418V65.9461V65.9504V65.9547V65.959V65.9633V65.9676V65.972V65.9763V65.9806V65.9849V65.9892V65.9935V65.9978V66.0021V66.0065V66.0108V66.0151V66.0194V66.0238V66.0281V66.0324V66.0367V66.0411V66.0454V66.0497V66.054V66.0584V66.0627V66.067V66.0714V66.0757V66.0801V66.0844V66.0887V66.0931V66.0974V66.1018V66.1061V66.1105V66.1148V66.1192V66.1235V66.1279V66.1322V66.1366V66.1409V66.1453V66.1497V66.154V66.1584V66.1627V66.1671V66.1715V66.1758V66.1802V66.1846V66.1889V66.1933V66.1977V66.2021V66.2064V66.2108V66.2152V66.2196V66.2239V66.2283V66.2327V66.2371V66.2415V66.2459V66.2503V66.2546V66.259V66.2634V66.2678V66.2722V66.2766V66.281V66.2854V66.2898V66.2942V66.2986V66.303V66.3074V66.3118V66.3163V66.3207V66.3251V66.3295V66.3339V66.3383V66.3427V66.3472V66.3516V66.356V66.3604V66.3648V66.3693V66.3737V66.3781V66.3826V66.387V66.3914V66.3959V66.4003V66.4047V66.4092V66.4136V66.4181V66.4225V66.4245Z" fill="#007EB1" stroke="#DFF1FF" stroke-width="0.3"/>
<path d="M62.3111 62.2716H62.3149H62.3193H62.3237H62.328H62.3324H62.3368H62.3412H62.3455H62.3499H62.3543H62.3586H62.363H62.3673H62.3717H62.3761H62.3804H62.3848H62.3891H62.3935H62.3978H62.4022H62.4065H62.4109H62.4152H62.4196H62.4239H62.4283H62.4326H62.437H62.4413H62.4457H62.45H62.4543H62.4587H62.463H62.4674H62.4717H62.476H62.4804H62.4847H62.489H62.4934H62.4977H62.502H62.5063H62.5107H62.515H62.5193H62.5236H62.528H62.5323H62.5366H62.5409H62.5453H62.5496H62.5539H62.5582H62.5625H62.5668H62.5712H62.5755H62.5798H62.5841H62.5884H62.5927H62.597H62.6013H62.6056H62.6099H62.6142H62.6185H62.6229H62.6272H62.6315H62.6358H62.6401H62.6444H62.6487H62.653H62.6572H62.6615H62.6658H62.6701H62.6744H62.6787H62.683H62.6873H62.6916H62.6959H62.7002H62.7045H62.7087H62.713H62.7173H62.7216H62.7259H62.7302H62.7345H62.7387H62.743H62.7473H62.7516H62.7559H62.7601H62.7644H62.7687H62.773H62.7772H62.7815H62.7858H62.7901H62.7943H62.7986H62.8029H62.8071H62.8114H62.8157H62.8199H62.8242H62.8285H62.8327H62.837H62.8413H62.8455H62.8498H62.8541H62.8583H62.8626H62.8668H62.8711H62.8754H62.8796H62.8839H62.8881H62.8924H62.8966H62.9009H62.9051H62.9094H62.9137H62.9179H62.9222H62.9264H62.9307H62.9349H62.9392H62.9434H62.9477H62.9519H62.9562H62.9604H62.9646H62.9689H62.9731H62.9774H62.9816H62.9859H62.9901H62.9944H62.9986H63.0028H63.0071H63.0113H63.0156H63.0198H63.024H63.0283H63.0325H63.0367H63.041H63.0452H63.0495H63.0537H63.0579H63.0622H63.0664H63.0706H63.0749H63.0791H63.0833H63.0875H63.0918H63.096H63.1002H63.1045H63.1087H63.1129H63.1172H63.1214H63.1256H63.1298H63.1341H63.1383H63.1425H63.1467H63.151H63.1552H63.1594H63.1636H63.1679H63.1721H63.1763H63.1805H63.1847H63.189H63.1932H63.1974H63.2016H63.2058H63.2101H63.2143H63.2185H63.2227H63.2269H63.2311H63.2354H63.2396H63.2438H63.248H63.2522H63.2564H63.2607H63.2649H63.2691H63.2733H63.2775H63.2817H63.2859H63.2902H63.2944H63.2986H63.3028H63.307H63.3112H63.3154H63.3196H63.3238H63.3281H63.3323H63.3365H63.3407H63.3449H63.3491H63.3533H63.3575H63.3617H63.3659H63.3701H63.3744H63.3786H63.3828H63.387H63.3912H63.3954H63.3996H63.4038H63.408H63.4122H63.4164H63.4206H63.4248H63.429H63.4332H63.4374H63.4416H63.4459H63.4501H63.4543H63.4585H63.4627H63.4669H63.4711H63.4753H63.4795H63.4837H63.4879H63.4921H63.4963H63.5005H63.5047H63.5089H63.5131H63.5173H63.5215H63.5257H63.5299H63.5341H63.5383H63.5425H63.5467H63.5509H63.5551H63.5593H63.5635H63.5677H63.5719H63.5761H63.5803H63.5845H63.5887H63.5929H63.5971H63.6013H63.6055H63.6097H63.614H63.6182H63.6224H63.6266H63.6308H63.635H63.6392H63.6434H63.6476H63.6518H63.656H63.6602H63.6644H63.6686H63.6728H63.677H63.6812H63.6854H63.6896H63.6938H63.698H63.7022H63.7064H63.7106H63.7148H63.719H63.7232H63.7274H63.7316H63.7358H63.74H63.7442H63.7484H63.7526H63.7568H63.761H63.7652H63.7694H63.7736H63.7778H63.782H63.7862H63.7904H63.7947H63.7989H63.8031H63.8073H63.8115H63.8157H63.8199H63.8241H63.8283H63.8325H63.8367H63.8409H63.8451H63.8493H63.8535H63.8577H63.8619H63.8662H63.8704H63.8746H63.8788H63.883H63.8872H63.8914H63.8956H63.8998H63.904H63.9082H63.9125H63.9167H63.9209H63.9251H63.9293H63.9335H63.9377H63.9419H63.9461H63.9504H63.9546H63.9588H63.963H63.9672H63.9714H63.9756H63.9799H63.9841H63.9883H63.9925H63.9967H64.0009H64.0051H64.0094H64.0136H64.0178H64.022H64.0262H64.0305H64.0347H64.0389H64.0431H64.0473H64.0516H64.0558H64.06H64.0642H64.0684H64.0727H64.0769H64.0811H64.0853H64.0896H64.0938H64.098H64.1022H64.1065H64.1107H64.1149H64.1191H64.1234H64.1276H64.1318H64.136H64.1403H64.1445H64.1487H64.153H64.1572H64.1614H64.1657H64.1699H64.1741H64.1784H64.1826H64.1868H64.1896V62.2742V62.2784V62.2826V62.2869V62.2911V62.2953V62.2995V62.3037V62.308V62.3122V62.3164V62.3206V62.3248V62.329V62.3333V62.3375V62.3417V62.3459V62.3501V62.3543V62.3585V62.3627V62.3669V62.3712V62.3754V62.3796V62.3838V62.388V62.3922V62.3964V62.4006V62.4048V62.409V62.4132V62.4174V62.4216V62.4258V62.43V62.4342V62.4384V62.4426V62.4468V62.451V62.4552V62.4594V62.4636V62.4678V62.472V62.4762V62.4804V62.4845V62.4887V62.4929V62.4971V62.5013V62.5055V62.5097V62.5139V62.5181V62.5223V62.5264V62.5306V62.5348V62.539V62.5432V62.5474V62.5516V62.5557V62.5599V62.5641V62.5683V62.5725V62.5767V62.5808V62.585V62.5892V62.5934V62.5976V62.6017V62.6059V62.6101V62.6143V62.6185V62.6226V62.6268V62.631V62.6352V62.6393V62.6435V62.6477V62.6519V62.656V62.6602V62.6644V62.6686V62.6727V62.6769V62.6811V62.6853V62.6894V62.6936V62.6978V62.7019V62.7061V62.7103V62.7145V62.7186V62.7228V62.727V62.7311V62.7353V62.7395V62.7436V62.7478V62.752V62.7562V62.7603V62.7645V62.7687V62.7728V62.777V62.7812V62.7853V62.7895V62.7937V62.7978V62.802V62.8062V62.8103V62.8145V62.8187V62.8228V62.827V62.8312V62.8353V62.8395V62.8437V62.8478V62.852V62.8562V62.8603V62.8645V62.8687V62.8728V62.877V62.8811V62.8853V62.8895V62.8936V62.8978V62.902V62.9061V62.9103V62.9145V62.9186V62.9228V62.927V62.9311V62.9353V62.9395V62.9436V62.9478V62.9519V62.9561V62.9603V62.9644V62.9686V62.9728V62.9769V62.9811V62.9853V62.9894V62.9936V62.9978V63.0019V63.0061V63.0103V63.0144V63.0186V63.0228V63.0269V63.0311V63.0353V63.0394V63.0436V63.0478V63.0519V63.0561V63.0603V63.0644V63.0686V63.0728V63.0769V63.0811V63.0853V63.0894V63.0936V63.0978V63.1019V63.1061V63.1103V63.1144V63.1186V63.1228V63.1269V63.1311V63.1353V63.1395V63.1436V63.1478V63.152V63.1561V63.1603V63.1645V63.1687V63.1728V63.177V63.1812V63.1854V63.1895V63.1937V63.1979V63.2021V63.2062V63.2104V63.2146V63.2188V63.2229V63.2271V63.2313V63.2355V63.2396V63.2438V63.248V63.2522V63.2564V63.2605V63.2647V63.2689V63.2731V63.2773V63.2814V63.2856V63.2898V63.294V63.2982V63.3024V63.3065V63.3107V63.3149V63.3191V63.3233V63.3275V63.3317V63.3359V63.34V63.3442V63.3484V63.3526V63.3568V63.361V63.3652V63.3694V63.3736V63.3778V63.382V63.3861V63.3903V63.3945V63.3987V63.4029V63.4071V63.4113V63.4155V63.4197V63.4239V63.4281V63.4323V63.4365V63.4407V63.4449V63.4491V63.4533V63.4575V63.4617V63.4659V63.4701V63.4744V63.4786V63.4828V63.487V63.4912V63.4954V63.4996V63.5038V63.508V63.5122V63.5165V63.5207V63.5249V63.5291V63.5333V63.5375V63.5417V63.546V63.5502V63.5544V63.5586V63.5628V63.5671V63.5713V63.5755V63.5797V63.584V63.5882V63.5924V63.5966V63.6009V63.6051V63.6093V63.6135V63.6178V63.622V63.6262V63.6305V63.6347V63.6389V63.6432V63.6474V63.6517V63.6559V63.6601V63.6644V63.6686V63.6729V63.6771V63.6813V63.6856V63.6898V63.6941V63.6983V63.7026V63.7068V63.7111V63.7153V63.7196V63.7238V63.7281V63.7323V63.7366V63.7408V63.7451V63.7494V63.7536V63.7579V63.7621V63.7664V63.7707V63.7749V63.7792V63.7835V63.7877V63.792V63.7963V63.8005V63.8048V63.8091V63.8134V63.8176V63.8219V63.8262V63.8305V63.8347V63.839V63.8433V63.8476V63.8519V63.8561V63.8604V63.8647V63.869V63.8733V63.8776V63.8819V63.8862V63.8905V63.8947V63.899V63.9033V63.9076V63.9119V63.9162V63.9205V63.9248V63.9291V63.9334V63.9377V63.9421V63.9464V63.9507V63.955V63.9593V63.9636V63.9679V63.9722V63.9765V63.9809V63.9852V63.9895V63.9938V63.9981V64.0025V64.0068V64.0111V64.0154V64.0198V64.0241V64.0284V64.0328V64.0371V64.0414V64.0458V64.0501V64.0544V64.0588V64.0631V64.0675V64.0718V64.0762V64.0805V64.0848V64.0892V64.0935V64.0979V64.1023V64.1066V64.111V64.1153V64.1197V64.124V64.1284V64.1328V64.1364H64.1893H64.1852H64.181H64.1768H64.1726H64.1684H64.1643H64.1601H64.1559H64.1517H64.1476H64.1434H64.1392H64.135H64.1309H64.1267H64.1225H64.1183H64.1142H64.11H64.1058H64.1016H64.0974H64.0933H64.0891H64.0849H64.0807H64.0766H64.0724H64.0682H64.064H64.0598H64.0557H64.0515H64.0473H64.0431H64.0389H64.0348H64.0306H64.0264H64.0222H64.018H64.0139H64.0097H64.0055H64.0013H63.9971H63.993H63.9888H63.9846H63.9804H63.9762H63.9721H63.9679H63.9637H63.9595H63.9553H63.9511H63.947H63.9428H63.9386H63.9344H63.9302H63.926H63.9219H63.9177H63.9135H63.9093H63.9051H63.9009H63.8968H63.8926H63.8884H63.8842H63.88H63.8758H63.8716H63.8675H63.8633H63.8591H63.8549H63.8507H63.8465H63.8423H63.8381H63.834H63.8298H63.8256H63.8214H63.8172H63.813H63.8088H63.8046H63.8004H63.7963H63.7921H63.7879H63.7837H63.7795H63.7753H63.7711H63.7669H63.7627H63.7585H63.7543H63.7502H63.746H63.7418H63.7376H63.7334H63.7292H63.725H63.7208H63.7166H63.7124H63.7082H63.704H63.6998H63.6956H63.6914H63.6872H63.683H63.6788H63.6746H63.6704H63.6662H63.662H63.6578H63.6536H63.6494H63.6452H63.641H63.6368H63.6326H63.6284H63.6242H63.62H63.6158H63.6116H63.6074H63.6032H63.599H63.5948H63.5906H63.5864H63.5822H63.578H63.5738H63.5696H63.5654H63.5612H63.557H63.5528H63.5486H63.5444H63.5401H63.5359H63.5317H63.5275H63.5233H63.5191H63.5149H63.5107H63.5065H63.5023H63.498H63.4938H63.4896H63.4854H63.4812H63.477H63.4728H63.4686H63.4643H63.4601H63.4559H63.4517H63.4475H63.4433H63.439H63.4348H63.4306H63.4264H63.4222H63.418H63.4137H63.4095H63.4053H63.4011H63.3969H63.3926H63.3884H63.3842H63.38H63.3757H63.3715H63.3673H63.3631H63.3588H63.3546H63.3504H63.3462H63.3419H63.3377H63.3335H63.3293H63.325H63.3208H63.3166H63.3123H63.3081H63.3039H63.2997H63.2954H63.2912H63.287H63.2827H63.2785H63.2743H63.27H63.2658H63.2616H63.2573H63.2531H63.2489H63.2446H63.2404H63.2361H63.2319H63.2277H63.2234H63.2192H63.2149H63.2107H63.2065H63.2022H63.198H63.1937H63.1895H63.1852H63.181H63.1768H63.1725H63.1683H63.164H63.1598H63.1555H63.1513H63.147H63.1428H63.1385H63.1343H63.13H63.1258H63.1215H63.1173H63.113H63.1088H63.1045H63.1003H63.096H63.0918H63.0875H63.0832H63.079H63.0747H63.0705H63.0662H63.0619H63.0577H63.0534H63.0492H63.0449H63.0406H63.0364H63.0321H63.0279H63.0236H63.0193H63.0151H63.0108H63.0065H63.0023H62.998H62.9937H62.9895H62.9852H62.9809H62.9766H62.9724H62.9681H62.9638H62.9596H62.9553H62.951H62.9467H62.9425H62.9382H62.9339H62.9296H62.9253H62.9211H62.9168H62.9125H62.9082H62.9039H62.8997H62.8954H62.8911H62.8868H62.8825H62.8782H62.874H62.8697H62.8654H62.8611H62.8568H62.8525H62.8482H62.8439H62.8397H62.8354H62.8311H62.8268H62.8225H62.8182H62.8139H62.8096H62.8053H62.801H62.7967H62.7924H62.7881H62.7838H62.7795H62.7752H62.7709H62.7666H62.7623H62.758H62.7537H62.7494H62.7451H62.7408H62.7365H62.7322H62.7279H62.7236H62.7192H62.7149H62.7106H62.7063H62.702H62.6977H62.6934H62.6891H62.6847H62.6804H62.6761H62.6718H62.6675H62.6632H62.6588H62.6545H62.6502H62.6459H62.6415H62.6372H62.6329H62.6286H62.6242H62.6199H62.6156H62.6113H62.6069H62.6026H62.5983H62.5939H62.5896H62.5853H62.581H62.5766H62.5723H62.5679H62.5636H62.5593H62.5549H62.5506H62.5463H62.5419H62.5376H62.5332H62.5289H62.5245H62.5202H62.5159H62.5115H62.5072H62.5028H62.4985H62.4941H62.4898H62.4854H62.4811H62.4767H62.4724H62.468H62.4637H62.4593H62.4549H62.4506H62.4462H62.4419H62.4375H62.4332H62.4288H62.4244H62.4201H62.4157H62.4113H62.407H62.4026H62.3982H62.3939H62.3895H62.3851H62.3808H62.3764H62.372H62.3677H62.3633H62.3589H62.3545H62.3502H62.3458H62.3414H62.337H62.3326H62.3283H62.3239H62.3195H62.3151H62.3111V64.1363V64.1321V64.1279V64.1238V64.1196V64.1154V64.1113V64.1071V64.103V64.0988V64.0946V64.0905V64.0863V64.0821V64.078V64.0738V64.0697V64.0655V64.0613V64.0572V64.053V64.0488V64.0447V64.0405V64.0364V64.0322V64.028V64.0239V64.0197V64.0156V64.0114V64.0072V64.0031V63.9989V63.9948V63.9906V63.9864V63.9823V63.9781V63.974V63.9698V63.9656V63.9615V63.9573V63.9532V63.949V63.9448V63.9407V63.9365V63.9324V63.9282V63.924V63.9199V63.9157V63.9116V63.9074V63.9032V63.8991V63.8949V63.8908V63.8866V63.8825V63.8783V63.8741V63.87V63.8658V63.8617V63.8575V63.8533V63.8492V63.845V63.8409V63.8367V63.8326V63.8284V63.8242V63.8201V63.8159V63.8118V63.8076V63.8034V63.7993V63.7951V63.791V63.7868V63.7826V63.7785V63.7743V63.7702V63.766V63.7618V63.7577V63.7535V63.7494V63.7452V63.7411V63.7369V63.7327V63.7286V63.7244V63.7203V63.7161V63.7119V63.7078V63.7036V63.6994V63.6953V63.6911V63.687V63.6828V63.6786V63.6745V63.6703V63.6662V63.662V63.6578V63.6537V63.6495V63.6453V63.6412V63.637V63.6329V63.6287V63.6245V63.6204V63.6162V63.612V63.6079V63.6037V63.5995V63.5954V63.5912V63.5871V63.5829V63.5787V63.5746V63.5704V63.5662V63.5621V63.5579V63.5537V63.5496V63.5454V63.5412V63.5371V63.5329V63.5287V63.5246V63.5204V63.5162V63.512V63.5079V63.5037V63.4995V63.4954V63.4912V63.487V63.4829V63.4787V63.4745V63.4703V63.4662V63.462V63.4578V63.4536V63.4495V63.4453V63.4411V63.437V63.4328V63.4286V63.4244V63.4203V63.4161V63.4119V63.4077V63.4035V63.3994V63.3952V63.391V63.3868V63.3827V63.3785V63.3743V63.3701V63.3659V63.3618V63.3576V63.3534V63.3492V63.345V63.3409V63.3367V63.3325V63.3283V63.3241V63.3199V63.3158V63.3116V63.3074V63.3032V63.299V63.2948V63.2906V63.2865V63.2823V63.2781V63.2739V63.2697V63.2655V63.2613V63.2571V63.2529V63.2487V63.2446V63.2404V63.2362V63.232V63.2278V63.2236V63.2194V63.2152V63.211V63.2068V63.2026V63.1984V63.1942V63.19V63.1858V63.1816V63.1774V63.1732V63.169V63.1648V63.1606V63.1564V63.1522V63.148V63.1438V63.1396V63.1354V63.1312V63.127V63.1228V63.1186V63.1144V63.1102V63.106V63.1017V63.0975V63.0933V63.0891V63.0849V63.0807V63.0765V63.0723V63.0681V63.0638V63.0596V63.0554V63.0512V63.047V63.0428V63.0385V63.0343V63.0301V63.0259V63.0217V63.0175V63.0132V63.009V63.0048V63.0006V62.9963V62.9921V62.9879V62.9837V62.9794V62.9752V62.971V62.9668V62.9625V62.9583V62.9541V62.9498V62.9456V62.9414V62.9371V62.9329V62.9287V62.9244V62.9202V62.916V62.9117V62.9075V62.9033V62.899V62.8948V62.8905V62.8863V62.8821V62.8778V62.8736V62.8693V62.8651V62.8608V62.8566V62.8523V62.8481V62.8438V62.8396V62.8353V62.8311V62.8268V62.8226V62.8183V62.8141V62.8098V62.8056V62.8013V62.7971V62.7928V62.7886V62.7843V62.78V62.7758V62.7715V62.7672V62.763V62.7587V62.7545V62.7502V62.7459V62.7417V62.7374V62.7331V62.7289V62.7246V62.7203V62.716V62.7118V62.7075V62.7032V62.6989V62.6947V62.6904V62.6861V62.6818V62.6776V62.6733V62.669V62.6647V62.6604V62.6561V62.6519V62.6476V62.6433V62.639V62.6347V62.6304V62.6261V62.6218V62.6175V62.6133V62.609V62.6047V62.6004V62.5961V62.5918V62.5875V62.5832V62.5789V62.5746V62.5703V62.566V62.5617V62.5574V62.5531V62.5488V62.5444V62.5401V62.5358V62.5315V62.5272V62.5229V62.5186V62.5143V62.5099V62.5056V62.5013V62.497V62.4927V62.4884V62.484V62.4797V62.4754V62.4711V62.4667V62.4624V62.4581V62.4538V62.4494V62.4451V62.4408V62.4364V62.4321V62.4278V62.4234V62.4191V62.4148V62.4104V62.4061V62.4017V62.3974V62.3931V62.3887V62.3844V62.38V62.3757V62.3713V62.367V62.3626V62.3583V62.3539V62.3496V62.3452V62.3409V62.3365V62.3321V62.3278V62.3234V62.3191V62.3147V62.3103V62.306V62.3016V62.2972V62.2929V62.2885V62.2841V62.2797V62.2754V62.2716Z" fill="#007EB1" stroke="#DFF1FF" stroke-width="0.3"/>
<path d="M41.5958 65.3147H41.595H41.5907H41.5864H41.5822H41.5779H41.5736H41.5693H41.5651H41.5608H41.5565H41.5522H41.548H41.5437H41.5394H41.5352H41.5309H41.5266H41.5224H41.5181H41.5139H41.5096H41.5053H41.5011H41.4968H41.4926H41.4883H41.4841H41.4798H41.4756H41.4713H41.4671H41.4628H41.4586H41.4543H41.4501H41.4459H41.4416H41.4374H41.4331H41.4289H41.4247H41.4204H41.4162H41.412H41.4077H41.4035H41.3993H41.3951H41.3908H41.3866H41.3824H41.3782H41.3739H41.3697H41.3655H41.3613H41.357H41.3528H41.3486H41.3444H41.3402H41.336H41.3318H41.3275H41.3233H41.3191H41.3149H41.3107H41.3065H41.3023H41.2981H41.2939H41.2897H41.2855H41.2813H41.2771H41.2729H41.2687H41.2645H41.2603H41.2561H41.2519H41.2477H41.2435H41.2393H41.2351H41.2309H41.2268H41.2226H41.2184H41.2142H41.21H41.2058H41.2016H41.1974H41.1933H41.1891H41.1849H41.1807H41.1765H41.1724H41.1682H41.164H41.1598H41.1556H41.1515H41.1473H41.1431H41.1389H41.1348H41.1306H41.1264H41.1223H41.1181H41.1139H41.1097H41.1056H41.1014H41.0972H41.0931H41.0889H41.0847H41.0806H41.0764H41.0723H41.0681H41.0639H41.0598H41.0556H41.0514H41.0473H41.0431H41.039H41.0348H41.0306H41.0265H41.0223H41.0182H41.014H41.0099H41.0057H41.0016H40.9974H40.9932H40.9891H40.9849H40.9808H40.9766H40.9725H40.9683H40.9642H40.96H40.9559H40.9517H40.9476H40.9434H40.9393H40.9352H40.931H40.9269H40.9227H40.9186H40.9144H40.9103H40.9061H40.902H40.8978H40.8937H40.8896H40.8854H40.8813H40.8771H40.873H40.8688H40.8647H40.8606H40.8564H40.8523H40.8481H40.844H40.8399H40.8357H40.8316H40.8274H40.8233H40.8192H40.815H40.8109H40.8068H40.8026H40.7985H40.7943H40.7902H40.7861H40.7819H40.7778H40.7737H40.7695H40.7654H40.7612H40.7571H40.753H40.7488H40.7447H40.7406H40.7364H40.7323H40.7282H40.724H40.7199H40.7158H40.7116H40.7075H40.7034H40.6992H40.6951H40.6909H40.6868H40.6827H40.6785H40.6744H40.6703H40.6661H40.662H40.6579H40.6537H40.6496H40.6455H40.6413H40.6372H40.6331H40.6289H40.6248H40.6207H40.6165H40.6124H40.6083H40.6041H40.6H40.5959H40.5917H40.5876H40.5834H40.5793H40.5752H40.571H40.5669H40.5628H40.5586H40.5545H40.5504H40.5462H40.5421H40.5379H40.5338H40.5297H40.5255H40.5214H40.5172H40.5131H40.509H40.5048H40.5007H40.4966H40.4924H40.4883H40.4841H40.48H40.4759H40.4717H40.4676H40.4634H40.4593H40.4551H40.451H40.4469H40.4427H40.4386H40.4344H40.4303H40.4261H40.422H40.4178H40.4137H40.4095H40.4054H40.4013H40.3971H40.393H40.3888H40.3847H40.3805H40.3764H40.3722H40.3681H40.3639H40.3598H40.3556H40.3515H40.3473H40.3432H40.339H40.3348H40.3307H40.3265H40.3224H40.3182H40.3141H40.3099H40.3057H40.3016H40.2974H40.2933H40.2891H40.285H40.2808H40.2766H40.2725H40.2683H40.2641H40.26H40.2558H40.2516H40.2475H40.2433H40.2391H40.235H40.2308H40.2266H40.2225H40.2183H40.2141H40.21H40.2058H40.2016H40.1974H40.1933H40.1891H40.1849H40.1807H40.1766H40.1724H40.1682H40.164H40.1598H40.1557H40.1515H40.1473H40.1431H40.1389H40.1347H40.1306H40.1264H40.1222H40.118H40.1138H40.1096H40.1054H40.1012H40.097H40.0928H40.0886H40.0845H40.0803H40.0761H40.0719H40.0677H40.0635H40.0593H40.0551H40.0509H40.0467H40.0425H40.0383H40.034H40.0298H40.0256H40.0214H40.0172H40.013H40.0088H40.0046H40.0004H39.9962H39.9919H39.9877H39.9835H39.9793H39.9751H39.9708H39.9666H39.9624H39.9582H39.954H39.9497H39.9455H39.9413H39.937H39.9328H39.9286H39.9244H39.9201H39.9159H39.9116H39.9074H39.9032H39.8989H39.8947H39.8905H39.8862H39.882H39.8777H39.8735H39.8692H39.865H39.8607H39.8565H39.8522H39.848H39.8437H39.8395H39.8352H39.831H39.8267H39.8224H39.8182H39.8139H39.8097H39.8054H39.8011H39.7969H39.7926H39.7883H39.784H39.7798H39.7755H39.7712H39.7669H39.7627H39.7584H39.7541H39.7498H39.7455H39.7447V65.3132V65.3088V65.3045V65.3002V65.2959V65.2915V65.2872V65.2829V65.2786V65.2742V65.2699V65.2656V65.2613V65.257V65.2526V65.2483V65.244V65.2397V65.2354V65.231V65.2267V65.2224V65.2181V65.2137V65.2094V65.2051V65.2008V65.1965V65.1921V65.1878V65.1835V65.1792V65.1749V65.1706V65.1662V65.1619V65.1576V65.1533V65.149V65.1447V65.1403V65.136V65.1317V65.1274V65.1231V65.1188V65.1144V65.1101V65.1058V65.1015V65.0972V65.0929V65.0885V65.0842V65.0799V65.0756V65.0713V65.067V65.0627V65.0583V65.054V65.0497V65.0454V65.0411V65.0368V65.0325V65.0282V65.0238V65.0195V65.0152V65.0109V65.0066V65.0023V64.998V64.9937V64.9893V64.985V64.9807V64.9764V64.9721V64.9678V64.9635V64.9592V64.9549V64.9505V64.9462V64.9419V64.9376V64.9333V64.929V64.9247V64.9204V64.9161V64.9117V64.9074V64.9031V64.8988V64.8945V64.8902V64.8859V64.8816V64.8773V64.873V64.8686V64.8643V64.86V64.8557V64.8514V64.8471V64.8428V64.8385V64.8342V64.8299V64.8256V64.8212V64.8169V64.8126V64.8083V64.804V64.7997V64.7954V64.7911V64.7868V64.7825V64.7782V64.7739V64.7695V64.7652V64.7609V64.7566V64.7523V64.748V64.7437V64.7394V64.7351V64.7308V64.7265V64.7222V64.7178V64.7135V64.7092V64.7049V64.7006V64.6963V64.692V64.6877V64.6834V64.6791V64.6748V64.6705V64.6661V64.6618V64.6575V64.6532V64.6489V64.6446V64.6403V64.636V64.6317V64.6274V64.6231V64.6187V64.6144V64.6101V64.6058V64.6015V64.5972V64.5929V64.5886V64.5843V64.58V64.5757V64.5713V64.567V64.5627V64.5584V64.5541V64.5498V64.5455V64.5412V64.5369V64.5326V64.5282V64.5239V64.5196V64.5153V64.511V64.5067V64.5024V64.4981V64.4938V64.4894V64.4851V64.4808V64.4765V64.4722V64.4679V64.4636V64.4593V64.455V64.4506V64.4463V64.442V64.4377V64.4334V64.4291V64.4248V64.4205V64.4161V64.4118V64.4075V64.4032V64.3989V64.3946V64.3903V64.3859V64.3816V64.3773V64.373V64.3687V64.3644V64.3601V64.3557V64.3514V64.3471V64.3428V64.3385V64.3342V64.3298V64.3255V64.3212V64.3169V64.3126V64.3083V64.3039V64.2996V64.2953V64.291V64.2867V64.2824V64.278V64.2737V64.2694V64.2651V64.2608V64.2564V64.2521V64.2478V64.2435V64.2392V64.2348V64.2305V64.2262V64.2219V64.2176V64.2132V64.2089V64.2046V64.2003V64.196V64.1916V64.1873V64.183V64.1787V64.1743V64.17V64.1657V64.1614V64.157V64.1527V64.1484V64.1441V64.1397V64.1354V64.1311V64.1268V64.1224V64.1181V64.1138V64.1095V64.1051V64.1008V64.0965V64.0921V64.0878V64.0835V64.0792V64.0748V64.0705V64.0662V64.0618V64.0575V64.0532V64.0488V64.0445V64.0402V64.0359V64.0315V64.0272V64.0229V64.0185V64.0142V64.0099V64.0055V64.0012V63.9969V63.9925V63.9882V63.9838V63.9795V63.9752V63.9708V63.9665V63.9622V63.9578V63.9535V63.9492V63.9448V63.9405V63.9361V63.9318V63.9275V63.9231V63.9188V63.9144V63.9101V63.9058V63.9014V63.8971V63.8927V63.8884V63.884V63.8797V63.8754V63.871V63.8667V63.8623V63.858V63.8536V63.8493V63.8449V63.8406V63.8362V63.8319V63.8275V63.8232V63.8188V63.8145V63.8101V63.8058V63.8014V63.7971V63.7927V63.7884V63.784V63.7797V63.7753V63.771V63.7666V63.7623V63.7579V63.7536V63.7492V63.7449V63.7405V63.7361V63.7318V63.7274V63.7231V63.7187V63.7144V63.71V63.7056V63.7013V63.6969V63.6926V63.6882V63.6838V63.6795V63.6751V63.6707V63.6664V63.662V63.6577V63.6533V63.6489V63.6446V63.6402V63.6358V63.6315V63.6271V63.6227V63.6184V63.614V63.6096V63.6052V63.6009V63.5965V63.5921V63.5878V63.5834V63.579V63.5746V63.5703V63.5659V63.5615V63.5571V63.5528V63.5484V63.544V63.5396V63.5353V63.5309V63.5265V63.5221V63.5177V63.5134V63.509V63.5046V63.5002V63.4958V63.4915V63.4871V63.4827V63.4783V63.4739V63.4695V63.4651V63.4608V63.4564V63.452V63.4476V63.4432V63.4388V63.4344V63.43V63.4256V63.4213V63.4169V63.4125V63.4081V63.4037V63.3993V63.3951H39.7488H39.7529H39.7571H39.7613H39.7654H39.7696H39.7737H39.7779H39.782H39.7862H39.7903H39.7945H39.7986H39.8028H39.8069H39.8111H39.8152H39.8194H39.8235H39.8276H39.8318H39.8359H39.8401H39.8442H39.8484H39.8525H39.8567H39.8608H39.8649H39.8691H39.8732H39.8774H39.8815H39.8857H39.8898H39.8939H39.8981H39.9022H39.9064H39.9105H39.9146H39.9188H39.9229H39.9271H39.9312H39.9353H39.9395H39.9436H39.9477H39.9519H39.956H39.9602H39.9643H39.9684H39.9726H39.9767H39.9808H39.985H39.9891H39.9932H39.9974H40.0015H40.0056H40.0098H40.0139H40.018H40.0222H40.0263H40.0304H40.0346H40.0387H40.0428H40.047H40.0511H40.0552H40.0594H40.0635H40.0676H40.0717H40.0759H40.08H40.0841H40.0883H40.0924H40.0965H40.1007H40.1048H40.1089H40.113H40.1172H40.1213H40.1254H40.1296H40.1337H40.1378H40.142H40.1461H40.1502H40.1543H40.1585H40.1626H40.1667H40.1709H40.175H40.1791H40.1832H40.1874H40.1915H40.1956H40.1998H40.2039H40.208H40.2121H40.2163H40.2204H40.2245H40.2287H40.2328H40.2369H40.241H40.2452H40.2493H40.2534H40.2576H40.2617H40.2658H40.27H40.2741H40.2782H40.2823H40.2865H40.2906H40.2947H40.2989H40.303H40.3071H40.3112H40.3154H40.3195H40.3236H40.3278H40.3319H40.336H40.3402H40.3443H40.3484H40.3526H40.3567H40.3608H40.365H40.3691H40.3732H40.3773H40.3815H40.3856H40.3897H40.3939H40.398H40.4021H40.4063H40.4104H40.4146H40.4187H40.4228H40.427H40.4311H40.4352H40.4394H40.4435H40.4476H40.4518H40.4559H40.46H40.4642H40.4683H40.4725H40.4766H40.4807H40.4849H40.489H40.4932H40.4973H40.5014H40.5056H40.5097H40.5139H40.518H40.5221H40.5263H40.5304H40.5346H40.5387H40.5428H40.547H40.5511H40.5553H40.5594H40.5636H40.5677H40.5719H40.576H40.5802H40.5843H40.5884H40.5926H40.5967H40.6009H40.605H40.6092H40.6133H40.6175H40.6216H40.6258H40.6299H40.6341H40.6382H40.6424H40.6466H40.6507H40.6549H40.659H40.6632H40.6673H40.6715H40.6756H40.6798H40.684H40.6881H40.6923H40.6964H40.7006H40.7048H40.7089H40.7131H40.7172H40.7214H40.7256H40.7297H40.7339H40.7381H40.7422H40.7464H40.7506H40.7547H40.7589H40.7631H40.7672H40.7714H40.7756H40.7797H40.7839H40.7881H40.7922H40.7964H40.8006H40.8048H40.8089H40.8131H40.8173H40.8215H40.8256H40.8298H40.834H40.8382H40.8424H40.8465H40.8507H40.8549H40.8591H40.8633H40.8675H40.8716H40.8758H40.88H40.8842H40.8884H40.8926H40.8968H40.9009H40.9051H40.9093H40.9135H40.9177H40.9219H40.9261H40.9303H40.9345H40.9387H40.9429H40.9471H40.9513H40.9555H40.9597H40.9639H40.9681H40.9723H40.9765H40.9807H40.9849H40.9891H40.9933H40.9975H41.0017H41.0059H41.0101H41.0143H41.0186H41.0228H41.027H41.0312H41.0354H41.0396H41.0438H41.0481H41.0523H41.0565H41.0607H41.0649H41.0692H41.0734H41.0776H41.0818H41.0861H41.0903H41.0945H41.0987H41.103H41.1072H41.1114H41.1157H41.1199H41.1241H41.1284H41.1326H41.1368H41.1411H41.1453H41.1495H41.1538H41.158H41.1623H41.1665H41.1708H41.175H41.1793H41.1835H41.1877H41.192H41.1962H41.2005H41.2047H41.209H41.2133H41.2175H41.2218H41.226H41.2303H41.2345H41.2388H41.2431H41.2473H41.2516H41.2559H41.2601H41.2644H41.2687H41.2729H41.2772H41.2815H41.2857H41.29H41.2943H41.2986H41.3028H41.3071H41.3114H41.3157H41.32H41.3243H41.3285H41.3328H41.3371H41.3414H41.3457H41.35H41.3543H41.3586H41.3629H41.3671H41.3714H41.3757H41.38H41.3843H41.3886H41.3929H41.3972H41.4015H41.4059H41.4102H41.4145H41.4188H41.4231H41.4274H41.4317H41.436H41.4403H41.4447H41.449H41.4533H41.4576H41.4619H41.4663H41.4706H41.4749H41.4792H41.4836H41.4879H41.4922H41.4966H41.5009H41.5052H41.5096H41.5139H41.5182H41.5226H41.5269H41.5313H41.5356H41.54H41.5443H41.5487H41.553H41.5574H41.5617H41.5661H41.5704H41.5748H41.5791H41.5835H41.5879H41.5922H41.5958V63.3981V63.4024V63.4066V63.4109V63.4151V63.4193V63.4236V63.4278V63.4321V63.4363V63.4406V63.4448V63.4491V63.4533V63.4575V63.4618V63.466V63.4703V63.4745V63.4788V63.483V63.4872V63.4915V63.4957V63.5V63.5042V63.5085V63.5127V63.5169V63.5212V63.5254V63.5297V63.5339V63.5382V63.5424V63.5466V63.5509V63.5551V63.5594V63.5636V63.5679V63.5721V63.5763V63.5806V63.5848V63.5891V63.5933V63.5975V63.6018V63.606V63.6103V63.6145V63.6187V63.623V63.6272V63.6315V63.6357V63.64V63.6442V63.6484V63.6527V63.6569V63.6612V63.6654V63.6696V63.6739V63.6781V63.6824V63.6866V63.6909V63.6951V63.6993V63.7036V63.7078V63.7121V63.7163V63.7206V63.7248V63.729V63.7333V63.7375V63.7418V63.746V63.7503V63.7545V63.7587V63.763V63.7672V63.7715V63.7757V63.78V63.7842V63.7885V63.7927V63.7969V63.8012V63.8054V63.8097V63.8139V63.8182V63.8224V63.8267V63.8309V63.8352V63.8394V63.8437V63.8479V63.8521V63.8564V63.8606V63.8649V63.8691V63.8734V63.8776V63.8819V63.8861V63.8904V63.8946V63.8989V63.9031V63.9074V63.9116V63.9159V63.9201V63.9244V63.9286V63.9329V63.9371V63.9414V63.9457V63.9499V63.9542V63.9584V63.9627V63.9669V63.9712V63.9754V63.9797V63.9839V63.9882V63.9925V63.9967V64.001V64.0052V64.0095V64.0137V64.018V64.0223V64.0265V64.0308V64.035V64.0393V64.0436V64.0478V64.0521V64.0563V64.0606V64.0649V64.0691V64.0734V64.0777V64.0819V64.0862V64.0905V64.0947V64.099V64.1033V64.1075V64.1118V64.1161V64.1203V64.1246V64.1289V64.1331V64.1374V64.1417V64.1459V64.1502V64.1545V64.1588V64.163V64.1673V64.1716V64.1758V64.1801V64.1844V64.1887V64.193V64.1972V64.2015V64.2058V64.2101V64.2143V64.2186V64.2229V64.2272V64.2315V64.2357V64.24V64.2443V64.2486V64.2529V64.2572V64.2614V64.2657V64.27V64.2743V64.2786V64.2829V64.2872V64.2914V64.2957V64.3V64.3043V64.3086V64.3129V64.3172V64.3215V64.3258V64.3301V64.3344V64.3387V64.343V64.3473V64.3516V64.3558V64.3601V64.3644V64.3687V64.373V64.3773V64.3817V64.386V64.3903V64.3946V64.3989V64.4032V64.4075V64.4118V64.4161V64.4204V64.4247V64.429V64.4333V64.4376V64.4419V64.4463V64.4506V64.4549V64.4592V64.4635V64.4678V64.4721V64.4765V64.4808V64.4851V64.4894V64.4937V64.4981V64.5024V64.5067V64.511V64.5154V64.5197V64.524V64.5283V64.5327V64.537V64.5413V64.5456V64.55V64.5543V64.5586V64.563V64.5673V64.5716V64.576V64.5803V64.5847V64.589V64.5933V64.5977V64.602V64.6064V64.6107V64.615V64.6194V64.6237V64.6281V64.6324V64.6368V64.6411V64.6455V64.6498V64.6542V64.6585V64.6629V64.6672V64.6716V64.6759V64.6803V64.6846V64.689V64.6934V64.6977V64.7021V64.7064V64.7108V64.7152V64.7195V64.7239V64.7283V64.7326V64.737V64.7414V64.7457V64.7501V64.7545V64.7589V64.7632V64.7676V64.772V64.7764V64.7807V64.7851V64.7895V64.7939V64.7983V64.8027V64.807V64.8114V64.8158V64.8202V64.8246V64.829V64.8334V64.8378V64.8422V64.8466V64.8509V64.8553V64.8597V64.8641V64.8685V64.8729V64.8773V64.8817V64.8861V64.8906V64.895V64.8994V64.9038V64.9082V64.9126V64.917V64.9214V64.9258V64.9302V64.9347V64.9391V64.9435V64.9479V64.9523V64.9568V64.9612V64.9656V64.97V64.9745V64.9789V64.9833V64.9877V64.9922V64.9966V65.001V65.0055V65.0099V65.0143V65.0188V65.0232V65.0277V65.0321V65.0365V65.041V65.0454V65.0499V65.0543V65.0588V65.0632V65.0677V65.0721V65.0766V65.081V65.0855V65.09V65.0944V65.0989V65.1033V65.1078V65.1123V65.1167V65.1212V65.1257V65.1301V65.1346V65.1391V65.1436V65.148V65.1525V65.157V65.1615V65.1659V65.1704V65.1749V65.1794V65.1839V65.1884V65.1928V65.1973V65.2018V65.2063V65.2108V65.2153V65.2198V65.2243V65.2288V65.2333V65.2378V65.2423V65.2468V65.2513V65.2558V65.2603V65.2648V65.2694V65.2739V65.2784V65.2829V65.2874V65.2919V65.2964V65.301V65.3055V65.31V65.3145V65.3147Z" fill="#007EB1" stroke="#DFF1FF" stroke-width="0.3"/>
</svg>
