<svg width="375" height="578" viewBox="0 0 375 578" fill="none" xmlns="http://www.w3.org/2000/svg">
<path fill-rule="evenodd" clip-rule="evenodd" d="M-154.357 14.2306C-153.947 6.25588 -147.362 0 -139.377 0H591.333C599.617 0 606.333 6.71572 606.333 15V364.995L606.333 365.172L606.333 365.349V378.7C606.333 378.917 606.151 379.091 605.933 379.081C605.731 379.071 605.557 379.221 605.535 379.422C600.336 425.564 570.174 464.657 528.061 484.404C518.302 488.98 514.358 502.529 514.823 513.298C514.845 513.802 514.856 514.308 514.856 514.817C514.856 535.019 497.529 551.396 476.155 551.396C470.26 551.396 464.673 550.151 459.673 547.923C449.493 543.388 434.345 542.734 426.09 550.223C407.125 567.427 381.375 578 353.013 578C326.873 578 302.952 569.019 284.517 554.143C278.666 549.422 270.352 548.659 263.957 552.612C237.98 568.666 206.932 578 173.578 578C121.851 578 75.6717 555.551 45.3496 520.399C37.7188 511.553 21.9321 511.904 12.6213 518.96C1.77824 527.178 -11.9867 532.094 -26.9664 532.094C-61.9426 532.094 -90.2963 505.295 -90.2963 472.236C-90.2963 468.557 -89.9451 464.955 -89.2726 461.459C-87.3279 451.349 -92.1341 439.577 -101.595 435.519C-138.81 419.553 -165.208 385.008 -167.532 344.412C-167.588 343.44 -168.362 342.654 -169.334 342.609C-170.373 342.56 -171.174 341.676 -171.121 340.637L-154.357 14.2306Z" fill="#E6F5F8"/>
</svg>
