<svg width="1600" height="695" viewBox="0 0 1600 695" fill="none" xmlns="http://www.w3.org/2000/svg">
<path fill-rule="evenodd" clip-rule="evenodd" d="M-478.695 1812.05C-477.603 1833.32 -460.042 1850 -438.748 1850H1915.65C1937.74 1850 1955.65 1832.09 1955.65 1810V637.9C1955.65 637.203 1955.06 636.646 1954.37 636.679V636.679C1953.72 636.71 1953.17 636.23 1953.09 635.588C1936 483.883 1834.6 355.986 1694.04 294.553C1667.7 283.043 1657.21 247.606 1661.57 219.196C1662.42 213.657 1662.86 207.993 1662.86 202.231C1662.86 137.569 1607.4 85.1499 1538.99 85.1499C1515.45 85.1499 1493.44 91.3565 1474.7 102.133C1448.93 116.947 1409.38 118.606 1388.17 97.7925C1326.71 37.5054 1240.42 0.000244141 1144.85 0.000244141C1058.6 0.000244141 979.902 30.5483 920.203 80.8215C904.869 93.7343 882.664 95.75 865.751 84.9875C781.418 31.3217 679.846 0.00012207 570.534 0.00012207C399.693 0.00012207 247.757 76.5059 150.986 195.247C131.304 219.396 89.8089 218.463 66.3704 197.94C30.2151 166.283 -18.1752 146.932 -71.3473 146.932C-183.295 146.932 -274.047 232.708 -274.047 338.518C-274.047 354.174 -272.06 369.391 -268.312 383.957C-261.47 410.543 -274.285 441.721 -299.831 451.772C-424.393 500.784 -513.602 613.965 -521.257 747.644C-521.435 750.754 -523.913 753.27 -527.024 753.416V753.416C-530.349 753.572 -532.913 756.402 -532.742 759.725L-478.695 1812.05Z" fill="#DFF1FF"/>
</svg>
